<svg width="125" height="41" viewBox="0 0 125 41" fill="none" xmlns="http://www.w3.org/2000/svg">
<path d="M10.7327 14.0461C10.4327 14.0466 10.1745 13.939 9.95818 13.7234C9.75383 13.5077 9.53724 13.1481 9.30841 12.6444C9.0917 12.2128 8.89284 11.6851 8.71182 11.0614C8.53077 10.4257 8.37367 9.75397 8.24051 9.04619C8.11935 8.33839 8.02224 7.66655 7.9492 7.03067C7.86392 6.2508 7.78486 5.60293 7.71201 5.08705C7.63917 4.57117 7.5605 4.1633 7.476 3.86344C7.40351 3.56356 7.31317 3.3537 7.20497 3.23388C7.09675 3.10206 6.95265 3.03629 6.77265 3.03659C6.46065 3.0371 6.11304 3.27767 5.72983 3.7583C5.35862 4.23891 4.98774 4.92352 4.6172 5.81213C4.24665 6.70074 3.90041 7.76931 3.57845 9.01784C3.2685 10.2663 3.00679 11.6588 2.79331 13.1951C2.75776 13.4712 2.6801 13.6813 2.56034 13.8255C2.45256 13.9577 2.28467 14.024 2.05667 14.0243C1.69667 14.0249 1.42046 13.8994 1.22805 13.6477C1.03561 13.384 0.938885 12.9402 0.937861 12.3162C0.93668 11.5962 0.995528 10.8941 1.11441 10.2099C1.24528 9.52567 1.39418 8.85342 1.5611 8.19315C1.74 7.52085 1.89489 6.8486 2.02579 6.17638C2.16867 5.49215 2.25155 4.80801 2.27442 4.12397C2.28609 3.91995 2.33982 3.75786 2.43563 3.63771C2.54343 3.51753 2.69933 3.45727 2.90333 3.45694C3.09533 3.45662 3.28742 3.51031 3.4796 3.61799C3.67175 3.71368 3.84603 3.88139 4.00242 4.12114L3.19281 4.35646C3.71907 3.2996 4.28175 2.49467 4.88085 1.94169C5.47992 1.37671 6.12746 1.09364 6.82346 1.0925C7.56746 1.09128 8.1318 1.30036 8.51649 1.71973C8.91316 2.12708 9.2082 2.76259 9.40162 3.62628C9.60704 4.48994 9.78289 5.61766 9.92917 7.00942C10.0387 7.95724 10.1781 8.77901 10.3472 9.47474C10.5283 10.1584 10.7033 10.7402 10.8721 11.2199C11.0528 11.6876 11.2035 12.0893 11.3241 12.4251C11.4446 12.7489 11.5051 13.0368 11.5055 13.2888C11.5059 13.5288 11.4402 13.7149 11.3084 13.8472C11.1766 13.9794 10.9847 14.0457 10.7327 14.0461ZM1.09711 10.6419C0.725115 10.6425 0.448988 10.565 0.268732 10.4093C0.100476 10.2535 0.0161415 10.0497 0.015728 9.79769C0.0154327 9.61769 0.0691866 9.4676 0.17699 9.34742C0.296773 9.21522 0.488586 9.10091 0.752428 9.00448C2.0477 8.55835 3.52915 8.21992 5.19677 7.98918C6.86437 7.74645 8.68218 7.62346 10.6502 7.62024C11.1662 7.61939 11.5143 7.69682 11.6946 7.85252C11.8868 8.00821 11.9832 8.22405 11.9836 8.50005C11.9841 8.81205 11.8466 9.07028 11.5709 9.27473C11.2952 9.47918 10.9054 9.58182 10.4014 9.58265C9.18939 9.58464 8.13945 9.62236 7.25157 9.69581C6.37567 9.75725 5.61981 9.84249 4.98399 9.95154C4.36015 10.0486 3.82031 10.1514 3.36449 10.2602C2.90867 10.3689 2.50082 10.4596 2.14094 10.5322C1.79305 10.6048 1.44511 10.6413 1.09711 10.6419ZM17.829 14.0885C16.869 14.09 16.0947 13.8693 15.5059 13.4263C14.9172 12.9712 14.4901 12.3419 14.2248 11.5384C13.9715 10.7228 13.8439 9.781 13.8422 8.713C13.8411 8.077 13.8702 7.51295 13.9294 7.02085C14.0006 6.51674 14.0718 6.03662 14.1431 5.5805C14.2263 5.12437 14.2855 4.65627 14.3207 4.17621C14.3558 3.62415 14.3731 3.18012 14.3726 2.84412C14.372 2.50812 14.3835 2.1901 14.407 1.89006C14.4186 1.67404 14.4843 1.48794 14.6041 1.33174C14.7358 1.16352 14.9517 1.07917 15.2517 1.07868C15.6837 1.07797 15.99 1.29947 16.1708 1.74317C16.3515 2.18687 16.4066 2.88278 16.3362 3.8309C16.2889 4.26298 16.2356 4.66507 16.1762 5.03717C16.1168 5.39726 16.0573 5.75736 15.9979 6.11746C15.9505 6.46554 15.9091 6.84361 15.8738 7.25167C15.8384 7.64772 15.8212 8.10375 15.822 8.61975C15.8235 9.49575 15.9026 10.1916 16.0595 10.7074C16.2283 11.2231 16.4689 11.5947 16.7813 11.8222C17.1056 12.0377 17.5078 12.145 17.9878 12.1442C18.2758 12.1437 18.4978 12.1134 18.6537 12.0531C18.8216 11.9928 18.9655 11.9386 19.0854 11.8904C19.2053 11.8302 19.3433 11.8 19.4993 11.7997C19.7153 11.7994 19.8774 11.8651 19.9856 11.9969C20.0938 12.1288 20.1481 12.3147 20.1485 12.5547C20.1492 12.9627 19.9578 13.323 19.5743 13.6356C19.2028 13.9362 18.621 14.0872 17.829 14.0885ZM15.7299 7.3239C15.3462 7.49253 15.0522 7.49901 14.8479 7.34335C14.6437 7.18768 14.5413 6.96585 14.5409 6.67785C14.5404 6.38985 14.6 6.13775 14.7196 5.92156C14.8512 5.69334 15.1689 5.48882 15.6726 5.30799C15.9844 5.18748 16.3142 5.08494 16.6621 5.00037C17.01 4.9158 17.3639 4.84922 17.7238 4.80063C18.0957 4.75202 18.4437 4.72745 18.7677 4.72691C19.0797 4.7264 19.3317 4.76799 19.5239 4.85167C19.716 4.93536 19.8602 5.05512 19.9565 5.21096C20.0527 5.35481 20.101 5.53473 20.1013 5.75073C20.1017 5.97873 20.03 6.15285 19.8862 6.27308C19.7544 6.3933 19.5565 6.46562 19.2926 6.49006C18.7766 6.5269 18.3147 6.58166 17.9068 6.65433C17.5109 6.72698 17.1391 6.81759 16.7913 6.92616C16.4554 7.03471 16.1017 7.16729 15.7299 7.3239ZM23.2019 14.0437C22.9379 14.0441 22.7279 13.9844 22.5717 13.8647C22.4155 13.7449 22.2952 13.5771 22.2108 13.3613C22.1385 13.1334 22.102 12.8695 22.1015 12.5695C22.1001 11.6815 22.0928 10.9315 22.0798 10.3195C22.0788 9.69549 22.0719 9.1555 22.0592 8.69952C22.0584 8.24352 22.0517 7.81753 22.0391 7.42155C22.0384 7.02555 22.0377 6.60555 22.037 6.16155C22.0366 5.89755 22.0782 5.66348 22.1619 5.45935C22.2455 5.24321 22.3712 5.075 22.539 4.95473C22.7188 4.83443 22.9467 4.77406 23.2227 4.77361C23.5467 4.77307 23.8049 4.88065 23.9973 5.09634C24.1896 5.30002 24.2921 5.61785 24.3048 6.04983C24.3052 6.30183 24.2998 6.66184 24.2886 7.12986C24.2894 7.59786 24.2782 8.11388 24.2551 8.67792C24.2441 9.22994 24.227 9.79397 24.2039 10.37C24.1928 10.934 24.1817 11.45 24.1705 11.9181C24.1592 12.3861 24.1539 12.7641 24.1543 13.0521C24.1548 13.3281 24.0772 13.5622 23.9215 13.7545C23.7658 13.9467 23.5259 14.0431 23.2019 14.0437ZM23.3464 3.3514C22.8544 3.35221 22.4462 3.21488 22.1217 2.93941C21.7973 2.65194 21.6347 2.31021 21.634 1.91421C21.6334 1.53021 21.7649 1.22399 22.0285 0.995558C22.2922 0.767125 22.628 0.652574 23.036 0.651905C23.372 0.651354 23.6601 0.728881 23.9004 0.884488C24.1406 1.04009 24.3209 1.2378 24.4413 1.4776C24.5737 1.71738 24.6401 1.95728 24.6405 2.19728C24.641 2.47328 24.5394 2.73744 24.3358 2.98978C24.1442 3.23009 23.8144 3.35063 23.3464 3.3514ZM30.6773 14.0134C30.4133 14.0138 30.1791 13.9362 29.9749 13.7805C29.7826 13.6249 29.5722 13.3852 29.3437 13.0616C29.1752 12.7859 28.9886 12.4142 28.7839 11.9465C28.5791 11.4788 28.3743 10.9812 28.1694 10.4535C27.9765 9.91381 27.7837 9.41013 27.5909 8.94245C27.3499 8.30684 27.1391 7.80319 26.9585 7.43148C26.7778 7.05978 26.6214 6.76603 26.489 6.55025C26.3686 6.32245 26.2783 6.13059 26.2181 5.97469C26.1578 5.80679 26.1275 5.62084 26.1271 5.41684C26.1268 5.22484 26.1866 5.06274 26.3063 4.93055C26.4381 4.78633 26.654 4.71398 26.954 4.71348C27.302 4.71291 27.5962 4.81443 27.8365 5.01804C28.0768 5.20964 28.2812 5.47331 28.4498 5.80903C28.6303 6.14474 28.799 6.52246 28.9557 6.9422C29.1605 7.44587 29.3594 7.98554 29.5523 8.56123C29.7573 9.13689 29.9682 9.70055 30.1851 10.2522C30.414 10.7918 30.6548 11.2894 30.9075 11.745L30.2595 11.7101C30.5704 11.0736 30.8454 10.4611 31.0845 9.87272C31.3235 9.28432 31.5626 8.71993 31.8017 8.17954C32.0408 7.63914 32.298 7.12272 32.5731 6.63027C32.8483 6.13782 33.1776 5.66328 33.5608 5.20665C33.7165 5.03839 33.8663 4.91214 34.0102 4.82791C34.1541 4.74367 34.328 4.70139 34.532 4.70105C34.7 4.70078 34.8501 4.74853 34.9822 4.84431C35.1144 4.9401 35.2166 5.05993 35.2888 5.20381C35.361 5.33569 35.3973 5.48563 35.3975 5.65363C35.3978 5.83363 35.3681 6.00168 35.3084 6.15778C35.2606 6.31386 35.1889 6.45798 35.0931 6.59013C34.674 7.13082 34.3148 7.65341 34.0157 8.1579C33.7285 8.66238 33.4653 9.17281 33.2262 9.6892C32.999 10.1936 32.7599 10.74 32.5089 11.3284C32.2578 11.9048 31.9709 12.5533 31.648 13.2738C31.5165 13.55 31.3788 13.7422 31.235 13.8505C31.1032 13.9587 30.9173 14.013 30.6773 14.0134ZM38.3191 14.0189C38.0551 14.0193 37.845 13.9596 37.6888 13.8399C37.5326 13.7201 37.4124 13.5523 37.328 13.3365C37.2556 13.1086 37.2192 12.8447 37.2187 12.5447C37.2172 11.6567 37.21 10.9067 37.197 10.2947C37.196 9.67069 37.1891 9.1307 37.1763 8.67472C37.1756 8.21872 37.1689 7.79273 37.1563 7.39675C37.1556 7.00075 37.1549 6.58075 37.1542 6.13675C37.1538 5.87275 37.1954 5.63868 37.279 5.43455C37.3627 5.21841 37.4884 5.0502 37.6562 4.92993C37.836 4.80963 38.0639 4.74926 38.3399 4.74881C38.6639 4.74827 38.9221 4.85585 39.1144 5.07153C39.3068 5.27522 39.4093 5.59305 39.422 6.02503C39.4224 6.27703 39.417 6.63704 39.4058 7.10506C39.4065 7.57306 39.3954 8.08908 39.3723 8.65312C39.3612 9.20514 39.3441 9.76917 39.3211 10.3452C39.31 10.9092 39.2989 11.4252 39.2876 11.8933C39.2764 12.3613 39.271 12.7393 39.2715 13.0273C39.2719 13.3033 39.1943 13.5374 39.0386 13.7297C38.883 13.9219 38.6431 14.0183 38.3191 14.0189ZM38.4636 3.3266C37.9716 3.32741 37.5634 3.19008 37.2389 2.91461C36.9144 2.62714 36.7519 2.28541 36.7512 1.88941C36.7506 1.50541 36.8821 1.19919 37.1457 0.970758C37.4093 0.742325 37.7451 0.627774 38.1531 0.627105C38.4891 0.626553 38.7773 0.704081 39.0175 0.859687C39.2578 1.01529 39.4381 1.213 39.5585 1.4528C39.6909 1.69258 39.7573 1.93248 39.7577 2.17248C39.7581 2.44847 39.6566 2.71264 39.453 2.96498C39.2614 3.20529 38.9316 3.32583 38.4636 3.3266ZM45.7747 13.9706C45.1747 13.9716 44.6225 13.8345 44.118 13.5593C43.6136 13.2842 43.181 12.9069 42.8202 12.4275C42.4594 11.9481 42.1765 11.3965 41.9715 10.7729C41.7784 10.1492 41.6813 9.48933 41.6802 8.79333C41.6788 7.96533 41.8457 7.24506 42.1807 6.63251C42.5276 6.00794 43.0069 5.52715 43.6183 5.19015C44.2417 4.84112 44.9614 4.66594 45.7774 4.6646C46.3894 4.6636 46.9176 4.75273 47.3619 4.932C47.8062 5.09928 48.1486 5.33871 48.3891 5.65032C48.6296 5.94993 48.7501 6.30973 48.7508 6.72973C48.7511 6.90973 48.7034 7.05981 48.6076 7.17996C48.5237 7.2881 48.4158 7.34228 48.2838 7.3425C48.1398 7.34273 48.0138 7.30694 47.9057 7.23512C47.7975 7.16329 47.6774 7.07949 47.5452 6.98371C47.4131 6.88792 47.233 6.80422 47.0048 6.73259C46.7887 6.66095 46.4887 6.62544 46.1047 6.62607C45.3487 6.62731 44.761 6.82027 44.3416 7.20496C43.9222 7.58965 43.7131 8.118 43.7142 8.78999C43.7152 9.36599 43.812 9.89984 44.0048 10.3915C44.1976 10.8712 44.4443 11.2608 44.7448 11.5603C45.0452 11.8598 45.3515 12.0093 45.6635 12.0088C46.2875 12.0078 46.8388 11.5929 47.3174 10.7641C47.7961 9.9233 48.1721 8.70468 48.4455 7.10823C48.7308 5.51176 48.8717 3.57353 48.8679 1.29353C48.8672 0.873528 48.9447 0.573401 49.1004 0.393144C49.2681 0.212869 49.484 0.122515 49.748 0.122082C50.12 0.121472 50.4083 0.294999 50.6129 0.642665C50.8294 0.97831 50.9262 1.47015 50.9033 2.11819C50.8807 2.97023 50.8339 3.72631 50.763 4.38642C50.7041 5.04652 50.6391 5.68863 50.5682 6.31275C50.5092 6.92484 50.4803 7.60889 50.4815 8.36489C50.4828 9.12089 50.5318 9.73881 50.6286 10.2187C50.7253 10.6985 50.846 11.0823 50.9905 11.3701C51.1349 11.6578 51.2733 11.8916 51.4056 12.0714C51.5499 12.2391 51.6701 12.3949 51.7664 12.5388C51.8746 12.6826 51.9289 12.8565 51.9292 13.0605C51.9297 13.3365 51.8401 13.5707 51.6604 13.763C51.4807 13.9433 51.2228 14.0337 50.8868 14.0342C50.5748 14.0347 50.2806 13.9032 50.0042 13.6397C49.7277 13.3761 49.4811 13.0165 49.2644 12.5609C49.0597 12.1052 48.9028 11.5895 48.7939 11.0137C48.6849 10.4258 48.6359 9.81392 48.6468 9.1779L49.7083 8.87016C49.4584 10.1066 49.118 11.1031 48.6872 11.8598C48.2685 12.6045 47.8014 13.1453 47.2859 13.4821C46.7824 13.807 46.2787 13.9698 45.7747 13.9706ZM56.2025 13.9715C55.6385 13.9724 55.1403 13.8533 54.7079 13.614C54.2875 13.3627 53.9629 13.0152 53.7342 12.5716C53.5055 12.1279 53.3906 11.6061 53.3896 11.0061C53.3887 10.4181 53.4777 9.82398 53.6567 9.22368C53.8477 8.61137 54.1107 8.03494 54.4459 7.49439C54.781 6.95384 55.1762 6.47319 55.6315 6.05244C56.0868 5.61969 56.5842 5.28288 57.1238 5.04199C57.6634 4.7891 58.2332 4.66217 58.8332 4.66118C59.1572 4.66065 59.4334 4.7562 59.6617 4.94783C59.89 5.13945 60.0045 5.42126 60.0051 5.79326C60.0053 5.94926 59.9576 6.08134 59.8617 6.1895C59.7659 6.29766 59.628 6.36388 59.4481 6.38818C58.6322 6.49752 57.9127 6.7927 57.2895 7.27372C56.6783 7.75472 56.1992 8.33151 55.8523 9.00408C55.5174 9.67663 55.3506 10.3789 55.3518 11.1109C55.3523 11.4109 55.3767 11.6869 55.4252 11.9388C55.4735 12.1787 55.5821 12.4905 55.7507 12.8743L54.7223 11.4359C54.9988 11.6995 55.233 11.8731 55.4252 11.9568C55.6293 12.0285 55.8934 12.064 56.2174 12.0635C56.9254 12.0623 57.5667 11.6353 58.1413 10.7823C58.7278 9.91737 59.1518 8.65667 59.4131 7.00024C59.4486 6.74818 59.5443 6.55602 59.7001 6.42377C59.8559 6.27951 60.0478 6.20719 60.2758 6.20682C60.6238 6.20625 60.918 6.32577 61.1583 6.56537C61.3987 6.79298 61.5612 7.08671 61.6458 7.44657C61.7789 8.09436 61.9178 8.68213 62.0627 9.20989C62.2075 9.72566 62.4004 10.2233 62.6411 10.7029C62.8819 11.1706 63.2127 11.662 63.6336 12.1773C63.7538 12.3091 63.8201 12.477 63.8324 12.681C63.8447 12.873 63.815 13.065 63.7433 13.2571C63.6716 13.4373 63.5579 13.5934 63.4021 13.7257C63.2583 13.8459 63.0844 13.9062 62.8804 13.9066C62.7004 13.9069 62.5503 13.8711 62.4302 13.7993C62.3221 13.7275 62.2199 13.6316 62.1237 13.5118C61.8832 13.2002 61.6607 12.8886 61.4562 12.5769C61.2517 12.2532 61.0591 11.8995 60.8785 11.5158C60.7098 11.1201 60.5591 10.6644 60.4262 10.1486C60.3054 9.62078 60.2023 9.00295 60.1172 8.29508L60.8191 8.25793C60.6409 9.31423 60.3843 10.2086 60.0495 10.9412C59.7267 11.6737 59.3557 12.2623 58.9364 12.707C58.5172 13.1517 58.0737 13.4764 57.606 13.6812C57.1383 13.874 56.6705 13.9707 56.2025 13.9715ZM68.9778 13.9326C68.3778 13.9335 67.8256 13.7964 67.3211 13.5213C66.8167 13.2461 66.3841 12.8688 66.0233 12.3894C65.6625 11.91 65.3796 11.3585 65.1746 10.7348C64.9815 10.1111 64.8844 9.45127 64.8833 8.75527C64.8819 7.92727 65.0488 7.20699 65.3838 6.59444C65.7307 5.96987 66.21 5.48908 66.8214 5.15208C67.4448 4.80306 68.1645 4.62788 68.9805 4.62654C69.5925 4.62553 70.1207 4.71467 70.565 4.89394C71.0093 5.06121 71.3516 5.30065 71.5922 5.61226C71.8327 5.91186 71.9532 6.27166 71.9539 6.69166C71.9542 6.87166 71.9065 7.02174 71.8107 7.1419C71.7268 7.25004 71.6189 7.30421 71.4869 7.30443C71.3429 7.30467 71.2169 7.26887 71.1088 7.19705C71.0006 7.12523 70.8805 7.04142 70.7483 6.94564C70.6162 6.84986 70.4361 6.76615 70.2079 6.69453C69.9918 6.62288 69.6918 6.58737 69.3078 6.588C68.5518 6.58924 67.9641 6.78221 67.5447 7.1669C67.1253 7.55159 66.9162 8.07993 66.9173 8.75193C66.9182 9.32793 67.0151 9.86177 67.2079 10.3535C67.4007 10.8331 67.6474 11.2227 67.9479 11.5222C68.2483 11.8218 68.5546 11.9712 68.8666 11.9707C69.4906 11.9697 70.0419 11.5548 70.5205 10.726C70.9992 9.88523 71.3752 8.66662 71.6486 7.07016C71.9339 5.47369 72.0748 3.53546 72.071 1.25546C72.0703 0.835463 72.1478 0.535335 72.3035 0.355079C72.4712 0.174804 72.6871 0.0844494 72.9511 0.0840163C73.3231 0.083406 73.6114 0.256934 73.8159 0.604599C74.0325 0.940244 74.1293 1.43209 74.1064 2.08012C74.0838 2.93216 74.037 3.68824 73.9661 4.34836C73.9072 5.00846 73.8422 5.65056 73.7713 6.27468C73.7123 6.88678 73.6834 7.57083 73.6846 8.32683C73.6859 9.08283 73.7349 9.70075 73.8317 10.1806C73.9284 10.6604 74.0491 11.0442 74.1935 11.332C74.338 11.6198 74.4764 11.8535 74.6087 12.0333C74.753 12.2011 74.8732 12.3569 74.9695 12.5007C75.0777 12.6445 75.132 12.8185 75.1323 13.0225C75.1326 13.2025 75.0909 13.3705 75.0072 13.5267C74.9234 13.6708 74.8036 13.785 74.6477 13.8693C74.5038 13.9535 74.3179 13.9958 74.0899 13.9962C73.7779 13.9967 73.4837 13.8652 73.2073 13.6016C72.9308 13.3381 72.6842 12.9785 72.4675 12.5228C72.2628 12.0672 72.1059 11.5514 71.997 10.9756C71.888 10.3878 71.839 9.77586 71.8499 9.13984L72.9114 8.8321C72.6615 10.0685 72.3211 11.0651 71.8903 11.8218C71.4716 12.5665 71.0045 13.1072 70.489 13.4441C69.9855 13.7689 69.4818 13.9317 68.9778 13.9326ZM80.5798 13.9315C79.6318 13.9331 78.8515 13.7664 78.239 13.4314C77.6384 13.0843 77.1936 12.6171 76.9047 12.0295C76.6157 11.43 76.4706 10.7463 76.4693 9.97826C76.4683 9.35426 76.5813 8.73007 76.8082 8.1057C77.0472 7.46931 77.3823 6.89276 77.8134 6.37605C78.2445 5.84734 78.7599 5.4265 79.3593 5.11351C79.9708 4.78851 80.6485 4.6254 81.3925 4.62418C82.3045 4.62268 83.0369 4.86148 83.5897 5.34057C84.1425 5.80767 84.4196 6.51521 84.4212 7.46321C84.4223 8.12321 84.2252 8.67553 83.8299 9.12018C83.4346 9.56483 82.8952 9.90172 82.2116 10.1308C81.5279 10.36 80.7661 10.4752 79.9261 10.4766C79.2301 10.4777 78.726 10.3766 78.4136 10.1731C78.1133 9.95756 77.9629 9.71781 77.9625 9.45381C77.9622 9.30981 77.998 9.20175 78.0699 9.12963C78.1418 9.04552 78.2677 9.00331 78.4477 9.00301C78.5797 9.0028 78.7418 9.02653 78.9338 9.07422C79.1259 9.1099 79.3959 9.12746 79.7439 9.12689C80.2839 9.126 80.7638 9.05921 81.1836 8.92653C81.6034 8.78184 81.939 8.58929 82.1907 8.34887C82.4422 8.09646 82.5678 7.81425 82.5673 7.50225C82.5667 7.14225 82.4762 6.8724 82.2959 6.6927C82.1156 6.51299 81.8155 6.42348 81.3955 6.42417C80.8195 6.42512 80.3038 6.60596 79.8484 6.96671C79.405 7.32744 79.0517 7.80202 78.7887 8.39045C78.5377 8.96687 78.4127 9.58507 78.4138 10.2451C78.4144 10.6171 78.4809 10.953 78.6134 11.2527C78.7459 11.5525 78.9563 11.7862 79.2446 11.9537C79.5448 12.1212 79.947 12.2046 80.451 12.2037C81.123 12.2026 81.6809 12.1297 82.1246 11.985C82.5684 11.8403 82.9401 11.6776 83.2398 11.4972C83.5395 11.3047 83.7912 11.1363 83.995 10.9919C84.2108 10.8476 84.4146 10.7752 84.6066 10.7749C84.7866 10.7746 84.9127 10.8344 84.9849 10.9543C85.0691 11.0622 85.1114 11.2361 85.1118 11.4761C85.1122 11.7401 84.9927 12.0163 84.7531 12.3047C84.5256 12.593 84.2021 12.8576 83.7824 13.0983C83.3748 13.3389 82.8952 13.5377 82.3434 13.6946C81.8037 13.8515 81.2158 13.9305 80.5798 13.9315ZM89.1903 13.9174C88.5783 13.9184 88.0741 13.8412 87.6779 13.6859C87.2816 13.5305 86.9873 13.333 86.7949 13.0933C86.6145 12.8536 86.5241 12.5958 86.5236 12.3198C86.5233 12.1158 86.583 11.9477 86.7028 11.8155C86.8346 11.6833 87.0205 11.617 87.2605 11.6166C87.3925 11.6163 87.5065 11.6402 87.6026 11.688C87.7107 11.7358 87.8248 11.7896 87.9449 11.8494C88.077 11.9092 88.2331 11.963 88.4131 12.0107C88.6052 12.0584 88.8513 12.082 89.1513 12.0815C89.8953 12.0802 90.5251 11.9952 91.0408 11.8264C91.5685 11.6455 91.9341 11.3689 92.1375 10.9966C92.0411 10.7567 91.8488 10.571 91.5606 10.4395C91.2723 10.308 90.9302 10.1945 90.534 10.0992C90.1378 10.0038 89.7237 9.90252 89.2915 9.79523C88.8713 9.67591 88.4751 9.53256 88.1028 9.36517C87.7425 9.18577 87.4481 8.95225 87.2196 8.66462C86.9912 8.377 86.8766 8.00518 86.8758 7.54918C86.875 7.08119 87.0124 6.66096 87.2877 6.28851C87.5631 5.91605 87.9286 5.60345 88.3842 5.35071C88.8398 5.09796 89.3435 4.90513 89.8953 4.77223C90.447 4.63932 90.9989 4.57842 91.551 4.58951C91.923 4.5889 92.2351 4.64839 92.4873 4.76797C92.7395 4.88756 92.9257 5.04326 93.046 5.23506C93.1783 5.42684 93.2447 5.62473 93.245 5.82873C93.2454 6.04473 93.1856 6.21883 93.0659 6.35103C92.9581 6.4832 92.7902 6.54948 92.5622 6.54985C92.4542 6.55003 92.3522 6.5442 92.2562 6.53236C92.1721 6.52049 92.0761 6.51465 91.9681 6.51483C91.8601 6.50301 91.7161 6.49724 91.5361 6.49754C90.8641 6.49864 90.2823 6.59559 89.7906 6.7884C89.2989 6.96921 88.9333 7.24581 88.6939 7.6182C88.7663 7.83408 88.9466 8.00779 89.2348 8.13932C89.523 8.27084 89.8652 8.38428 90.2613 8.47963C90.6695 8.57496 91.0897 8.67627 91.5218 8.78356C91.966 8.89084 92.3743 9.03417 92.7466 9.21356C93.1308 9.38093 93.4432 9.60841 93.6837 9.89602C93.9241 10.1836 94.0447 10.5494 94.0455 10.9934C94.0466 11.6654 93.8255 12.2178 93.3822 12.6505C92.9389 13.0832 92.3514 13.4022 91.6198 13.6074C90.8881 13.8126 90.0783 13.9159 89.1903 13.9174Z" fill="#6F7481" fill-opacity="0.5"/>
<path d="M14.5615 40.0999C14.1615 40.1005 13.8172 39.9571 13.5288 39.6696C13.2563 39.382 12.9675 38.9025 12.6624 38.231C12.3735 37.6555 12.1083 36.9519 11.8669 36.1203C11.6255 35.2727 11.4161 34.377 11.2385 33.4333C11.077 32.4896 10.9475 31.5938 10.8501 30.7459C10.7364 29.7061 10.631 28.8423 10.5339 28.1545C10.4367 27.4666 10.3318 26.9228 10.2192 26.523C10.1225 26.1231 10.0021 25.8433 9.85781 25.6836C9.71352 25.5078 9.52137 25.4201 9.28137 25.4205C8.86537 25.4212 8.4019 25.742 7.89095 26.3828C7.396 27.0236 6.9015 27.9364 6.40744 29.1212C5.91338 30.306 5.45172 31.7308 5.02245 33.3955C4.60918 35.0602 4.26022 36.9168 3.97558 38.9652C3.92819 39.3333 3.82465 39.6135 3.66496 39.8057C3.52125 39.982 3.2974 40.0703 2.9934 40.0708C2.5134 40.0716 2.14512 39.9042 1.88857 39.5687C1.63199 39.2171 1.50302 38.6253 1.50166 37.7933C1.50008 36.8333 1.57855 35.8972 1.73705 34.9849C1.91155 34.0726 2.11008 33.1763 2.33264 32.2959C2.57117 31.3995 2.7777 30.5032 2.95223 29.6069C3.14273 28.6946 3.25324 27.7824 3.28374 26.8703C3.2993 26.5983 3.37094 26.3822 3.49868 26.222C3.64242 26.0618 3.85028 25.9814 4.12228 25.981C4.37828 25.9806 4.6344 26.0521 4.89064 26.1957C5.14685 26.3233 5.37921 26.5469 5.58774 26.8666L4.50825 27.1803C5.20994 25.7712 5.96018 24.698 6.75897 23.9606C7.55774 23.2073 8.42112 22.8299 9.34912 22.8284C10.3411 22.8268 11.0936 23.1055 11.6065 23.6647C12.1354 24.2078 12.5288 25.0552 12.7867 26.2068C13.0606 27.3583 13.295 28.8619 13.4901 30.7176C13.6361 31.9814 13.8219 33.0771 14.0475 34.0047C14.289 34.9163 14.5222 35.6919 14.7473 36.3316C14.9883 36.9552 15.1892 37.4908 15.3499 37.9386C15.5106 38.3703 15.5913 38.7542 15.5918 39.0902C15.5923 39.4102 15.5047 39.6583 15.329 39.8346C15.1533 40.0109 14.8975 40.0993 14.5615 40.0999ZM1.714 35.5609C1.218 35.5618 0.849827 35.4584 0.609486 35.2508C0.385145 35.0431 0.272699 34.7713 0.272147 34.4353C0.271754 34.1953 0.343426 33.9952 0.487163 33.8349C0.646874 33.6587 0.902624 33.5063 1.25441 33.3777C2.98144 32.7829 4.9567 32.3316 7.1802 32.024C9.40368 31.7003 11.8274 31.5363 14.4514 31.532C15.1394 31.5309 15.6036 31.6341 15.8439 31.8418C16.1003 32.0493 16.2287 32.3371 16.2293 32.7051C16.23 33.1211 16.0466 33.4654 15.679 33.738C15.3115 34.0106 14.7917 34.1475 14.1197 34.1486C12.5037 34.1512 11.1038 34.2015 9.91994 34.2995C8.75207 34.3814 7.74426 34.495 6.89649 34.6404C6.06471 34.7698 5.34493 34.907 4.73717 35.052C4.1294 35.197 3.5856 35.3179 3.10576 35.4147C2.64192 35.5114 2.178 35.5602 1.714 35.5609ZM24.1391 40.0602C22.9551 40.0621 21.9387 39.8318 21.09 39.3692C20.2412 38.9066 19.5922 38.2676 19.1428 37.4524C18.6934 36.6211 18.4679 35.6615 18.4661 34.5735C18.4645 33.6135 18.655 32.7171 19.0377 31.8845C19.4363 31.0519 19.9791 30.323 20.6661 29.6978C21.353 29.0567 22.1362 28.5594 23.0157 28.206C23.9111 27.8525 24.8628 27.675 25.8708 27.6733C26.2548 27.6727 26.5989 27.7281 26.9031 27.8396C27.2072 27.9511 27.4475 28.1347 27.624 28.3904C27.8164 28.6301 27.9129 28.9579 27.9136 29.3739C27.9142 29.7579 27.8267 30.0861 27.6512 30.3584C27.4916 30.6146 27.2438 30.743 26.9078 30.7436C26.7158 30.7439 26.5718 30.7042 26.4756 30.6243C26.3795 30.5445 26.2674 30.4727 26.1393 30.4089C26.0272 30.345 25.8351 30.3134 25.5631 30.3138C24.7151 30.3152 23.9554 30.5164 23.2841 30.9175C22.6287 31.3026 22.1016 31.8315 21.7027 32.5041C21.3198 33.1608 21.129 33.9051 21.1304 34.7371C21.1313 35.2811 21.244 35.7609 21.4687 36.1765C21.6934 36.5922 22.0299 36.9196 22.4783 37.1589C22.9267 37.3821 23.4789 37.4932 24.1349 37.4922C24.8229 37.491 25.3508 37.4102 25.7185 37.2496C26.0862 37.089 26.3659 36.9125 26.5576 36.7202C26.7493 36.5119 26.925 36.3356 27.0848 36.1913C27.2445 36.0311 27.4524 35.9507 27.7084 35.9503C27.9804 35.9498 28.1885 36.0375 28.3328 36.2133C28.4931 36.389 28.5735 36.6449 28.5741 36.9809C28.575 37.5729 28.3759 38.1012 27.9767 38.5659C27.5934 39.0305 27.066 39.3994 26.3945 39.6725C25.7389 39.9295 24.9871 40.0588 24.1391 40.0602ZM32.6168 40.0942C32.2648 40.0948 31.9847 40.0153 31.7764 39.8556C31.5681 39.696 31.4078 39.4722 31.2953 39.1844C31.1988 38.8806 31.1502 38.5287 31.1496 38.1287C31.1476 36.9447 31.138 35.9447 31.1206 35.1287C31.1193 34.2967 31.1101 33.5767 31.0931 32.9687C31.0921 32.3607 31.0832 31.7928 31.0663 31.2648C31.0654 30.7368 31.0645 30.1768 31.0636 29.5848C31.063 29.2328 31.1185 28.9207 31.23 28.6485C31.3415 28.3603 31.5092 28.136 31.7329 27.9757C31.9726 27.8153 32.2765 27.7348 32.6445 27.7342C33.0765 27.7335 33.4208 27.8769 33.6772 28.1645C33.9337 28.4361 34.0704 28.8598 34.0873 29.4358C34.0879 29.7718 34.0806 30.2518 34.0657 30.8759C34.0667 31.4999 34.0518 32.1879 34.0211 32.9399C34.0063 33.676 33.9835 34.428 33.9528 35.1961C33.938 35.9481 33.9231 36.6361 33.9081 37.2601C33.8932 37.8842 33.886 38.3882 33.8866 38.7722C33.8872 39.1402 33.7837 39.4523 33.5762 39.7087C33.3686 39.965 33.0488 40.0935 32.6168 40.0942ZM32.8094 25.8379C32.1534 25.839 31.6091 25.6559 31.1765 25.2886C30.7439 24.9053 30.5271 24.4497 30.5263 23.9217C30.5254 23.4097 30.7007 23.0014 31.0523 22.6968C31.4038 22.3922 31.8515 22.2395 32.3955 22.2386C32.8435 22.2378 33.2277 22.3412 33.548 22.5487C33.8684 22.7562 34.1088 23.0198 34.2693 23.3395C34.4458 23.6592 34.5344 23.9791 34.5349 24.2991C34.5355 24.6671 34.4001 25.0193 34.1286 25.3557C33.8731 25.6762 33.4334 25.8369 32.8094 25.8379ZM43.5691 40.1003C42.3051 40.1024 41.1766 39.8402 40.1838 39.3138C39.1909 38.7715 38.4057 38.0367 37.8282 37.1097C37.2666 36.1666 36.9848 35.0871 36.9828 33.8711C36.9814 33.0071 37.1481 32.2068 37.4829 31.4703C37.8177 30.7337 38.2406 30.093 38.7518 29.5482C39.2788 28.9873 39.8221 28.5544 40.3816 28.2495C40.9571 27.9445 41.4689 27.7917 41.9169 27.791C42.1249 27.7906 42.3089 27.8223 42.469 27.8861C42.6451 27.9498 42.7813 28.0456 42.8775 28.1734C42.9737 28.3012 43.022 28.4772 43.0224 28.7012C43.0231 29.1172 42.9357 29.4853 42.7602 29.8056C42.6007 30.1099 42.2651 30.3744 41.7535 30.5992C41.2899 30.856 40.8984 31.1526 40.5789 31.4892C40.2755 31.8097 40.0441 32.1701 39.8847 32.5703C39.7253 32.9546 39.646 33.3787 39.6468 33.8427C39.6487 35.0107 39.9943 35.9461 40.6834 36.649C41.3726 37.3519 42.3091 37.7023 43.4931 37.7004C44.4851 37.6988 45.2845 37.3375 45.8914 36.6165C46.4982 35.8795 46.8006 34.911 46.7986 33.711C46.7968 32.623 46.5314 31.7674 46.0024 31.1443C45.4733 30.5051 44.7688 30.1863 43.8888 30.1877C43.4248 30.1885 43.049 30.2851 42.7613 30.4776C42.4736 30.6701 42.17 30.9266 41.8505 31.2471C41.6109 31.4875 41.4193 31.6958 41.2756 31.872C41.1319 32.0483 40.9881 32.1845 40.8442 32.2807C40.7164 32.3769 40.5405 32.4252 40.3165 32.4256C40.0605 32.426 39.8523 32.3464 39.6921 32.1866C39.5318 32.0109 39.4513 31.707 39.4506 31.275C39.45 30.891 39.5693 30.4908 39.8086 30.0744C40.0479 29.658 40.3593 29.2735 40.7427 28.9209C41.1421 28.5682 41.5897 28.2875 42.0853 28.0787C42.581 27.8539 43.0848 27.7411 43.5968 27.7402C44.8128 27.7382 45.8532 27.9845 46.718 28.4791C47.5828 28.9577 48.2479 29.6446 48.7134 30.5398C49.1789 31.4351 49.4126 32.4907 49.4146 33.7067C49.4166 34.9067 49.1623 35.9951 48.6519 36.9719C48.1415 37.9328 47.4468 38.6939 46.5677 39.2554C45.6886 39.8168 44.6891 40.0984 43.5691 40.1003ZM63.7072 39.9952C63.1632 39.9961 62.6828 39.7649 62.266 39.3016C61.8653 38.8223 61.552 38.0788 61.3264 37.0711C61.1007 36.0475 60.9865 34.7197 60.9838 33.0877C60.9828 32.4477 60.966 31.9357 60.9333 31.5518C60.9167 31.1518 60.8681 30.8319 60.7877 30.592C60.7234 30.3521 60.627 30.1603 60.4988 30.0165C60.3865 29.8567 60.2343 29.6969 60.042 29.5372C60.394 29.5207 60.6901 29.5602 60.9302 29.6558C61.1703 29.7354 61.3546 29.8871 61.483 30.1109C61.6113 30.3187 61.6678 30.6306 61.6525 31.0466C61.4119 30.695 61.2115 30.4633 61.0514 30.3516C60.8912 30.2398 60.6991 30.1842 60.4751 30.1845C60.1551 30.1851 59.7874 30.3777 59.372 30.7623C58.9727 31.147 58.5496 31.6997 58.1027 32.4204C57.6719 33.1251 57.2493 33.9738 56.8349 34.9665C56.4205 35.9432 56.0463 37.0158 55.7122 38.1844C55.5373 38.8726 55.3381 39.353 55.1146 39.6253C54.891 39.8817 54.5872 40.0102 54.2032 40.0108C53.5472 40.0119 53.0586 39.6527 52.7374 38.9332C52.4162 38.2138 52.2547 37.294 52.2529 36.174C52.2516 35.374 52.2824 34.678 52.3455 34.0859C52.4245 33.4777 52.5036 32.9176 52.5827 32.4055C52.6778 31.8773 52.757 31.3412 52.8201 30.7971C52.8992 30.237 52.9381 29.6049 52.937 28.9009C52.9363 28.5169 53.0239 28.2288 53.1995 28.0365C53.3912 27.8281 53.671 27.7237 54.039 27.7231C54.455 27.7224 54.7753 27.8659 54.9997 28.1535C55.2402 28.4411 55.361 28.9129 55.3621 29.5689C55.3629 30.0649 55.3237 30.545 55.2444 31.0091C55.1652 31.4572 55.078 31.9454 54.9828 32.4735C54.9037 32.9857 54.8327 33.5938 54.7698 34.2979C54.707 35.002 54.6924 35.85 54.726 36.842L54.1493 36.4109C54.6901 34.49 55.3195 32.881 56.0374 31.5838C56.7552 30.2706 57.5136 29.2854 58.3125 28.6281C59.1114 27.9548 59.8949 27.6175 60.6629 27.6162C61.2869 27.6152 61.7991 27.7664 62.1996 28.0697C62.6161 28.357 62.9288 28.7805 63.1377 29.3402C63.3466 29.8838 63.4517 30.5396 63.4529 31.3076C63.4549 32.5076 63.4726 33.5396 63.506 34.4036C63.5394 35.2515 63.6285 35.9474 63.7734 36.4911C63.9343 37.0349 64.175 37.4505 64.4955 37.7379C64.6877 37.8976 64.824 38.0654 64.9043 38.2413C64.9846 38.4171 65.0249 38.6331 65.0254 38.8891C65.0258 39.1771 64.9143 39.4333 64.6906 39.6576C64.483 39.882 64.1552 39.9945 63.7072 39.9952ZM70.6175 40.0079C69.8655 40.0091 69.2013 39.8502 68.6247 39.5312C68.0642 39.1961 67.6314 38.7328 67.3265 38.1413C67.0215 37.5498 66.8683 36.8541 66.867 36.0541C66.8657 35.2701 66.9844 34.4779 67.2231 33.6775C67.4778 32.861 67.8285 32.0925 68.2754 31.3717C68.7222 30.651 69.2491 30.0101 69.8562 29.4491C70.4633 28.8721 71.1265 28.4231 71.846 28.1019C72.5654 27.7647 73.3252 27.5954 74.1252 27.5941C74.5572 27.5934 74.9254 27.7208 75.2298 27.9763C75.5342 28.2318 75.6868 28.6076 75.6876 29.1036C75.688 29.3116 75.6243 29.4877 75.4965 29.6319C75.3687 29.7761 75.1849 29.8644 74.9449 29.8968C73.8572 30.0426 72.8978 30.4362 72.0669 31.0775C71.2519 31.7189 70.6132 32.4879 70.1507 33.3847C69.7041 34.2814 69.4817 35.2178 69.4833 36.1938C69.4839 36.5938 69.5165 36.9617 69.5811 37.2976C69.6456 37.6175 69.7903 38.0333 70.0151 38.5449L68.644 36.6271C69.0126 36.9785 69.3249 37.21 69.5811 37.3216C69.8533 37.4172 70.2054 37.4646 70.6374 37.4639C71.5813 37.4623 72.4364 36.8929 73.2026 35.7557C73.9847 34.6024 74.5499 32.9214 74.8983 30.7129C74.9457 30.3768 75.0733 30.1206 75.281 29.9442C75.4887 29.7519 75.7445 29.6555 76.0485 29.655C76.5125 29.6542 76.9048 29.8136 77.2253 30.1331C77.5458 30.4365 77.7625 30.8282 77.8753 31.308C78.0527 32.1717 78.238 32.9554 78.4311 33.6591C78.6242 34.3468 78.8813 35.0103 79.2024 35.6498C79.5234 36.2733 79.9645 36.9286 80.5256 37.6156C80.6859 37.7914 80.7743 38.0152 80.7907 38.2872C80.8071 38.5432 80.7676 38.7993 80.672 39.0554C80.5764 39.2956 80.4247 39.5038 80.217 39.6802C80.0253 39.8405 79.7934 39.9209 79.5214 39.9213C79.2814 39.9217 79.0813 39.874 78.9212 39.7783C78.777 39.6825 78.6408 39.5547 78.5125 39.395C78.1918 38.9795 77.8952 38.564 77.6225 38.1484C77.3498 37.7169 77.093 37.2453 76.8522 36.7337C76.6273 36.206 76.4263 35.5984 76.2492 34.9107C76.088 34.2069 75.9507 33.3831 75.8371 32.4393L76.773 32.3898C76.4561 34.2783 75.9626 35.7831 75.2924 36.9042C74.6383 38.0093 73.9036 38.8025 73.0883 39.2839C72.2731 39.7652 71.4495 40.0065 70.6175 40.0079ZM73.0907 26.0838C72.7227 26.0844 72.4346 26.0049 72.2263 25.8452C72.034 25.6856 71.9377 25.4777 71.9373 25.2217C71.9369 24.9817 72.0165 24.7736 72.1762 24.5973C72.3359 24.4051 72.5676 24.1887 72.8712 23.9482C73.2547 23.6276 73.5342 23.3231 73.7097 23.0348C73.8852 22.7465 74.0366 22.3703 74.1638 21.9061C74.323 21.4258 74.5065 21.0975 74.7142 20.9212C74.9379 20.7448 75.2098 20.6563 75.5298 20.6558C75.9938 20.6551 76.338 20.7745 76.5624 21.0141C76.8028 21.2537 76.9234 21.6135 76.9241 22.0935C76.9252 22.7655 76.7343 23.4138 76.3513 24.0385C75.9683 24.6471 75.4811 25.1439 74.8898 25.5289C74.3144 25.8978 73.7147 26.0828 73.0907 26.0838ZM86.8104 39.9813C86.4584 39.9819 86.1462 39.8784 85.8739 39.6709C85.6175 39.4633 85.337 39.1438 85.0323 38.7123C84.8077 38.3446 84.5589 37.849 84.2859 37.2255C84.0128 36.6019 83.7397 35.9384 83.4666 35.2348C83.2094 34.5152 82.9523 33.8437 82.6953 33.2201C82.3739 32.3726 82.0928 31.7011 81.852 31.2055C81.6112 30.7099 81.4025 30.3182 81.226 30.0305C81.0655 29.7268 80.9451 29.4709 80.8648 29.2631C80.7844 29.0392 80.744 28.7913 80.7436 28.5193C80.7431 28.2633 80.8228 28.0471 80.9825 27.8709C81.1582 27.6786 81.446 27.5821 81.846 27.5815C82.31 27.5807 82.7023 27.7161 83.0227 27.9875C83.3431 28.243 83.6157 28.5946 83.8404 29.0422C84.0812 29.4898 84.306 29.9934 84.5149 30.5531C84.788 31.2246 85.0532 31.9442 85.3105 32.7118C85.5837 33.4793 85.8649 34.2309 86.1542 34.9664C86.4593 35.6859 86.7804 36.3494 87.1174 36.9568L86.2533 36.9103C86.668 36.0616 87.0346 35.245 87.3533 34.4604C87.672 33.6759 87.9908 32.9234 88.3096 32.2029C88.6284 31.4823 88.9713 30.7938 89.3382 30.1372C89.7052 29.4806 90.1441 28.8479 90.6551 28.239C90.8628 28.0147 91.0625 27.8463 91.2543 27.734C91.4461 27.6217 91.678 27.5653 91.95 27.5649C92.174 27.5645 92.3741 27.6282 92.5503 27.7559C92.7265 27.8836 92.8628 28.0434 92.9591 28.2352C93.0554 28.4111 93.1037 28.611 93.1041 28.835C93.1045 29.075 93.0649 29.2991 92.9852 29.5072C92.9215 29.7153 92.8259 29.9075 92.6982 30.0837C92.1393 30.8046 91.6605 31.5014 91.2616 32.174C90.8787 32.8467 90.5278 33.5272 90.2089 34.2158C89.906 34.8883 89.5872 35.6168 89.2525 36.4013C88.9178 37.1699 88.5352 38.0345 88.1048 38.9952C87.9294 39.3635 87.7458 39.6198 87.554 39.7641C87.3783 39.9084 87.1304 39.9808 86.8104 39.9813ZM99.8628 39.9599C98.9188 39.9615 98.1026 39.8348 97.4142 39.5799C96.7258 39.3251 96.1572 38.958 95.7084 38.4787C95.2596 37.9995 94.9227 37.44 94.6976 36.8004C94.4886 36.1607 94.3834 35.4569 94.3821 34.6889C94.3808 33.8569 94.5314 33.0247 94.8341 32.1922C95.1527 31.3436 95.5994 30.5749 96.1743 29.886C96.7491 29.181 97.4362 28.6199 98.2355 28.2026C99.0508 27.7692 99.9544 27.5518 100.946 27.5501C101.762 27.5488 102.467 27.6916 103.059 27.9787C103.668 28.2497 104.14 28.6649 104.477 29.2243C104.814 29.7838 104.983 30.4875 104.985 31.3355C104.986 31.9915 104.835 32.5758 104.532 33.0883C104.228 33.5848 103.797 34.0015 103.238 34.3384C102.694 34.6753 102.063 34.9323 101.343 35.1095C100.623 35.2707 99.8392 35.352 98.9912 35.3534C98.0632 35.3549 97.391 35.22 96.9746 34.9487C96.5741 34.6613 96.3736 34.3416 96.373 33.9896C96.3727 33.7976 96.4205 33.6536 96.5163 33.5574C96.6121 33.4453 96.78 33.389 97.02 33.3886C97.196 33.3883 97.4121 33.4199 97.6682 33.4835C97.9243 33.5311 98.2843 33.5545 98.7483 33.5537C99.4683 33.5526 100.108 33.4635 100.668 33.2866C101.228 33.0937 101.675 32.8369 102.011 32.5164C102.346 32.1798 102.513 31.8036 102.513 31.3876C102.512 30.9076 102.391 30.5478 102.151 30.3082C101.911 30.0686 101.51 29.9492 100.95 29.9501C100.358 29.9511 99.8226 30.096 99.3431 30.3848C98.8635 30.6576 98.4402 31.0342 98.0729 31.5149C97.7217 31.9954 97.4506 32.5399 97.2596 33.1482C97.0686 33.7565 96.9737 34.3887 96.9747 35.0447C96.9755 35.5407 97.0643 35.9885 97.2409 36.3882C97.4176 36.7879 97.6981 37.0995 98.0825 37.3228C98.4828 37.5462 99.019 37.6573 99.691 37.6562C100.587 37.6547 101.331 37.5575 101.923 37.3645C102.514 37.1716 103.01 36.9548 103.409 36.7141C103.809 36.4575 104.145 36.2329 104.416 36.0405C104.704 35.848 104.976 35.7515 105.232 35.7511C105.472 35.7507 105.64 35.8304 105.736 35.9903C105.849 36.1341 105.905 36.366 105.905 36.686C105.906 37.038 105.747 37.4063 105.427 37.7908C105.124 38.1753 104.692 38.528 104.133 38.8489C103.59 39.1698 102.95 39.4349 102.214 39.6441C101.495 39.8533 100.711 39.9585 99.8628 39.9599ZM110.265 39.9669C109.913 39.9674 109.633 39.8879 109.425 39.7282C109.216 39.5686 109.056 39.3448 108.944 39.057C108.847 38.7532 108.799 38.4013 108.798 38.0013C108.796 36.8173 108.786 35.8173 108.769 35.0013C108.768 34.1693 108.758 33.4493 108.741 32.8414C108.74 32.2334 108.732 31.6654 108.715 31.1374C108.714 30.6094 108.713 30.0494 108.712 29.4574C108.711 29.1054 108.767 28.7933 108.878 28.5211C108.99 28.2329 109.158 28.0087 109.381 27.8483C109.621 27.6879 109.925 27.6074 110.293 27.6068C110.725 27.6061 111.069 27.7495 111.326 28.0371C111.582 28.3087 111.719 28.7325 111.736 29.3084C111.736 29.6444 111.729 30.1244 111.714 30.7485C111.715 31.3725 111.7 32.0605 111.669 32.8125C111.655 33.5486 111.632 34.3006 111.601 35.0687C111.586 35.8207 111.571 36.5087 111.556 37.1327C111.542 37.7568 111.534 38.2608 111.535 38.6448C111.536 39.0128 111.432 39.3249 111.225 39.5813C111.017 39.8376 110.697 39.9662 110.265 39.9669ZM110.458 25.7105C109.802 25.7116 109.257 25.5285 108.825 25.1612C108.392 24.7779 108.175 24.3223 108.175 23.7943C108.174 23.2823 108.349 22.874 108.701 22.5694C109.052 22.2648 109.5 22.1121 110.044 22.1112C110.492 22.1105 110.876 22.2138 111.196 22.4213C111.517 22.6288 111.757 22.8924 111.918 23.2121C112.094 23.5318 112.183 23.8517 112.183 24.1717C112.184 24.5397 112.048 24.8919 111.777 25.2284C111.521 25.5488 111.082 25.7095 110.458 25.7105ZM117.882 39.9304C117.066 39.9317 116.394 39.8288 115.866 39.6217C115.338 39.4145 114.945 39.1512 114.689 38.8316C114.448 38.512 114.328 38.1682 114.327 37.8002C114.327 37.5282 114.406 37.3041 114.566 37.1278C114.742 36.9515 114.989 36.8631 115.309 36.8626C115.485 36.8623 115.637 36.894 115.766 36.9578C115.91 37.0216 116.062 37.0933 116.222 37.1731C116.398 37.2528 116.606 37.3245 116.846 37.3881C117.102 37.4516 117.43 37.4831 117.83 37.4824C118.822 37.4808 119.662 37.3674 120.35 37.1423C121.054 36.9012 121.541 36.5324 121.812 36.0359C121.684 35.7161 121.427 35.4685 121.043 35.2932C120.659 35.1178 120.202 34.9666 119.674 34.8394C119.146 34.7123 118.594 34.5772 118.017 34.4341C117.457 34.2751 116.929 34.0839 116.433 33.8607C115.952 33.6215 115.56 33.3102 115.255 32.9267C114.95 32.5432 114.798 32.0474 114.797 31.4394C114.796 30.8154 114.979 30.2551 115.346 29.7585C115.713 29.2619 116.2 28.8451 116.808 28.5081C117.415 28.1711 118.087 27.914 118.822 27.7368C119.558 27.5596 120.294 27.4784 121.03 27.4932C121.526 27.4924 121.942 27.5717 122.278 27.7311C122.615 27.8906 122.863 28.0982 123.023 28.3539C123.2 28.6096 123.288 28.8735 123.289 29.1455C123.289 29.4335 123.21 29.6656 123.05 29.8419C122.906 30.0181 122.682 30.1065 122.378 30.107C122.234 30.1072 122.098 30.0994 121.97 30.0836C121.858 30.0678 121.73 30.06 121.586 30.0603C121.442 30.0445 121.25 30.0368 121.01 30.0372C120.114 30.0387 119.338 30.168 118.683 30.425C118.027 30.6661 117.54 31.0349 117.221 31.5314C117.317 31.8193 117.558 32.0509 117.942 32.2263C118.326 32.4016 118.782 32.5529 119.311 32.68C119.855 32.8071 120.415 32.9422 120.991 33.0853C121.583 33.2283 122.128 33.4194 122.624 33.6586C123.137 33.8817 123.553 34.1851 123.874 34.5685C124.194 34.952 124.355 35.4397 124.356 36.0317C124.358 36.9277 124.063 37.6642 123.472 38.2412C122.881 38.8182 122.097 39.2435 121.122 39.5171C120.146 39.7907 119.066 39.9284 117.882 39.9304Z" fill="#6F7481"/>
</svg>
