<svg width="45" height="20" viewBox="0 0 45 20" fill="none" xmlns="http://www.w3.org/2000/svg">
<g opacity="0.5">
<path d="M34.5806 18.4827C34.1557 18.6588 33.7342 18.6604 33.316 18.4874C32.9087 18.2882 32.6207 17.9854 32.4522 17.579C32.3756 17.3942 32.3305 17.2072 32.317 17.018C32.3035 16.8287 32.3377 16.598 32.4198 16.3258C32.6644 15.4016 33.0698 14.5516 33.6357 13.7756C34.2017 12.9997 34.7999 12.2753 35.4303 11.6026C36.0791 10.9222 36.6595 10.2593 37.1714 9.61405C37.6941 8.94265 38.0422 8.26787 38.2157 7.58971L39.0525 9.45116C37.5199 8.67927 35.9732 8.10813 34.4123 7.73773C32.8438 7.34885 31.2572 7.15149 29.6526 7.14563C29.2142 7.13256 28.8397 7.03883 28.5292 6.86445C28.2372 6.6824 28.0185 6.41587 27.8729 6.06485C27.7044 5.6584 27.7105 5.25533 27.8912 4.85565C28.0642 4.43748 28.3632 4.14031 28.7881 3.96412C28.9359 3.90284 29.1006 3.8562 29.2822 3.82421C29.4823 3.78456 29.8015 3.77126 30.24 3.78433C31.8522 3.80867 33.5695 4.06011 35.3917 4.53865C37.214 5.01719 38.9644 5.68792 40.6429 6.55084C40.8335 6.64501 40.9871 6.75451 41.1038 6.87933C41.2206 7.00414 41.3172 7.15893 41.3938 7.34368C41.4704 7.52842 41.5116 7.70619 41.5175 7.87697C41.5342 8.02161 41.5085 8.19465 41.4404 8.39607C41.2453 9.1265 40.8864 9.82742 40.3637 10.4988C39.841 11.1702 39.2645 11.8423 38.6341 12.5151C37.996 13.1693 37.4032 13.8806 36.8557 14.6489C36.3083 15.4172 35.8937 16.2711 35.6121 17.2106C35.5269 17.5274 35.4003 17.7964 35.2322 18.0176C35.0565 18.2204 34.8393 18.3754 34.5806 18.4827Z" fill="#6F7481" fill-opacity="0.5"/>
<path d="M37.5 8.53516C14.5 13.4883 1.5 13.4883 1.5 13.4883" stroke="#B7B9C0" stroke-width="3" stroke-linecap="round"/>
</g>
</svg>
