<svg width="145" height="77" viewBox="0 0 145 77" fill="none" xmlns="http://www.w3.org/2000/svg">
<path d="M62.7779 19.3143C61.9739 19.3156 61.2477 19.1848 60.5993 18.9218C59.9508 18.6469 59.3922 18.2638 58.9234 17.7726C58.4666 17.2813 58.1117 16.7119 57.8586 16.0643C57.6175 15.4047 57.4964 14.6909 57.4951 13.9229C57.4938 13.1549 57.6007 12.4467 57.8156 11.7984C58.0305 11.15 58.3056 10.5736 58.6408 10.069C58.9759 9.56448 59.3292 9.1379 59.7007 8.78929C60.0721 8.44068 60.4137 8.17612 60.7254 7.99561C61.0491 7.80308 61.2949 7.70668 61.4629 7.7064C61.6309 7.70613 61.769 7.7359 61.877 7.79572C61.9971 7.84352 62.1173 7.95133 62.2376 8.11913C62.4421 8.4068 62.4845 8.67073 62.3649 8.91092C62.2453 9.13912 62.0536 9.33744 61.7899 9.50587C61.3943 9.79452 61.0169 10.1431 60.6576 10.5517C60.3102 10.9483 60.029 11.4288 59.8139 11.9931C59.6108 12.5454 59.5099 13.1876 59.5111 13.9196C59.5122 14.5676 59.6331 15.1554 59.874 15.683C60.1269 16.2106 60.4995 16.63 60.9921 16.9412C61.4846 17.2524 62.0788 17.4074 62.7748 17.4063C63.5068 17.4051 64.1606 17.248 64.736 16.935C65.3115 16.6221 65.7668 16.1894 66.1019 15.6368C66.437 15.0843 66.604 14.448 66.6028 13.728C66.6017 13.092 66.5167 12.4561 66.3477 11.8204C66.1906 11.1727 65.9556 10.585 65.6428 10.0575C65.3419 9.51804 64.9812 9.09263 64.5607 8.78132C64.1401 8.45801 63.6599 8.2968 63.1199 8.29768C62.8919 8.29806 62.73 8.38232 62.6343 8.55048C62.5386 8.71864 62.4909 8.92872 62.4913 9.18072C62.4918 9.44472 62.4261 9.64282 62.2943 9.77504C62.1625 9.90726 62.0006 9.97352 61.8086 9.97384C61.6166 9.97415 61.4305 9.92046 61.2504 9.81275C61.0702 9.70505 60.9199 9.5433 60.7996 9.32749C60.6792 9.09969 60.6187 8.82979 60.6182 8.51779C60.6176 8.12179 60.707 7.76164 60.8865 7.43735C61.0659 7.11305 61.3235 6.84863 61.6592 6.64408C62.0068 6.43951 62.4147 6.33684 62.8827 6.33607C63.7827 6.33459 64.581 6.53128 65.2776 6.92614C65.9863 7.32098 66.5872 7.866 67.0803 8.56119C67.5854 9.24436 67.9647 10.0297 68.2182 10.9173C68.4836 11.8049 68.6172 12.7407 68.6188 13.7247C68.6201 14.5047 68.4773 15.2369 68.1904 15.9214C67.9155 16.5938 67.5145 17.1825 66.9873 17.6874C66.4601 18.1922 65.8368 18.5892 65.1172 18.8784C64.4097 19.1676 63.6299 19.3129 62.7779 19.3143ZM72.4202 19.3344C72.2042 19.3348 72.0121 19.2691 71.8439 19.1374C71.6877 19.0056 71.5614 18.8259 71.465 18.598C71.3806 18.3581 71.3382 18.0882 71.3377 17.7882C71.3364 16.9842 71.3171 16.2222 71.2799 15.5023C71.2548 14.7823 71.2057 14.1224 71.1327 13.5225C71.0597 12.9227 70.9629 12.4188 70.8422 12.011C70.7457 11.7232 70.6794 11.5073 70.6431 11.3633C70.6189 11.2074 70.6066 11.0454 70.6064 10.8774C70.606 10.6614 70.6717 10.4813 70.8035 10.3371C70.9352 10.1929 71.1451 10.1205 71.4331 10.12C71.6851 10.1196 71.9133 10.2093 72.1176 10.3889C72.3218 10.5686 72.4964 10.8803 72.6411 11.3241C72.7858 11.7558 72.8948 12.3557 72.968 13.1235C73.0533 13.8914 73.0909 14.8693 73.0809 16.0574L72.3424 15.7526C72.4727 14.7204 72.6932 13.838 73.004 13.1055C73.3268 12.3729 73.6978 11.7783 74.1171 11.3216C74.5483 10.8649 74.9978 10.5282 75.4654 10.3114C75.9331 10.0947 76.3949 9.98591 76.8509 9.98516C77.2229 9.98455 77.4811 10.0801 77.6254 10.2719C77.7817 10.4516 77.86 10.6795 77.8605 10.9555C77.8608 11.1715 77.7892 11.3696 77.6455 11.5499C77.5137 11.7181 77.28 11.8625 76.9442 11.983C76.3205 12.176 75.7989 12.4529 75.3795 12.8136C74.9601 13.1743 74.6188 13.6068 74.3557 14.1113C74.1045 14.6157 73.9074 15.18 73.7644 15.8042C73.6335 16.4284 73.5386 17.1066 73.4798 17.8387C73.4444 18.2348 73.3849 18.5409 73.3013 18.757C73.2176 18.9731 73.1039 19.1233 72.96 19.2076C72.8162 19.2918 72.6362 19.3341 72.4202 19.3344ZM82.8226 19.2634C82.2226 19.2644 81.6704 19.1273 81.1659 18.8521C80.6615 18.5769 80.2288 18.1996 79.868 17.7202C79.5073 17.2408 79.2244 16.6893 79.0193 16.0656C78.8263 15.4419 78.7292 14.7821 78.7281 14.0861C78.7267 13.2581 78.8935 12.5378 79.2285 11.9253C79.5755 11.3007 80.0547 10.8199 80.6662 10.4829C81.2896 10.1339 82.0093 9.9587 82.8253 9.95736C83.4373 9.95636 83.9655 10.0455 84.4098 10.2248C84.854 10.392 85.1964 10.6315 85.4369 10.9431C85.6774 11.2427 85.798 11.6025 85.7987 12.0225C85.799 12.2025 85.7512 12.3526 85.6554 12.4727C85.5716 12.5809 85.4637 12.635 85.3317 12.6353C85.1877 12.6355 85.0617 12.5997 84.9535 12.5279C84.8454 12.456 84.7253 12.3722 84.5931 12.2765C84.461 12.1807 84.2808 12.097 84.0527 12.0253C83.8366 11.9537 83.5365 11.9182 83.1525 11.9188C82.3965 11.9201 81.8089 12.113 81.3895 12.4977C80.9701 12.8824 80.761 13.4108 80.7621 14.0828C80.763 14.6588 80.8599 15.1926 81.0527 15.6843C81.2455 16.164 81.4921 16.5536 81.7926 16.8531C82.0931 17.1526 82.3994 17.3021 82.7114 17.3016C83.3354 17.3005 83.8867 16.8856 84.3653 16.0568C84.8439 15.2161 85.2199 13.9974 85.4933 12.401C85.7787 10.8045 85.9195 8.86628 85.9158 6.58628C85.9151 6.16628 85.9926 5.86616 86.1483 5.6859C86.316 5.50563 86.5319 5.41527 86.7959 5.41484C87.1679 5.41423 87.4562 5.58776 87.6607 5.93542C87.8773 6.27107 87.9741 6.76291 87.9511 7.41095C87.9285 8.26298 87.8818 9.01906 87.8109 9.67918C87.7519 10.3393 87.687 10.9814 87.616 11.6055C87.557 12.2176 87.5282 12.9016 87.5294 13.6576C87.5306 14.4136 87.5796 15.0316 87.6764 15.5114C87.7732 15.9913 87.8939 16.3751 88.0383 16.6628C88.1828 16.9506 88.3212 17.1844 88.4535 17.3641C88.5978 17.5319 88.718 17.6877 88.8142 17.8315C88.9225 17.9754 88.9768 18.1493 88.9771 18.3533C88.9776 18.6293 88.8879 18.8634 88.7083 19.0557C88.5285 19.236 88.2707 19.3264 87.9347 19.327C87.6227 19.3275 87.3285 19.196 87.052 18.9324C86.7756 18.6689 86.529 18.3093 86.3123 17.8537C86.1075 17.398 85.9507 16.8822 85.8417 16.3064C85.7328 15.7186 85.6838 15.1067 85.6947 14.4707L86.7562 14.1629C86.5062 15.3993 86.1659 16.3959 85.7351 17.1526C85.3163 17.8973 84.8492 18.4381 84.3338 18.7749C83.8303 19.0997 83.3266 19.2626 82.8226 19.2634ZM94.4246 19.2623C93.4766 19.2639 92.6963 19.0972 92.0838 18.7622C91.4832 18.4152 91.0384 17.9479 90.7495 17.3604C90.4605 16.7608 90.3154 16.0771 90.3141 15.3091C90.3131 14.6851 90.426 14.0609 90.653 13.4365C90.892 12.8001 91.227 12.2236 91.6582 11.7069C92.0893 11.1782 92.6046 10.7573 93.2041 10.4443C93.8156 10.1193 94.4933 9.95622 95.2373 9.955C95.8493 9.95399 96.3775 10.0611 96.8218 10.2764C97.2782 10.4796 97.6327 10.7911 97.8854 11.2107C98.1381 11.6302 98.2649 12.158 98.266 12.794C98.2671 13.454 98.07 14.0064 97.6747 14.451C97.2794 14.8957 96.74 15.2325 96.0564 15.4617C95.3727 15.6908 94.6109 15.806 93.7709 15.8074C93.0749 15.8086 92.5707 15.7074 92.2584 15.5039C91.9581 15.2884 91.8077 15.0486 91.8072 14.7846C91.807 14.6406 91.8428 14.5326 91.9147 14.4605C91.9866 14.3763 92.1125 14.3341 92.2925 14.3338C92.4245 14.3336 92.5865 14.3574 92.7786 14.405C92.9707 14.4407 93.2407 14.4583 93.5887 14.4577C94.1287 14.4568 94.6086 14.39 95.0284 14.2573C95.4481 14.1127 95.7838 13.9201 96.0354 13.6797C96.287 13.4273 96.4126 13.1451 96.412 12.8331C96.4114 12.4731 96.321 12.2032 96.1407 12.0235C95.9604 11.8438 95.6603 11.7543 95.2403 11.755C94.7963 11.7557 94.3944 11.8644 94.0348 12.081C93.6751 12.2856 93.3576 12.5681 93.0822 12.9285C92.8188 13.289 92.6155 13.6973 92.4722 14.1535C92.3289 14.6098 92.2577 15.0839 92.2585 15.5759C92.2591 15.9479 92.3257 16.2838 92.4582 16.5836C92.5907 16.8833 92.8011 17.117 93.0893 17.2845C93.3896 17.452 93.7917 17.5354 94.2957 17.5346C94.9677 17.5335 95.5256 17.4605 95.9694 17.3158C96.4132 17.1711 96.7849 17.0085 97.0846 16.828C97.3843 16.6355 97.636 16.4671 97.8398 16.3227C98.0555 16.1784 98.2594 16.106 98.4514 16.1057C98.6314 16.1054 98.7575 16.1652 98.8297 16.2851C98.9139 16.393 98.9562 16.5669 98.9566 16.8069C98.957 17.0709 98.8374 17.3471 98.5979 17.6355C98.3704 17.9239 98.0468 18.1884 97.6272 18.4291C97.2196 18.6698 96.7399 18.8685 96.1882 19.0255C95.6485 19.1823 95.0606 19.2613 94.4246 19.2623ZM102.099 19.2318C101.787 19.2323 101.546 19.1067 101.378 18.8549C101.21 18.6032 101.089 18.2794 101.016 17.8835C100.944 17.4756 100.907 17.0497 100.906 16.6057C100.906 16.2097 100.917 15.8137 100.94 15.4176C100.964 15.0096 100.987 14.6016 101.01 14.1935C101.046 13.7855 101.063 13.3954 101.062 13.0234C101.062 12.7114 101.037 12.4235 100.989 12.1596C100.941 11.8836 100.916 11.6197 100.916 11.3677C100.915 11.1757 100.981 11.0136 101.113 10.8814C101.257 10.7371 101.449 10.6648 101.689 10.6644C101.977 10.6639 102.199 10.7476 102.355 10.9153C102.523 11.083 102.644 11.3168 102.716 11.6167C102.801 11.9166 102.849 12.2585 102.862 12.6425L102.484 12.9671C102.663 12.2948 102.872 11.7365 103.112 11.2921C103.351 10.8477 103.626 10.5112 103.938 10.2827C104.25 10.0542 104.591 9.93965 104.963 9.93904C105.407 9.93831 105.774 10.0997 106.062 10.4232C106.351 10.7468 106.591 11.2024 106.784 11.7901C106.977 12.3777 107.134 13.0735 107.256 13.8773C107.377 14.5971 107.486 15.1669 107.583 15.5868C107.679 15.9946 107.77 16.3244 107.854 16.5763L107.35 16.4511C107.672 15.1306 108.048 13.984 108.478 13.0113C108.909 12.0386 109.37 11.2818 109.861 10.741C110.352 10.2002 110.843 9.92939 111.335 9.92859C112.139 9.92727 112.722 10.2923 113.083 11.0237C113.456 11.7431 113.722 12.8467 113.881 14.3344C113.954 15.1143 114.045 15.7262 114.154 16.17C114.274 16.6138 114.383 16.9616 114.479 17.2134C114.588 17.4533 114.672 17.6571 114.732 17.825C114.805 17.9809 114.841 18.1668 114.841 18.3828C114.842 18.6468 114.752 18.851 114.572 18.9953C114.392 19.1396 114.159 19.212 113.871 19.2124C113.583 19.2129 113.324 19.0933 113.096 18.8537C112.868 18.6021 112.669 18.2064 112.5 17.6667C112.343 17.1269 112.21 16.4252 112.101 15.5613C112.003 14.8535 111.918 14.2776 111.846 13.8338C111.785 13.3899 111.718 13.042 111.646 12.7901C111.574 12.5262 111.489 12.3103 111.393 12.1425C111.309 11.9746 111.2 11.8068 111.068 11.639L111.518 11.6383C111.027 12.1191 110.608 12.6838 110.261 13.3324C109.926 13.9689 109.627 14.7074 109.365 15.5478C109.114 16.3762 108.845 17.3007 108.559 18.3212C108.488 18.6213 108.362 18.8495 108.182 19.0058C108.002 19.1501 107.793 19.2224 107.553 19.2228C107.217 19.2234 106.928 19.0918 106.688 18.8282C106.46 18.5646 106.273 18.1809 106.128 17.6771C105.983 17.1614 105.856 16.5436 105.747 15.8238C105.662 15.2359 105.577 14.72 105.492 14.2762C105.42 13.8203 105.335 13.4244 105.239 13.0886C105.154 12.7527 105.051 12.4649 104.931 12.2251C104.811 11.9733 104.666 11.7515 104.498 11.5598L104.984 11.757C104.637 12.0936 104.344 12.5021 104.104 12.9825C103.865 13.4628 103.668 13.9972 103.513 14.5854C103.358 15.1617 103.233 15.7619 103.138 16.386C103.055 17.0102 102.99 17.6403 102.943 18.2764C102.92 18.6124 102.83 18.8586 102.674 19.0148C102.53 19.159 102.339 19.2314 102.099 19.2318ZM126.61 19.1915C126.01 19.1925 125.457 19.0554 124.953 18.7803C124.449 18.5051 124.016 18.1278 123.655 17.6484C123.294 17.169 123.011 16.6174 122.806 15.9938C122.613 15.3701 122.516 14.7103 122.515 14.0143C122.514 13.1863 122.681 12.466 123.016 11.8534C123.363 11.2289 123.842 10.7481 124.453 10.4111C125.077 10.062 125.796 9.88686 126.612 9.88552C127.224 9.88452 127.753 9.97365 128.197 10.1529C128.641 10.3202 128.983 10.5596 129.224 10.8712C129.464 11.1708 129.585 11.5307 129.586 11.9507C129.586 12.1306 129.538 12.2807 129.443 12.4009C129.359 12.509 129.251 12.5632 129.119 12.5634C128.975 12.5637 128.849 12.5279 128.741 12.456C128.632 12.3842 128.512 12.3004 128.38 12.2046C128.248 12.1088 128.068 12.0251 127.84 11.9535C127.624 11.8819 127.324 11.8464 126.94 11.847C126.184 11.8482 125.596 12.0412 125.177 12.4259C124.757 12.8106 124.548 13.3389 124.549 14.0109C124.55 14.5869 124.647 15.1208 124.84 15.6124C125.033 16.0921 125.279 16.4817 125.58 16.7812C125.88 17.0807 126.186 17.2302 126.498 17.2297C127.122 17.2287 127.674 16.8138 128.152 15.985C128.631 15.1442 129.007 13.9256 129.28 12.3292C129.566 10.7327 129.707 8.79445 129.703 6.51445C129.702 6.09445 129.78 5.79432 129.935 5.61407C130.103 5.43379 130.319 5.34344 130.583 5.343C130.955 5.34239 131.243 5.51592 131.448 5.86359C131.664 6.19923 131.761 6.69107 131.738 7.33911C131.716 8.19115 131.669 8.94723 131.598 9.60735C131.539 10.2674 131.474 10.9096 131.403 11.5337C131.344 12.1458 131.315 12.8298 131.316 13.5858C131.318 14.3418 131.367 14.9597 131.463 15.4396C131.56 15.9194 131.681 16.3032 131.825 16.591C131.97 16.8787 132.108 17.1125 132.241 17.2923C132.385 17.4601 132.505 17.6159 132.601 17.7597C132.71 17.9035 132.764 18.0774 132.764 18.2814C132.765 18.5574 132.675 18.7916 132.495 18.9839C132.316 19.1642 132.058 19.2546 131.722 19.2552C131.41 19.2557 131.116 19.1242 130.839 18.8606C130.563 18.5971 130.316 18.2375 130.099 17.7818C129.895 17.3262 129.738 16.8104 129.629 16.2346C129.52 15.6468 129.471 15.0348 129.482 14.3988L130.543 14.0911C130.293 15.3275 129.953 16.3241 129.522 17.0808C129.103 17.8255 128.636 18.3662 128.121 18.7031C127.617 19.0279 127.114 19.1907 126.61 19.1915ZM138.212 19.1905C137.504 19.1917 136.891 19.0967 136.375 18.9055C135.859 18.7144 135.432 18.4391 135.096 18.0796C134.759 17.7202 134.507 17.3006 134.338 16.8209C134.181 16.3411 134.102 15.8132 134.101 15.2372C134.1 14.6132 134.213 13.9891 134.44 13.3647C134.679 12.7283 135.014 12.1517 135.445 11.635C135.876 11.1063 136.392 10.6855 136.991 10.3725C137.603 10.0475 138.28 9.88438 139.024 9.88316C139.636 9.88216 140.165 9.98929 140.609 10.2046C141.065 10.4078 141.42 10.7192 141.672 11.1388C141.925 11.5584 142.052 12.0862 142.053 12.7222C142.054 13.2142 141.941 13.6524 141.713 14.0368C141.486 14.4091 141.162 14.7217 140.743 14.9744C140.335 15.227 139.861 15.4198 139.322 15.5527C138.782 15.6736 138.194 15.7345 137.558 15.7356C136.862 15.7367 136.358 15.6355 136.045 15.4321C135.745 15.2166 135.595 14.9768 135.594 14.7128C135.594 14.5688 135.63 14.4607 135.702 14.3886C135.774 14.3045 135.9 14.2623 136.08 14.262C136.212 14.2618 136.374 14.2855 136.566 14.3332C136.758 14.3689 137.028 14.3864 137.376 14.3859C137.916 14.385 138.396 14.3182 138.815 14.1855C139.235 14.0408 139.571 13.8483 139.822 13.6079C140.074 13.3554 140.2 13.0732 140.199 12.7612C140.199 12.4012 140.108 12.1314 139.928 11.9517C139.747 11.772 139.447 11.6825 139.027 11.6832C138.583 11.6839 138.182 11.7925 137.822 12.0091C137.462 12.2137 137.145 12.4963 136.869 12.8567C136.606 13.2171 136.403 13.6255 136.259 14.0817C136.116 14.5379 136.045 15.0121 136.046 15.5041C136.046 15.8761 136.113 16.2119 136.245 16.5117C136.378 16.8115 136.588 17.0452 136.876 17.2127C137.177 17.3802 137.579 17.4635 138.083 17.4627C138.755 17.4616 139.313 17.3887 139.756 17.244C140.2 17.0992 140.572 16.9366 140.872 16.7561C141.171 16.5637 141.423 16.3952 141.627 16.2509C141.843 16.1065 142.046 16.0342 142.238 16.0339C142.418 16.0336 142.545 16.0934 142.617 16.2133C142.701 16.3211 142.743 16.4951 142.744 16.7351C142.744 16.9991 142.625 17.2753 142.385 17.5637C142.157 17.852 141.834 18.1166 141.414 18.3573C141.007 18.5979 140.527 18.7967 139.975 18.9536C139.436 19.1105 138.848 19.1895 138.212 19.1905Z" fill="#6F7481" fill-opacity="0.5"/>
<path d="M71.7187 45.3596C71.3187 45.3603 70.9745 45.2169 70.686 44.9293C70.4135 44.6418 70.1247 44.1622 69.8196 43.4907C69.5307 42.9152 69.2655 42.2117 69.0242 41.38C68.7828 40.5324 68.5733 39.6368 68.3957 38.6931C68.2342 37.7493 68.1047 36.8536 68.0073 36.0057C67.8936 34.9659 67.7882 34.1021 67.6911 33.4142C67.594 32.7264 67.4891 32.1826 67.3764 31.7827C67.2798 31.3829 67.1593 31.1031 67.015 30.9433C66.8707 30.7676 66.6786 30.6799 66.4386 30.6803C66.0226 30.681 65.5591 31.0017 65.0482 31.6426C64.5532 32.2834 64.0587 33.1962 63.5647 34.381C63.0706 35.5658 62.6089 36.9906 62.1797 38.6553C61.7664 40.32 61.4175 42.1765 61.1328 44.225C61.0854 44.5931 60.9819 44.8732 60.8222 45.0655C60.6785 45.2417 60.4546 45.3301 60.1506 45.3306C59.6706 45.3314 59.3023 45.164 59.0458 44.8284C58.7892 44.4768 58.6602 43.8851 58.6589 43.0531C58.6573 42.0931 58.7358 41.1569 58.8943 40.2447C59.0688 39.3324 59.2673 38.4361 59.4899 37.5557C59.7284 36.6593 59.9349 35.763 60.1095 34.8667C60.3 33.9544 60.4105 33.0422 60.441 32.1301C60.4565 31.8581 60.5282 31.642 60.6559 31.4818C60.7996 31.3215 61.0075 31.2412 61.2795 31.2407C61.5355 31.2403 61.7916 31.3119 62.0479 31.4555C62.3041 31.5831 62.5364 31.8067 62.745 32.1263L61.6655 32.4401C62.3672 31.031 63.1174 29.9577 63.9162 29.2204C64.715 28.4671 65.5783 28.0897 66.5063 28.0882C67.4983 28.0865 68.2508 28.3653 68.7637 28.9245C69.2926 29.4676 69.686 30.3149 69.9439 31.4665C70.2178 32.6181 70.4523 34.1217 70.6473 35.9774C70.7934 37.2411 70.9792 38.3368 71.2047 39.2645C71.4462 40.1761 71.6795 40.9517 71.9045 41.5913C72.1455 42.2149 72.3464 42.7506 72.5071 43.1983C72.6679 43.6301 72.7485 44.0139 72.749 44.3499C72.7496 44.6699 72.662 44.9181 72.4863 45.0944C72.3105 45.2707 72.0547 45.3591 71.7187 45.3596ZM58.8712 40.8207C58.3752 40.8215 58.0071 40.7181 57.7667 40.5105C57.5424 40.3029 57.4299 40.0311 57.4294 39.6951C57.429 39.4551 57.5007 39.255 57.6444 39.0947C57.8041 38.9185 58.0599 38.766 58.4116 38.6375C60.1387 38.0426 62.1139 37.5914 64.3374 37.2837C66.5609 36.9601 68.9846 36.7961 71.6086 36.7918C72.2966 36.7907 72.7608 36.8939 73.0011 37.1015C73.2575 37.3091 73.386 37.5969 73.3866 37.9649C73.3872 38.3809 73.2038 38.7252 72.8363 38.9978C72.4687 39.2704 71.9489 39.4072 71.2769 39.4084C69.6609 39.411 68.261 39.4613 67.0772 39.5592C65.9093 39.6412 64.9015 39.7548 64.0537 39.9002C63.2219 40.0296 62.5022 40.1667 61.8944 40.3117C61.2866 40.4567 60.7428 40.5776 60.263 40.6744C59.7991 40.7712 59.3352 40.8199 58.8712 40.8207ZM81.2963 45.3199C80.1123 45.3219 79.0959 45.0915 78.2472 44.6289C77.3984 44.1663 76.7494 43.5274 76.3 42.7121C75.8507 41.8809 75.6251 40.9212 75.6233 39.8332C75.6217 38.8732 75.8123 37.9769 76.1949 37.1443C76.5935 36.3116 77.1363 35.5827 77.8233 34.9576C78.5103 34.3165 79.2935 33.8192 80.1729 33.4657C81.0683 33.1123 82.02 32.9347 83.028 32.9331C83.412 32.9324 83.7561 32.9879 84.0603 33.0994C84.3645 33.2109 84.6048 33.3945 84.7812 33.6502C84.9736 33.8899 85.0701 34.2177 85.0708 34.6337C85.0714 35.0177 84.984 35.3459 84.8084 35.6181C84.6488 35.8744 84.401 36.0028 84.065 36.0034C83.873 36.0037 83.729 35.9639 83.6329 35.8841C83.5367 35.8042 83.4246 35.7324 83.2965 35.6686C83.1844 35.6048 82.9923 35.5731 82.7203 35.5736C81.8723 35.575 81.1127 35.7762 80.4413 36.1773C79.786 36.5624 79.2588 37.0913 78.8599 37.7639C78.477 38.4205 78.2862 39.1649 78.2876 39.9969C78.2885 40.5408 78.4013 41.0207 78.626 41.4363C78.8506 41.8519 79.1872 42.1794 79.6356 42.4186C80.0839 42.6419 80.6361 42.753 81.2921 42.7519C81.9801 42.7508 82.508 42.6699 82.8757 42.5093C83.2435 42.3487 83.5232 42.1723 83.7149 41.9799C83.9065 41.7716 84.0822 41.5953 84.242 41.4511C84.4017 41.2908 84.6096 41.2105 84.8656 41.2101C85.1376 41.2096 85.3457 41.2973 85.49 41.473C85.6503 41.6488 85.7307 41.9046 85.7313 42.2406C85.7323 42.8326 85.5331 43.361 85.1339 43.8256C84.7506 44.2903 84.2232 44.6591 83.5517 44.9322C82.8961 45.1893 82.1443 45.3185 81.2963 45.3199ZM79.7448 50.4825C79.1528 50.4834 78.6806 50.3642 78.3282 50.1248C77.9918 49.9014 77.8233 49.5656 77.8226 49.1176C77.822 48.7816 77.9096 48.5175 78.0853 48.3252C78.277 48.1489 78.6048 48.0363 79.0687 47.9876C79.9485 47.8901 80.5483 47.7132 80.8678 47.4566C81.2034 47.2001 81.3708 46.8398 81.3701 46.3758C81.3695 46.0558 81.3211 45.8079 81.2248 45.632C81.1286 45.4722 81.0164 45.3444 80.8882 45.2486C80.7601 45.1688 80.6399 45.081 80.5278 44.9852C80.4316 44.8893 80.3834 44.7614 80.3831 44.6014C80.3829 44.4254 80.4626 44.2733 80.6224 44.145C80.7822 44.0168 81.0221 43.9524 81.3421 43.9518C82.1261 43.9506 82.7586 44.2455 83.2395 44.8367C83.7365 45.4279 83.9858 46.2115 83.9874 47.1875C83.989 48.1795 83.6143 48.9721 82.8633 49.5654C82.1123 50.1746 81.0728 50.4803 79.7448 50.4825ZM94.1638 45.3708C92.8998 45.3729 91.7714 45.1107 90.7785 44.5844C89.7856 44.042 89.0004 43.3073 88.4229 42.3802C87.8613 41.4371 87.5796 40.3576 87.5776 39.1416C87.5762 38.2776 87.7428 37.4773 88.0776 36.7408C88.4124 36.0042 88.8354 35.3635 89.3465 34.8187C89.8736 34.2578 90.4169 33.8249 90.9764 33.52C91.5519 33.2151 92.0636 33.0622 92.5116 33.0615C92.7196 33.0612 92.9037 33.0929 93.0638 33.1566C93.2399 33.2203 93.376 33.3161 93.4722 33.4439C93.5684 33.5718 93.6167 33.7477 93.6171 33.9717C93.6178 34.3877 93.5304 34.7558 93.3549 35.0761C93.1954 35.3804 92.8598 35.6449 92.3482 35.8698C91.8846 36.1265 91.4931 36.4232 91.1737 36.7597C90.8702 37.0802 90.6388 37.4406 90.4794 37.8408C90.3201 38.2251 90.2408 38.6492 90.2415 39.1132C90.2434 40.2812 90.589 41.2167 91.2781 41.9195C91.9673 42.6224 92.9039 42.9729 94.0879 42.9709C95.0799 42.9693 95.8793 42.608 96.4861 41.887C97.0929 41.15 97.3953 40.1815 97.3933 38.9815C97.3915 37.8935 97.1261 37.0379 96.5971 36.4148C96.0681 35.7757 95.3635 35.4568 94.4835 35.4583C94.0195 35.459 93.6437 35.5557 93.356 35.7481C93.0683 35.9406 92.7648 36.1971 92.4453 36.5176C92.2057 36.758 92.014 36.9663 91.8703 37.1426C91.7266 37.3188 91.5828 37.455 91.439 37.5513C91.3111 37.6475 91.1352 37.6958 90.9112 37.6961C90.6552 37.6966 90.4471 37.6169 90.2868 37.4572C90.1265 37.2814 90.046 36.9776 90.0453 36.5456C90.0447 36.1616 90.164 35.7614 90.4034 35.345C90.6427 34.9286 90.954 34.5441 91.3375 34.1914C91.7369 33.8388 92.1844 33.558 92.6801 33.3492C93.1757 33.1244 93.6795 33.0116 94.1915 33.0107C95.4075 33.0088 96.4479 33.255 97.3127 33.7496C98.1775 34.2282 98.8427 34.9151 99.3081 35.8104C99.7736 36.7056 100.007 37.7612 100.009 38.9772C100.011 40.1772 99.7571 41.2656 99.2467 42.2425C98.7363 43.2033 98.0415 43.9644 97.1624 44.5259C96.2833 45.0873 95.2838 45.369 94.1638 45.3708ZM90.6121 30.9526C90.2281 30.9532 89.9079 30.8018 89.6514 30.4982C89.4109 30.1786 89.2902 29.7948 89.2895 29.3468C89.2888 28.9148 89.3761 28.4826 89.5514 28.0504C89.7427 27.618 90.0461 27.2655 90.4616 26.9929C90.8772 26.7042 91.4289 26.5593 92.1169 26.5581C92.6609 26.5572 93.1251 26.6605 93.5094 26.8679C93.8938 27.0592 94.2301 27.2907 94.5186 27.5622C94.807 27.8177 95.0634 28.0493 95.2877 28.2569C95.528 28.4485 95.7762 28.5441 96.0322 28.5437C96.3362 28.5432 96.5681 28.4788 96.7279 28.3506C96.8877 28.2223 97.0074 28.0621 97.0871 27.87C97.1668 27.6779 97.2385 27.4857 97.3022 27.2936C97.3818 27.1015 97.4776 26.9413 97.5894 26.8132C97.7012 26.685 97.8611 26.6207 98.0691 26.6204C98.3891 26.6199 98.6532 26.7314 98.8616 26.9551C99.07 27.1787 99.1746 27.5546 99.1755 28.0826C99.1769 28.9626 98.9141 29.683 98.387 30.2439C97.8599 30.7887 97.1483 31.0619 96.2523 31.0634C95.7883 31.0641 95.3882 30.9768 95.0519 30.8013C94.7316 30.6099 94.4352 30.3943 94.1628 30.1548C93.9064 29.8992 93.6501 29.6836 93.3938 29.5081C93.1375 29.3165 92.8573 29.2209 92.5533 29.2214C92.2013 29.222 91.9535 29.3104 91.8097 29.4866C91.666 29.6629 91.5544 29.8631 91.4747 30.0872C91.4111 30.3113 91.3234 30.5114 91.2117 30.6876C91.1 30.8638 90.9001 30.9521 90.6121 30.9526ZM107.942 45.3002C106.678 45.3023 105.638 45.08 104.821 44.6333C104.02 44.1706 103.427 43.5476 103.042 42.7642C102.656 41.9649 102.463 41.0532 102.461 40.0292C102.46 39.1972 102.611 38.3649 102.913 37.5324C103.232 36.6839 103.679 35.9152 104.253 35.2262C104.828 34.5213 105.515 33.9602 106.315 33.5429C107.13 33.1095 108.034 32.892 109.026 32.8904C109.842 32.8891 110.546 33.0319 111.138 33.3189C111.747 33.5899 112.219 34.0052 112.556 34.5646C112.893 35.1241 113.062 35.8278 113.064 36.6758C113.065 37.5558 112.802 38.2922 112.275 38.8851C111.748 39.478 111.029 39.9271 110.118 40.2326C109.206 40.5381 108.19 40.6918 107.07 40.6936C106.142 40.6952 105.47 40.5603 105.054 40.2889C104.653 40.0016 104.453 39.6819 104.452 39.3299C104.452 39.1379 104.5 38.9938 104.595 38.8977C104.691 38.7855 104.859 38.7293 105.099 38.7289C105.275 38.7286 105.491 38.7602 105.747 38.8238C106.003 38.8714 106.363 38.8948 106.827 38.894C107.547 38.8928 108.187 38.8038 108.747 38.6269C109.307 38.434 109.754 38.1772 110.09 37.8567C110.425 37.5201 110.593 37.1438 110.592 36.7278C110.591 36.2478 110.471 35.888 110.23 35.6484C109.99 35.4088 109.59 35.2895 109.03 35.2904C108.438 35.2914 107.902 35.4363 107.422 35.725C106.943 35.9978 106.519 36.3745 106.152 36.8551C105.801 37.3357 105.53 37.8802 105.339 38.4885C105.148 39.0968 105.053 39.7289 105.054 40.3849C105.055 40.8809 105.143 41.3288 105.32 41.7285C105.497 42.1282 105.777 42.4398 106.162 42.6631C106.562 42.8865 107.098 42.9976 107.77 42.9965C108.666 42.995 109.41 42.8978 110.002 42.7048C110.593 42.5119 111.089 42.295 111.489 42.0544C111.888 41.7977 112.224 41.5732 112.496 41.3807C112.783 41.1883 113.055 41.0918 113.311 41.0914C113.551 41.091 113.719 41.1707 113.815 41.3306C113.928 41.4744 113.984 41.7063 113.985 42.0263C113.985 42.3783 113.826 42.7466 113.506 43.1311C113.203 43.5156 112.772 43.8683 112.212 44.1892C111.669 44.5101 111.029 44.7751 110.293 44.9844C109.574 45.1935 108.79 45.2988 107.942 45.3002ZM119.423 45.2814C118.607 45.2827 117.934 45.1798 117.406 44.9727C116.878 44.7655 116.485 44.5022 116.229 44.1826C115.988 43.863 115.868 43.5192 115.867 43.1512C115.867 42.8792 115.946 42.6551 116.106 42.4788C116.282 42.3025 116.53 42.2141 116.85 42.2136C117.026 42.2133 117.178 42.2451 117.306 42.3088C117.45 42.3726 117.602 42.4444 117.762 42.5241C117.938 42.6038 118.146 42.6755 118.386 42.7391C118.643 42.8027 118.971 42.8341 119.371 42.8335C120.363 42.8318 121.202 42.7185 121.89 42.4933C122.594 42.2522 123.081 41.8834 123.352 41.3869C123.224 41.0671 122.967 40.8196 122.583 40.6442C122.199 40.4688 121.742 40.3176 121.214 40.1904C120.686 40.0633 120.134 39.9282 119.558 39.7851C118.997 39.6261 118.469 39.4349 117.973 39.2117C117.492 38.9725 117.1 38.6612 116.795 38.2777C116.49 37.8942 116.338 37.3984 116.337 36.7904C116.336 36.1664 116.519 35.6061 116.886 35.1095C117.253 34.6129 117.74 34.1961 118.348 33.8591C118.955 33.5221 119.627 33.265 120.363 33.0878C121.098 32.9106 121.834 32.8294 122.57 32.8442C123.066 32.8434 123.482 32.9227 123.819 33.0821C124.155 33.2416 124.403 33.4492 124.564 33.7049C124.74 33.9606 124.828 34.2245 124.829 34.4965C124.829 34.7845 124.75 35.0166 124.59 35.1929C124.446 35.3691 124.222 35.4575 123.918 35.458C123.774 35.4582 123.638 35.4504 123.51 35.4347C123.398 35.4188 123.27 35.411 123.126 35.4113C122.982 35.3955 122.79 35.3878 122.55 35.3882C121.654 35.3897 120.879 35.519 120.223 35.776C119.567 36.0171 119.08 36.3859 118.761 36.8824C118.857 37.1703 119.098 37.4019 119.482 37.5773C119.866 37.7526 120.322 37.9039 120.851 38.031C121.395 38.1581 121.955 38.2932 122.531 38.4363C123.124 38.5793 123.668 38.7704 124.164 39.0096C124.677 39.2327 125.093 39.5361 125.414 39.9195C125.734 40.303 125.895 40.7907 125.896 41.3827C125.897 42.0547 125.722 42.639 125.371 43.1356C125.036 43.6322 124.565 44.0409 123.957 44.3619C123.366 44.6669 122.678 44.892 121.894 45.0373C121.126 45.1986 120.303 45.2799 119.423 45.2814ZM61.5853 71.3523C61.0573 71.3532 60.593 71.1779 60.1925 70.8266C59.7918 70.4592 59.479 69.9638 59.254 69.3401C59.029 68.7005 58.9157 67.9567 58.9143 67.1087C58.9117 65.4767 58.9411 63.9006 59.0026 62.3805C59.0801 60.8444 59.1895 59.2842 59.3309 57.7C59.3781 57.2199 59.4976 56.8837 59.6893 56.6914C59.8809 56.4831 60.2007 56.3785 60.6487 56.3778C60.9847 56.3773 61.265 56.5128 61.4894 56.7844C61.7299 57.056 61.8584 57.3838 61.875 57.7678C61.8923 58.5198 61.8696 59.3358 61.807 60.2159C61.7445 61.096 61.6821 62.0641 61.6198 63.1202C61.5575 64.1763 61.5275 65.3524 61.5296 66.6484C61.5306 67.2724 61.5875 67.8003 61.7002 68.2321C61.8289 68.6639 62.0616 69.0715 62.3982 69.455L60.5255 69.002C61.8054 68.9359 62.9649 68.67 64.0042 68.2043C65.0434 67.7226 65.9384 67.1052 66.6891 66.3519C67.4399 65.5827 68.0144 64.7177 68.4129 63.7571C68.8113 62.7964 69.0096 61.7881 69.0079 60.7321C69.0065 59.9001 68.8614 59.1883 68.5724 58.5968C68.2994 58.0053 67.8507 57.55 67.2262 57.231C66.6176 56.912 65.8094 56.7533 64.8014 56.755C63.9534 56.7564 63.2175 56.8136 62.5937 56.9266C61.9858 57.0396 61.4581 57.1765 61.0103 57.3372C60.5786 57.4819 60.1868 57.6106 59.835 57.7232C59.4991 57.8357 59.1552 57.8923 58.8032 57.8928C58.4352 57.8934 58.1311 57.8219 57.8909 57.6783C57.6506 57.5347 57.4663 57.351 57.338 57.1272C57.2096 56.9035 57.1452 56.6636 57.1448 56.4076C57.1444 56.1996 57.2001 55.9995 57.3118 55.8073C57.4395 55.6151 57.6313 55.4788 57.8871 55.3983C58.2549 55.2697 58.7027 55.133 59.2305 54.9881C59.7582 54.8433 60.334 54.7063 60.9578 54.5773C61.5816 54.4483 62.2294 54.3432 62.9013 54.2621C63.5731 54.165 64.237 54.1159 64.893 54.1148C66.317 54.1125 67.5415 54.3905 68.5664 54.9488C69.5913 55.4911 70.3686 56.2499 70.8982 57.225C71.4438 58.2001 71.7176 59.3277 71.7197 60.6077C71.7217 61.8077 71.5316 62.952 71.1493 64.0406C70.7671 65.1132 70.2407 66.0981 69.5702 66.9952C68.9156 67.8763 68.1569 68.6455 67.294 69.3029C66.431 69.9603 65.5119 70.4659 64.5364 70.8195C63.561 71.1731 62.5773 71.3507 61.5853 71.3523ZM76.3401 71.3761C75.9881 71.3767 75.708 71.2971 75.4997 71.1375C75.2915 70.9778 75.1311 70.7541 75.0186 70.4663C74.9221 70.1624 74.8736 69.8105 74.8729 69.4105C74.871 68.2265 74.8613 67.2265 74.844 66.4105C74.8426 65.5785 74.8334 64.8586 74.8164 64.2506C74.8154 63.6426 74.8065 63.0746 74.7896 62.5466C74.7888 62.0186 74.7879 61.4586 74.7869 60.8666C74.7863 60.5146 74.8418 60.2025 74.9533 59.9304C75.0649 59.6422 75.2325 59.4179 75.4562 59.2575C75.696 59.0971 75.9999 59.0166 76.3679 59.016C76.7998 59.0153 77.1441 59.1588 77.4006 59.4463C77.657 59.7179 77.7937 60.1417 77.8106 60.7177C77.8112 61.0537 77.804 61.5337 77.789 62.1577C77.79 62.7817 77.7752 63.4697 77.7444 64.2218C77.7296 64.9578 77.7068 65.7098 77.6761 66.4779C77.6613 67.2299 77.6465 67.9179 77.6315 68.542C77.6165 69.166 77.6093 69.67 77.61 70.054C77.6106 70.422 77.5071 70.7342 77.2995 70.9905C77.0919 71.2469 76.7721 71.3754 76.3401 71.3761ZM76.5327 57.1198C75.8767 57.1208 75.3324 56.9377 74.8998 56.5704C74.4672 56.1871 74.2505 55.7315 74.2496 55.2035C74.2488 54.6915 74.4241 54.2832 74.7756 53.9786C75.1271 53.6741 75.5748 53.5213 76.1188 53.5204C76.5668 53.5197 76.951 53.6231 77.2713 53.8305C77.5917 54.038 77.8321 54.3016 77.9926 54.6214C78.1692 54.9411 78.2577 55.2609 78.2582 55.5809C78.2588 55.9489 78.1234 56.3011 77.852 56.6376C77.5965 56.958 77.1567 57.1187 76.5327 57.1198ZM84.4112 71.3389C83.6592 71.3401 82.9949 71.1812 82.4184 70.8621C81.8579 70.527 81.4251 70.0638 81.1201 69.4722C80.8152 68.8807 80.662 68.185 80.6607 67.385C80.6594 66.601 80.7781 65.8088 81.0168 65.0084C81.2715 64.192 81.6222 63.4234 82.069 62.7027C82.5159 61.9819 83.0428 61.3411 83.6499 60.7801C84.2569 60.2031 84.9202 59.754 85.6397 59.4328C86.3591 59.0956 87.1188 58.9264 87.9188 58.9251C88.3508 58.9244 88.7191 59.0518 89.0235 59.3073C89.3279 59.5628 89.4805 59.9385 89.4813 60.4345C89.4817 60.6425 89.418 60.8186 89.2902 60.9628C89.1624 61.107 88.9786 61.1953 88.7386 61.2277C87.6509 61.3735 86.6915 61.7671 85.8606 62.4085C85.0456 63.0498 84.4069 63.8188 83.9443 64.7156C83.4978 65.6123 83.2753 66.5487 83.2769 67.5247C83.2776 67.9247 83.3102 68.2927 83.3748 68.6285C83.4393 68.9484 83.584 69.3642 83.8088 69.8758L82.4377 67.9581C82.8062 68.3095 83.1186 68.541 83.3748 68.6525C83.647 68.7481 83.999 68.7955 84.431 68.7948C85.375 68.7933 86.2301 68.2239 86.9962 67.0866C87.7783 65.9333 88.3436 64.2524 88.692 62.0438C88.7394 61.7077 88.867 61.4515 89.0747 61.2752C89.2824 61.0828 89.5382 60.9864 89.8422 60.9859C90.3062 60.9852 90.6985 61.1445 91.019 61.464C91.3395 61.7675 91.5562 62.1591 91.6689 62.6389C91.8464 63.5026 92.0316 64.2863 92.2248 64.99C92.4179 65.6777 92.675 66.3413 92.9961 66.9808C93.3171 67.6042 93.7582 68.2595 94.3193 68.9466C94.4796 69.1223 94.568 69.3462 94.5844 69.6182C94.6008 69.8741 94.5612 70.1302 94.4657 70.3864C94.3701 70.6265 94.2184 70.8348 94.0107 71.0111C93.8189 71.1714 93.5871 71.2518 93.3151 71.2522C93.0751 71.2526 92.875 71.205 92.7148 71.1092C92.5707 71.0135 92.4345 70.8857 92.3062 70.7259C91.9855 70.3104 91.6888 69.8949 91.4162 69.4794C91.1435 69.0478 90.8867 68.5762 90.6458 68.0646C90.421 67.537 90.22 66.9293 90.0429 66.2416C89.8817 65.5379 89.7443 64.7141 89.6308 63.7703L90.5667 63.7207C90.2498 65.6093 89.7563 67.1141 89.0861 68.2352C88.4319 69.3403 87.6972 70.1335 86.882 70.6148C86.0668 71.0961 85.2432 71.3375 84.4112 71.3389ZM86.8844 57.4148C86.5164 57.4154 86.2282 57.3358 86.02 57.1762C85.8277 57.0165 85.7314 56.8087 85.7309 56.5527C85.7306 56.3127 85.8102 56.1045 85.9699 55.9283C86.1296 55.736 86.3613 55.5196 86.6649 55.2791C87.0483 54.9585 87.3278 54.654 87.5034 54.3658C87.6789 54.0775 87.8303 53.7012 87.9575 53.237C88.1167 52.7567 88.3002 52.4284 88.5079 52.2521C88.7316 52.0757 89.0035 51.9873 89.3235 51.9868C89.7875 51.986 90.1317 52.1054 90.3561 52.3451C90.5964 52.5847 90.717 52.9445 90.7178 53.4245C90.7189 54.0965 90.528 54.7448 90.145 55.3694C89.762 55.9781 89.2748 56.4749 88.6835 56.8598C88.1081 57.2288 87.5084 57.4137 86.8844 57.4148ZM98.4501 71.3638C98.1621 71.3643 97.906 71.2767 97.6817 71.1011C97.4734 70.9254 97.305 70.6857 97.1765 70.3819C97.064 70.0621 97.0074 69.7022 97.0068 69.3022C97.005 68.2302 96.9793 67.2142 96.9298 66.2543C96.8962 65.2944 96.8307 64.4145 96.7334 63.6146C96.6361 62.8148 96.507 62.143 96.3461 61.5993C96.2175 61.2155 96.129 60.9276 96.0807 60.7357C96.0484 60.5277 96.032 60.3118 96.0316 60.0878C96.0312 59.7998 96.1188 59.5596 96.2945 59.3673C96.4701 59.1751 96.75 59.0786 97.134 59.078C97.47 59.0774 97.7742 59.1969 98.0466 59.4365C98.319 59.676 98.5516 60.0916 98.7446 60.6833C98.9376 61.259 99.0829 62.0588 99.1806 63.0826C99.2942 64.1064 99.3444 65.4103 99.331 66.9944L98.3463 66.588C98.52 65.2117 98.8141 64.0352 99.2285 63.0585C99.6589 62.0818 100.154 61.289 100.713 60.6801C101.288 60.0711 101.887 59.6222 102.51 59.3331C103.134 59.0441 103.75 58.8991 104.358 58.8981C104.854 58.8973 105.198 59.0247 105.39 59.2804C105.599 59.5201 105.703 59.8239 105.704 60.1919C105.704 60.4799 105.609 60.7441 105.417 60.9844C105.241 61.2087 104.93 61.4012 104.482 61.5619C103.65 61.8193 102.955 62.1884 102.396 62.6693C101.837 63.1503 101.382 63.727 101.031 64.3996C100.696 65.0721 100.433 65.8246 100.242 66.6569C100.068 67.4892 99.9413 68.3934 99.8629 69.3695C99.8157 69.8976 99.7364 70.3057 99.6249 70.5939C99.5134 70.8821 99.3617 71.0823 99.1699 71.1946C98.978 71.307 98.7381 71.3633 98.4501 71.3638ZM109.317 71.322C108.965 71.3226 108.685 71.243 108.476 71.0834C108.268 70.9237 108.108 70.7 107.995 70.4122C107.899 70.1083 107.85 69.7564 107.849 69.3564C107.847 68.1724 107.838 67.1724 107.821 66.3564C107.819 65.5244 107.81 64.8045 107.793 64.1965C107.792 63.5885 107.783 63.0205 107.766 62.4925C107.765 61.9645 107.764 61.4045 107.763 60.8125C107.763 60.4605 107.818 60.1484 107.93 59.8763C108.041 59.5881 108.209 59.3638 108.433 59.2034C108.673 59.043 108.976 58.9625 109.344 58.9619C109.776 58.9612 110.121 59.1047 110.377 59.3922C110.634 59.6638 110.77 60.0876 110.787 60.6636C110.788 60.9996 110.781 61.4796 110.766 62.1036C110.767 62.7276 110.752 63.4156 110.721 64.1677C110.706 64.9037 110.683 65.6557 110.653 66.4238C110.638 67.1758 110.623 67.8638 110.608 68.4879C110.593 69.1119 110.586 69.6159 110.586 69.9999C110.587 70.3679 110.484 70.6801 110.276 70.9364C110.068 71.1928 109.749 71.3213 109.317 71.322ZM109.509 57.0657C108.853 57.0667 108.309 56.8836 107.876 56.5163C107.444 56.133 107.227 55.6774 107.226 55.1494C107.225 54.6374 107.401 54.2291 107.752 53.9245C108.104 53.62 108.551 53.4672 109.095 53.4663C109.543 53.4656 109.928 53.569 110.248 53.7764C110.568 53.9839 110.809 54.2475 110.969 54.5673C111.146 54.887 111.234 55.2068 111.235 55.5268C111.235 55.8948 111.1 56.247 110.828 56.5835C110.573 56.9039 110.133 57.0646 109.509 57.0657ZM117.388 71.2848C116.636 71.286 115.971 71.1271 115.395 70.808C114.834 70.4729 114.402 70.0097 114.097 69.4182C113.792 68.8266 113.639 68.1309 113.637 67.3309C113.636 66.5469 113.755 65.7547 113.993 64.9543C114.248 64.1379 114.599 63.3693 115.046 62.6486C115.492 61.9278 116.019 61.287 116.626 60.726C117.233 60.149 117.897 59.6999 118.616 59.3787C119.336 59.0415 120.095 58.8723 120.895 58.871C121.327 58.8703 121.696 58.9977 122 59.2532C122.304 59.5087 122.457 59.8844 122.458 60.3804C122.458 60.5884 122.394 60.7645 122.267 60.9087C122.139 61.0529 121.955 61.1412 121.715 61.1736C120.627 61.3194 119.668 61.713 118.837 62.3544C118.022 62.9957 117.383 63.7647 116.921 64.6615C116.474 65.5582 116.252 66.4946 116.253 67.4706C116.254 67.8706 116.287 68.2386 116.351 68.5745C116.416 68.8943 116.56 69.3101 116.785 69.8217L115.414 67.904C115.783 68.2554 116.095 68.4869 116.351 68.5985C116.623 68.694 116.976 68.7414 117.408 68.7407C118.352 68.7392 119.207 68.1698 119.973 67.0325C120.755 65.8792 121.32 64.1983 121.668 61.9897C121.716 61.6536 121.844 61.3974 122.051 61.2211C122.259 61.0287 122.515 60.9323 122.819 60.9318C123.283 60.9311 123.675 61.0904 123.996 61.4099C124.316 61.7134 124.533 62.105 124.645 62.5848C124.823 63.4485 125.008 64.2322 125.201 64.9359C125.394 65.6236 125.652 66.2872 125.973 66.9267C126.294 67.5501 126.735 68.2054 127.296 68.8925C127.456 69.0682 127.544 69.2921 127.561 69.5641C127.577 69.82 127.538 70.0761 127.442 70.3323C127.347 70.5724 127.195 70.7807 126.987 70.957C126.795 71.1173 126.564 71.1977 126.292 71.1981C126.052 71.1985 125.852 71.1509 125.691 71.0551C125.547 70.9594 125.411 70.8316 125.283 70.6718C124.962 70.2563 124.665 69.8408 124.393 69.4253C124.12 68.9937 123.863 68.5221 123.622 68.0105C123.398 67.4829 123.197 66.8752 123.019 66.1875C122.858 65.4838 122.721 64.66 122.607 63.7162L123.543 63.6666C123.226 65.5552 122.733 67.06 122.063 68.1811C121.408 69.2862 120.674 70.0794 119.859 70.5607C119.043 71.042 118.22 71.2834 117.388 71.2848ZM132.426 71.2601C131.61 71.2614 130.938 71.1585 130.41 70.9514C129.881 70.7443 129.489 70.4809 129.232 70.1613C128.992 69.8417 128.871 69.4979 128.871 69.1299C128.87 68.8579 128.95 68.6338 129.11 68.4575C129.285 68.2812 129.533 68.1928 129.853 68.1923C130.029 68.192 130.181 68.2238 130.309 68.2876C130.453 68.3513 130.605 68.4231 130.766 68.5028C130.942 68.5825 131.15 68.6542 131.39 68.7178C131.646 68.7814 131.974 68.8128 132.374 68.8122C133.366 68.8105 134.206 68.6972 134.894 68.472C135.597 68.2309 136.085 67.8621 136.356 67.3656C136.227 67.0458 135.971 66.7983 135.587 66.6229C135.202 66.4475 134.746 66.2963 134.218 66.1691C133.69 66.042 133.137 65.9069 132.561 65.7639C132.001 65.6048 131.473 65.4136 130.976 65.1905C130.496 64.9512 130.103 64.6399 129.799 64.2564C129.494 63.8729 129.341 63.3771 129.34 62.7691C129.339 62.1451 129.522 61.5848 129.889 61.0882C130.257 60.5916 130.744 60.1748 131.351 59.8378C131.959 59.5008 132.63 59.2437 133.366 59.0665C134.102 58.8893 134.838 58.8081 135.574 58.8229C136.07 58.8221 136.486 58.9014 136.822 59.0609C137.158 59.2203 137.407 59.4279 137.567 59.6836C137.744 59.9393 137.832 60.2032 137.832 60.4752C137.833 60.7632 137.753 60.9953 137.594 61.1716C137.45 61.3478 137.226 61.4362 136.922 61.4367C136.778 61.4369 136.642 61.4292 136.514 61.4134C136.402 61.3975 136.274 61.3898 136.13 61.39C135.986 61.3742 135.794 61.3665 135.554 61.3669C134.658 61.3684 133.882 61.4977 133.227 61.7548C132.571 61.9958 132.084 62.3646 131.764 62.8612C131.861 63.149 132.101 63.3806 132.486 63.556C132.87 63.7313 133.326 63.8826 133.854 64.0097C134.398 64.1368 134.959 64.2719 135.535 64.415C136.127 64.558 136.671 64.7491 137.168 64.9883C137.68 65.2115 138.097 65.5148 138.417 65.8982C138.738 66.2817 138.899 66.7695 138.9 67.3615C138.901 68.2575 138.606 68.9939 138.015 69.5709C137.424 70.1479 136.641 70.5732 135.665 70.8468C134.69 71.1204 133.61 71.2581 132.426 71.2601Z" fill="#6F7481"/>
<g opacity="0.5">
<path d="M28.7626 31.3454C28.3403 31.4009 28.0015 31.5948 27.7463 31.9271C27.5119 32.2754 27.4212 32.6515 27.4742 33.0554C27.4983 33.2391 27.5487 33.4099 27.6255 33.5679C27.7023 33.7259 27.8366 33.895 28.0283 34.0753C28.6524 34.7031 29.371 35.1971 30.184 35.5573C30.9971 35.9175 31.8121 36.2214 32.629 36.469C33.4644 36.7142 34.2366 36.977 34.9458 37.2575C35.6758 37.5538 36.2673 37.9338 36.7204 38.3973L36.5296 36.5172C35.6581 37.8457 34.6822 39.0197 33.6021 40.0394C32.5243 41.0774 31.3435 41.9701 30.0595 42.7177C29.714 42.9312 29.4571 43.1797 29.2889 43.4633C29.139 43.7444 29.087 44.0594 29.1328 44.4083C29.1858 44.8122 29.3773 45.1326 29.7072 45.3694C30.0396 45.6246 30.4169 45.7245 30.8392 45.6691C30.9861 45.6498 31.1397 45.6109 31.3002 45.5525C31.4789 45.4917 31.7411 45.3546 32.0866 45.1411C33.3682 44.3752 34.6288 43.3785 35.8685 42.1512C37.1081 40.9238 38.2012 39.5756 39.1476 38.1066C39.2569 37.9428 39.3294 37.7839 39.3652 37.6298C39.401 37.4757 39.4068 37.3068 39.3827 37.1232C39.3586 36.9396 39.3094 36.778 39.235 36.6383C39.1814 36.5146 39.0807 36.3877 38.9329 36.2577C38.4383 35.7624 37.826 35.3665 37.096 35.0701C36.366 34.7737 35.5926 34.5017 34.7756 34.2541C33.9611 34.0248 33.1565 33.7289 32.3618 33.3663C31.5671 33.0037 30.8393 32.5109 30.1785 31.8879C29.9636 31.6734 29.7375 31.5163 29.5003 31.4167C29.2655 31.3354 29.0196 31.3117 28.7626 31.3454Z" fill="#6F7481" fill-opacity="0.5"/>
<path d="M35.7086 37.9705C14.6116 42.1697 1.50036 37.9788 1.50036 37.9788" stroke="#B7B9C0" stroke-width="3" stroke-linecap="round"/>
</g>
</svg>
