<svg width="218" height="133" viewBox="0 0 218 133" fill="none" xmlns="http://www.w3.org/2000/svg">
<path d="M65.3895 19.4289C65.0895 19.4294 64.8313 19.3218 64.6149 19.1062C64.4106 18.8905 64.194 18.5309 63.9652 18.0273C63.7484 17.5956 63.5496 17.0679 63.3686 16.4442C63.1875 15.8085 63.0304 15.1368 62.8972 14.429C62.7761 13.7212 62.679 13.0494 62.6059 12.4135C62.5207 11.6336 62.4416 10.9857 62.3688 10.4699C62.2959 9.95398 62.2172 9.54611 62.1327 9.24625C62.0603 8.94637 61.9699 8.73652 61.8617 8.61669C61.7535 8.48487 61.6094 8.41911 61.4294 8.4194C61.1174 8.41991 60.7698 8.66048 60.3866 9.14111C60.0154 9.62172 59.6445 10.3063 59.2739 11.1949C58.9034 12.0836 58.5571 13.1521 58.2352 14.4007C57.9252 15.6492 57.6635 17.0416 57.45 18.5779C57.4145 18.854 57.3368 19.0641 57.2171 19.2083C57.1093 19.3405 56.9414 19.4068 56.7134 19.4072C56.3534 19.4077 56.0772 19.2822 55.8848 19.0305C55.6924 18.7668 55.5956 18.323 55.5946 17.699C55.5934 16.979 55.6523 16.2769 55.7711 15.5927C55.902 14.9085 56.0509 14.2362 56.2178 13.576C56.3967 12.9037 56.5516 12.2314 56.6825 11.5592C56.8254 10.875 56.9083 10.1908 56.9312 9.50678C56.9428 9.30276 56.9966 9.14068 57.0924 9.02052C57.2002 8.90034 57.3561 8.84008 57.5601 8.83975C57.7521 8.83944 57.9442 8.89312 58.1363 9.0008C58.3285 9.09649 58.5028 9.2642 58.6592 9.50395L57.8495 9.73928C58.3758 8.68241 58.9385 7.87749 59.5376 7.3245C60.1367 6.75952 60.7842 6.47646 61.4802 6.47532C62.2242 6.47409 62.7885 6.68317 63.1732 7.10254C63.5699 7.50989 63.8649 8.14541 64.0584 9.00909C64.2638 9.87275 64.4396 11.0005 64.5859 12.3922C64.6955 13.3401 64.8348 14.1618 65.004 14.8575C65.1851 15.5413 65.36 16.123 65.5288 16.6027C65.7096 17.0704 65.8602 17.4721 65.9808 17.808C66.1013 18.1318 66.1618 18.4197 66.1622 18.6717C66.1626 18.9117 66.0969 19.0978 65.9651 19.23C65.8333 19.3622 65.6415 19.4285 65.3895 19.4289ZM55.7539 16.0247C55.3819 16.0253 55.1057 15.9478 54.9255 15.7921C54.7572 15.6364 54.6729 15.4325 54.6725 15.1805C54.6722 15.0005 54.7259 14.8504 54.8337 14.7302C54.9535 14.598 55.1453 14.4837 55.4092 14.3873C56.7044 13.9412 58.1859 13.6027 59.8535 13.372C61.5211 13.1293 63.3389 13.0063 65.3069 13.003C65.8229 13.0022 66.171 13.0796 66.3513 13.2353C66.5435 13.391 66.6399 13.6069 66.6404 13.8829C66.6409 14.1949 66.5033 14.4531 66.2276 14.6575C65.952 14.862 65.5621 14.9646 65.0581 14.9655C63.8461 14.9674 62.7962 15.0052 61.9083 15.0786C61.0324 15.1401 60.2765 15.2253 59.6407 15.3343C59.0169 15.4314 58.4771 15.5343 58.0212 15.643C57.5654 15.7518 57.1576 15.8424 56.7977 15.915C56.4498 15.9876 56.1019 16.0242 55.7539 16.0247ZM72.4858 19.4713C71.5258 19.4729 70.7514 19.2521 70.1627 18.8091C69.5739 18.3541 69.1469 17.7248 68.8816 16.9212C68.6282 16.1056 68.5007 15.1638 68.4989 14.0958C68.4979 13.4598 68.527 12.8958 68.5862 12.4037C68.6573 11.8995 68.7285 11.4194 68.7998 10.9633C68.883 10.5072 68.9423 10.0391 68.9775 9.55902C69.0126 9.00696 69.0299 8.56293 69.0293 8.22693C69.0287 7.89093 69.0402 7.57291 69.0637 7.27288C69.0754 7.05686 69.1411 6.87075 69.2608 6.71455C69.3925 6.54634 69.6084 6.46198 69.9084 6.46149C70.3404 6.46078 70.6468 6.68228 70.8275 7.12598C71.0082 7.56969 71.0634 8.2656 70.9929 9.21371C70.9456 9.64579 70.8923 10.0479 70.8329 10.42C70.7735 10.7801 70.7141 11.1402 70.6547 11.5003C70.6072 11.8484 70.5659 12.2264 70.5305 12.6345C70.4952 13.0305 70.4779 13.4866 70.4788 14.0026C70.4802 14.8786 70.5594 15.5744 70.7162 16.0902C70.885 16.6059 71.1257 16.9775 71.438 17.205C71.7624 17.4205 72.1646 17.5278 72.6446 17.527C72.9326 17.5265 73.1545 17.4962 73.3104 17.4359C73.4783 17.3756 73.6222 17.3214 73.7421 17.2732C73.862 17.213 74 17.1828 74.156 17.1825C74.372 17.1822 74.5341 17.2479 74.6423 17.3797C74.7505 17.5116 74.8048 17.6975 74.8052 17.9375C74.8059 18.3455 74.6145 18.7058 74.231 19.0184C73.8595 19.319 73.2778 19.47 72.4858 19.4713ZM70.3867 12.7067C70.0029 12.8753 69.7089 12.8818 69.5047 12.7262C69.3004 12.5705 69.1981 12.3487 69.1976 12.0607C69.1971 11.7727 69.2567 11.5206 69.3763 11.3044C69.508 11.0762 69.8256 10.8716 70.3293 10.6908C70.6411 10.5703 70.971 10.4678 71.3188 10.3832C71.6667 10.2986 72.0206 10.232 72.3805 10.1834C72.7524 10.1348 73.1004 10.1103 73.4244 10.1097C73.7364 10.1092 73.9885 10.1508 74.1806 10.2345C74.3727 10.3182 74.5169 10.4379 74.6132 10.5938C74.7094 10.7376 74.7577 10.9175 74.7581 11.1335C74.7585 11.3615 74.6867 11.5357 74.5429 11.6559C74.4111 11.7761 74.2132 11.8484 73.9493 11.8729C73.4333 11.9097 72.9714 11.9645 72.5636 12.0371C72.1677 12.1098 71.7958 12.2004 71.448 12.309C71.1122 12.4175 70.7584 12.5501 70.3867 12.7067ZM77.8587 19.4265C77.5947 19.4269 77.3846 19.3672 77.2284 19.2475C77.0722 19.1278 76.9519 18.96 76.8676 18.7441C76.7952 18.5162 76.7588 18.2523 76.7583 17.9523C76.7568 17.0643 76.7496 16.3143 76.7366 15.7023C76.7356 15.0783 76.7287 14.5383 76.7159 14.0823C76.7152 13.6263 76.7085 13.2003 76.6958 12.8044C76.6952 12.4084 76.6945 11.9884 76.6938 11.5444C76.6933 11.2804 76.7349 11.0463 76.8186 10.8422C76.9022 10.626 77.028 10.4578 77.1958 10.3375C77.3756 10.2172 77.6035 10.1569 77.8795 10.1564C78.2035 10.1559 78.4617 10.2635 78.654 10.4791C78.8463 10.6828 78.9489 11.0007 78.9616 11.4326C78.962 11.6846 78.9566 12.0447 78.9453 12.5127C78.9461 12.9807 78.935 13.4967 78.9119 14.0607C78.9008 14.6127 78.8837 15.1768 78.8607 15.7528C78.8496 16.3168 78.8384 16.8329 78.8272 17.3009C78.816 17.7689 78.8106 18.1469 78.8111 18.4349C78.8115 18.7109 78.7339 18.945 78.5782 19.1373C78.4225 19.3295 78.1827 19.4259 77.8587 19.4265ZM78.0031 8.73421C77.5111 8.73502 77.1029 8.59769 76.7785 8.32222C76.454 8.03475 76.2914 7.69302 76.2908 7.29702C76.2902 6.91302 76.4217 6.6068 76.6853 6.37837C76.9489 6.14994 77.2847 6.03539 77.6927 6.03472C78.0287 6.03417 78.3168 6.11169 78.5571 6.2673C78.7974 6.42291 78.9777 6.62061 79.0981 6.86041C79.2305 7.1002 79.2969 7.34009 79.2973 7.58009C79.2977 7.85609 79.1961 8.12025 78.9926 8.37259C78.8009 8.6129 78.4711 8.73345 78.0031 8.73421ZM85.334 19.3962C85.07 19.3966 84.8359 19.319 84.6316 19.1634C84.4394 19.0077 84.229 18.768 84.0004 18.4444C83.832 18.1687 83.6454 17.797 83.4406 17.3293C83.2358 16.8616 83.031 16.364 82.8261 15.8363C82.6333 15.2966 82.4404 14.7929 82.2477 14.3253C82.0066 13.6897 81.7958 13.186 81.6152 12.8143C81.4346 12.4426 81.2781 12.1488 81.1457 11.9331C81.0254 11.7053 80.9351 11.5134 80.8748 11.3575C80.8145 11.1896 80.7842 11.0037 80.7839 10.7997C80.7836 10.6077 80.8433 10.4456 80.9631 10.3134C81.0948 10.1691 81.3107 10.0968 81.6107 10.0963C81.9587 10.0957 82.2529 10.1972 82.4932 10.4008C82.7335 10.5925 82.938 10.8561 83.1065 11.1918C83.2871 11.5275 83.4557 11.9053 83.6124 12.325C83.8172 12.8287 84.0161 13.3684 84.209 13.944C84.414 14.5197 84.6249 15.0834 84.8418 15.635C85.0707 16.1746 85.3115 16.6722 85.5643 17.1278L84.9162 17.0929C85.2272 16.4564 85.5022 15.8439 85.7412 15.2555C85.9802 14.6671 86.2193 14.1027 86.4584 13.5623C86.6975 13.022 86.9547 12.5055 87.2299 12.0131C87.5051 11.5206 87.8343 11.0461 88.2175 10.5895C88.3733 10.4212 88.5231 10.295 88.6669 10.2107C88.8108 10.1265 88.9847 10.0842 89.1887 10.0839C89.3567 10.0836 89.5068 10.1313 89.639 10.2271C89.7711 10.3229 89.8733 10.4427 89.9455 10.5866C90.0178 10.7185 90.054 10.8684 90.0543 11.0364C90.0546 11.2164 90.0249 11.3845 89.9651 11.5406C89.9174 11.6967 89.8456 11.8408 89.7498 11.9729C89.3307 12.5136 88.9716 13.0362 88.6724 13.5407C88.3852 14.0452 88.1221 14.5556 87.8829 15.072C87.6557 15.5764 87.4166 16.1228 87.1656 16.7112C86.9145 17.2876 86.6276 17.9361 86.3048 18.6566C86.1732 18.9328 86.0355 19.1251 85.8917 19.2333C85.7599 19.3415 85.574 19.3958 85.334 19.3962ZM92.9759 19.4017C92.7119 19.4021 92.5018 19.3424 92.3456 19.2227C92.1894 19.103 92.0691 18.9352 91.9847 18.7193C91.9124 18.4914 91.8759 18.2275 91.8754 17.9275C91.874 17.0395 91.8667 16.2895 91.8537 15.6775C91.8527 15.0535 91.8458 14.5135 91.8331 14.0575C91.8323 13.6015 91.8256 13.1755 91.813 12.7796C91.8123 12.3836 91.8117 11.9636 91.8109 11.5196C91.8105 11.2556 91.8521 11.0215 91.9358 10.8174C92.0194 10.6012 92.1451 10.433 92.3129 10.3127C92.4927 10.1924 92.7206 10.1321 92.9966 10.1316C93.3206 10.1311 93.5788 10.2387 93.7712 10.4543C93.9635 10.658 94.066 10.9759 94.0787 11.4078C94.0792 11.6598 94.0737 12.0199 94.0625 12.4879C94.0633 12.9559 94.0521 13.4719 94.0291 14.0359C94.018 14.5879 94.0009 15.152 93.9778 15.728C93.9668 16.292 93.9556 16.8081 93.9444 17.2761C93.9331 17.7441 93.9278 18.1221 93.9282 18.4101C93.9287 18.6861 93.8511 18.9202 93.6954 19.1125C93.5397 19.3047 93.2999 19.4011 92.9759 19.4017ZM93.1203 8.70941C92.6283 8.71022 92.2201 8.57289 91.8956 8.29742C91.5712 8.00995 91.4086 7.66822 91.408 7.27222C91.4073 6.88822 91.5388 6.582 91.8024 6.35357C92.0661 6.12514 92.4019 6.01059 92.8099 6.00992C93.1459 6.00937 93.434 6.08689 93.6743 6.2425C93.9145 6.39811 94.0949 6.59581 94.2152 6.83561C94.3476 7.0754 94.414 7.31529 94.4144 7.55529C94.4149 7.83129 94.3133 8.09545 94.1097 8.34779C93.9181 8.5881 93.5883 8.70865 93.1203 8.70941ZM100.431 19.3534C99.8314 19.3544 99.2792 19.2173 98.7748 18.9422C98.2703 18.667 97.8377 18.2897 97.4769 17.8103C97.1161 17.3309 96.8332 16.7793 96.6282 16.1557C96.4352 15.532 96.3381 14.8721 96.3369 14.1761C96.3356 13.3481 96.5024 12.6279 96.8374 12.0153C97.1844 11.3907 97.6636 10.91 98.275 10.573C98.8985 10.2239 99.6182 10.0488 100.434 10.0474C101.046 10.0464 101.574 10.1355 102.019 10.3148C102.463 10.4821 102.805 10.7215 103.046 11.0331C103.286 11.3327 103.407 11.6925 103.408 12.1125C103.408 12.2925 103.36 12.4426 103.264 12.5628C103.18 12.6709 103.073 12.7251 102.941 12.7253C102.797 12.7255 102.671 12.6898 102.562 12.6179C102.454 12.5461 102.334 12.4623 102.202 12.3665C102.07 12.2707 101.89 12.187 101.662 12.1154C101.445 12.0438 101.145 12.0083 100.761 12.0089C100.005 12.0101 99.4177 12.2031 98.9983 12.5878C98.579 12.9725 98.3698 13.5008 98.3709 14.1728C98.3719 14.7488 98.4688 15.2826 98.6616 15.7743C98.8544 16.254 99.101 16.6436 99.4015 16.9431C99.702 17.2426 100.008 17.3921 100.32 17.3916C100.944 17.3906 101.496 16.9757 101.974 16.1469C102.453 15.3061 102.829 14.0875 103.102 12.491C103.388 10.8946 103.528 8.95634 103.525 6.67634C103.524 6.25634 103.601 5.95621 103.757 5.77596C103.925 5.59568 104.141 5.50533 104.405 5.50489C104.777 5.50428 105.065 5.67781 105.27 6.02548C105.486 6.36112 105.583 6.85296 105.56 7.501C105.537 8.35304 105.491 9.10912 105.42 9.76924C105.361 10.4293 105.296 11.0714 105.225 11.6956C105.166 12.3077 105.137 12.9917 105.138 13.7477C105.139 14.5037 105.189 15.1216 105.285 15.6015C105.382 16.0813 105.503 16.4651 105.647 16.7529C105.792 17.0406 105.93 17.2744 106.062 17.4542C106.207 17.622 106.327 17.7778 106.423 17.9216C106.531 18.0654 106.586 18.2393 106.586 18.4433C106.586 18.7193 106.497 18.9535 106.317 19.1458C106.137 19.3261 105.88 19.4165 105.544 19.417C105.232 19.4176 104.937 19.286 104.661 19.0225C104.384 18.7589 104.138 18.3994 103.921 17.9437C103.716 17.488 103.56 16.9723 103.451 16.3965C103.342 15.8087 103.293 15.1967 103.304 14.5607L104.365 14.253C104.115 15.4894 103.775 16.4859 103.344 17.2427C102.925 17.9873 102.458 18.5281 101.943 18.865C101.439 19.1898 100.935 19.3526 100.431 19.3534ZM110.859 19.3543C110.295 19.3553 109.797 19.2361 109.365 18.9968C108.944 18.7455 108.62 18.398 108.391 17.9544C108.162 17.5107 108.047 16.9889 108.046 16.3889C108.045 15.8009 108.134 15.2068 108.313 14.6065C108.504 13.9942 108.767 13.4178 109.103 12.8772C109.438 12.3366 109.833 11.856 110.288 11.4353C110.744 11.0025 111.241 10.6657 111.781 10.4248C112.32 10.1719 112.89 10.045 113.49 10.044C113.814 10.0435 114.09 10.139 114.318 10.3306C114.547 10.5223 114.661 10.8041 114.662 11.1761C114.662 11.3321 114.614 11.4642 114.518 11.5723C114.423 11.6805 114.285 11.7467 114.105 11.771C113.289 11.8803 112.569 12.1755 111.946 12.6565C111.335 13.1375 110.856 13.7143 110.509 14.3869C110.174 15.0594 110.007 15.7617 110.009 16.4937C110.009 16.7937 110.033 17.0697 110.082 17.3216C110.13 17.5615 110.239 17.8733 110.407 18.2571L109.379 16.8188C109.656 17.0823 109.89 17.2559 110.082 17.3396C110.286 17.4113 110.55 17.4468 110.874 17.4463C111.582 17.4451 112.223 17.0181 112.798 16.1651C113.385 15.3002 113.809 14.0395 114.07 12.3831C114.105 12.131 114.201 11.9388 114.357 11.8066C114.513 11.6623 114.704 11.59 114.932 11.5896C115.28 11.5891 115.575 11.7086 115.815 11.9482C116.055 12.1758 116.218 12.4695 116.303 12.8294C116.436 13.4772 116.575 14.0649 116.719 14.5927C116.864 15.1085 117.057 15.6062 117.298 16.0858C117.539 16.5534 117.869 17.0448 118.29 17.5601C118.411 17.6919 118.477 17.8598 118.489 18.0638C118.501 18.2558 118.472 18.4478 118.4 18.64C118.328 18.8201 118.215 18.9763 118.059 19.1085C117.915 19.2288 117.741 19.289 117.537 19.2894C117.357 19.2897 117.207 19.2539 117.087 19.1821C116.979 19.1103 116.877 19.0145 116.78 18.8946C116.54 18.583 116.317 18.2714 116.113 17.9597C115.908 17.636 115.716 17.2824 115.535 16.8987C115.367 16.5029 115.216 16.0472 115.083 15.5314C114.962 15.0036 114.859 14.3858 114.774 13.6779L115.476 13.6407C115.298 14.697 115.041 15.5915 114.706 16.324C114.383 17.0565 114.012 17.6452 113.593 18.0898C113.174 18.5345 112.73 18.8593 112.263 19.064C111.795 19.2568 111.327 19.3536 110.859 19.3543ZM123.635 19.3154C123.035 19.3164 122.482 19.1793 121.978 18.9041C121.473 18.6289 121.041 18.2516 120.68 17.7722C120.319 17.2928 120.036 16.7413 119.831 16.1176C119.638 15.4939 119.541 14.8341 119.54 14.1381C119.539 13.3101 119.706 12.5898 120.041 11.9773C120.387 11.3527 120.867 10.8719 121.478 10.5349C122.102 10.1859 122.821 10.0107 123.637 10.0094C124.249 10.0083 124.777 10.0975 125.222 10.2768C125.666 10.444 126.008 10.6835 126.249 10.9951C126.489 11.2947 126.61 11.6545 126.611 12.0745C126.611 12.2545 126.563 12.4046 126.467 12.5247C126.384 12.6328 126.276 12.687 126.144 12.6872C126 12.6875 125.874 12.6517 125.765 12.5799C125.657 12.508 125.537 12.4242 125.405 12.3285C125.273 12.2327 125.093 12.149 124.865 12.0773C124.649 12.0057 124.348 11.9702 123.964 11.9708C123.208 11.9721 122.621 12.165 122.201 12.5497C121.782 12.9344 121.573 13.4627 121.574 14.1347C121.575 14.7107 121.672 15.2446 121.865 15.7363C122.057 16.216 122.304 16.6055 122.605 16.9051C122.905 17.2046 123.211 17.3541 123.523 17.3535C124.147 17.3525 124.699 16.9376 125.177 16.1088C125.656 15.268 126.032 14.0494 126.305 12.453C126.591 10.8565 126.731 8.91827 126.728 6.63827C126.727 6.21828 126.805 5.91815 126.96 5.73789C127.128 5.55762 127.344 5.46726 127.608 5.46683C127.98 5.46622 128.268 5.63975 128.473 5.98741C128.689 6.32306 128.786 6.8149 128.763 7.46294C128.741 8.31498 128.694 9.07105 128.623 9.73117C128.564 10.3913 128.499 11.0334 128.428 11.6575C128.369 12.2696 128.34 12.9536 128.341 13.7096C128.343 14.4656 128.392 15.0836 128.488 15.5634C128.585 16.0432 128.706 16.427 128.85 16.7148C128.995 17.0026 129.133 17.2363 129.265 17.4161C129.41 17.5839 129.53 17.7397 129.626 17.8835C129.734 18.0274 129.789 18.2013 129.789 18.4053C129.789 18.5853 129.748 18.7533 129.664 18.9095C129.58 19.0536 129.46 19.1678 129.304 19.2521C129.161 19.3363 128.975 19.3786 128.747 19.379C128.435 19.3795 128.14 19.248 127.864 18.9844C127.588 18.7209 127.341 18.3613 127.124 17.9056C126.919 17.45 126.763 16.9342 126.654 16.3584C126.545 15.7706 126.496 15.1587 126.507 14.5227L127.568 14.2149C127.318 15.4513 126.978 16.4479 126.547 17.2046C126.128 17.9493 125.661 18.49 125.146 18.8269C124.642 19.1517 124.139 19.3145 123.635 19.3154ZM135.237 19.3143C134.289 19.3159 133.508 19.1492 132.896 18.8142C132.295 18.4672 131.85 17.9999 131.561 17.4124C131.272 16.8128 131.127 16.1291 131.126 15.3611C131.125 14.7371 131.238 14.1129 131.465 13.4885C131.704 12.8521 132.039 12.2756 132.47 11.7589C132.901 11.2302 133.417 10.8093 134.016 10.4963C134.628 10.1713 135.305 10.0082 136.049 10.007C136.961 10.0055 137.694 10.2443 138.246 10.7234C138.799 11.1905 139.076 11.898 139.078 12.846C139.079 13.506 138.882 14.0583 138.487 14.503C138.091 14.9476 137.552 15.2845 136.868 15.5137C136.185 15.7428 135.423 15.858 134.583 15.8594C133.887 15.8605 133.383 15.7594 133.07 15.5559C132.77 15.3404 132.62 15.1006 132.619 14.8366C132.619 14.6926 132.655 14.5846 132.727 14.5124C132.799 14.4283 132.924 14.3861 133.104 14.3858C133.236 14.3856 133.398 14.4093 133.591 14.457C133.783 14.4927 134.053 14.5103 134.401 14.5097C134.941 14.5088 135.421 14.442 135.84 14.3093C136.26 14.1646 136.596 13.9721 136.847 13.7317C137.099 13.4793 137.225 13.1971 137.224 12.8851C137.223 12.5251 137.133 12.2552 136.953 12.0755C136.772 11.8958 136.472 11.8063 136.052 11.807C135.476 11.8079 134.961 11.9888 134.505 12.3495C134.062 12.7103 133.708 13.1848 133.445 13.7733C133.194 14.3497 133.069 14.9679 133.07 15.6279C133.071 15.9999 133.138 16.3358 133.27 16.6356C133.403 16.9353 133.613 17.169 133.901 17.3365C134.202 17.504 134.604 17.5874 135.108 17.5865C135.78 17.5854 136.338 17.5125 136.781 17.3678C137.225 17.2231 137.597 17.0605 137.897 16.88C138.196 16.6875 138.448 16.5191 138.652 16.3747C138.867 16.2304 139.071 16.158 139.263 16.1577C139.443 16.1574 139.569 16.2172 139.642 16.3371C139.726 16.445 139.768 16.6189 139.769 16.8589C139.769 17.1229 139.649 17.3991 139.41 17.6875C139.182 17.9759 138.859 18.2404 138.439 18.4811C138.032 18.7217 137.552 18.9205 137 19.0774C136.46 19.2343 135.873 19.3133 135.237 19.3143ZM143.847 19.3002C143.235 19.3012 142.731 19.224 142.335 19.0687C141.938 18.9133 141.644 18.7158 141.452 18.4761C141.271 18.2364 141.181 17.9786 141.18 17.7026C141.18 17.4986 141.24 17.3305 141.36 17.1983C141.491 17.0661 141.677 16.9998 141.917 16.9994C142.049 16.9992 142.163 17.023 142.259 17.0708C142.367 17.1186 142.482 17.1724 142.602 17.2323C142.734 17.292 142.89 17.3458 143.07 17.3935C143.262 17.4412 143.508 17.4648 143.808 17.4643C144.552 17.4631 145.182 17.378 145.698 17.2092C146.225 17.0283 146.591 16.7517 146.794 16.3794C146.698 16.1395 146.506 15.9538 146.217 15.8223C145.929 15.6908 145.587 15.5773 145.191 15.482C144.795 15.3866 144.38 15.2853 143.948 15.178C143.528 15.0587 143.132 14.9154 142.76 14.748C142.399 14.5686 142.105 14.3351 141.876 14.0474C141.648 13.7598 141.533 13.388 141.533 12.932C141.532 12.464 141.669 12.0438 141.944 11.6713C142.22 11.2989 142.585 10.9863 143.041 10.7335C143.497 10.4808 144 10.2879 144.552 10.155C145.104 10.0221 145.656 9.96123 146.208 9.97232C146.58 9.97171 146.892 10.0312 147.144 10.1508C147.396 10.2704 147.582 10.4261 147.703 10.6179C147.835 10.8097 147.901 11.0075 147.902 11.2115C147.902 11.4275 147.842 11.6016 147.723 11.7338C147.615 11.866 147.447 11.9323 147.219 11.9327C147.111 11.9328 147.009 11.927 146.913 11.9152C146.829 11.9033 146.733 11.8975 146.625 11.8976C146.517 11.8858 146.373 11.8801 146.193 11.8804C145.521 11.8815 144.939 11.9784 144.447 12.1712C143.956 12.352 143.59 12.6286 143.351 13.001C143.423 13.2169 143.603 13.3906 143.892 13.5221C144.18 13.6537 144.522 13.7671 144.918 13.8624C145.326 13.9578 145.746 14.0591 146.179 14.1664C146.623 14.2736 147.031 14.417 147.403 14.5964C147.788 14.7637 148.1 14.9912 148.34 15.2788C148.581 15.5664 148.701 15.9322 148.702 16.3762C148.703 17.0482 148.482 17.6006 148.039 18.0333C147.596 18.4661 147.008 18.785 146.276 18.9902C145.545 19.1954 144.735 19.2988 143.847 19.3002Z" fill="#6F7481" fill-opacity="0.5"/>
<path d="M58.2742 45.5006C57.8582 45.5013 57.4979 45.3339 57.1934 44.9984C56.9048 44.6469 56.7599 44.0791 56.7586 43.2951C56.7569 42.2391 56.6913 41.3032 56.562 40.4874C56.4326 39.6716 56.2794 38.9119 56.1022 38.2082C55.9411 37.5045 55.788 36.8247 55.6429 36.1689C55.5138 35.4971 55.4487 34.8013 55.4475 34.0813C55.4456 32.9293 55.6439 31.9209 56.0425 31.0563C56.4571 30.1756 57.112 29.4945 58.0072 29.013C58.9023 28.5156 60.0779 28.2657 61.5339 28.2633C62.6059 28.2615 63.5823 28.4759 64.463 28.9065C65.3597 29.337 66.0727 29.9598 66.6021 30.775C67.1314 31.5741 67.397 32.5576 67.3989 33.7256C67.4003 34.5416 67.2255 35.3339 66.8748 36.1025C66.524 36.8551 66.0371 37.5279 65.4141 38.1209C64.8071 38.6979 64.0798 39.1551 63.2324 39.4925C62.4009 39.8299 61.4972 39.9993 60.5212 40.0009C59.8972 40.002 59.337 39.9069 58.8407 39.7157C58.3444 39.5245 57.952 39.2772 57.6635 38.9736C57.375 38.6541 57.2304 38.3263 57.2299 37.9903C57.2294 37.6863 57.309 37.4542 57.4687 37.2939C57.6445 37.1337 57.8524 37.0533 58.0924 37.0529C58.3164 37.0526 58.5164 37.0922 58.6926 37.1719C58.8687 37.2356 59.0848 37.3073 59.3409 37.3869C59.597 37.4505 59.9571 37.4819 60.4211 37.4811C61.2691 37.4797 62.0128 37.3025 62.6522 36.9494C63.3076 36.5964 63.8269 36.1315 64.2099 35.5549C64.593 34.9783 64.784 34.3699 64.7829 33.7299C64.7819 33.0899 64.629 32.5622 64.3243 32.1467C64.0196 31.7152 63.6191 31.3958 63.1227 31.1887C62.6264 30.9815 62.0982 30.8783 61.5382 30.8793C60.3702 30.8812 59.4987 31.1626 58.9236 31.7235C58.3485 32.2685 58.0618 33.053 58.0635 34.077C58.0646 34.765 58.1297 35.4529 58.2589 36.1406C58.404 36.8284 58.5652 37.5561 58.7424 38.3239C58.9357 39.0755 59.0971 39.9153 59.2266 40.8431C59.3721 41.7548 59.4458 42.7947 59.4477 43.9627C59.4485 44.4267 59.3611 44.8029 59.1855 45.0911C59.026 45.3634 58.7222 45.4999 58.2742 45.5006ZM72.0712 45.478C71.3192 45.4792 70.6549 45.3203 70.0784 45.0013C69.5179 44.6662 69.0851 44.2029 68.7801 43.6114C68.4752 43.0199 68.322 42.3241 68.3207 41.5241C68.3194 40.7401 68.4381 39.948 68.6768 39.1476C68.9315 38.3311 69.2822 37.5626 69.729 36.8418C70.1758 36.1211 70.7028 35.4802 71.3099 34.9192C71.9169 34.3422 72.5802 33.8931 73.2997 33.572C74.0191 33.2348 74.7788 33.0655 75.5788 33.0642C76.0108 33.0635 76.379 33.1909 76.6835 33.4464C76.9879 33.7019 77.1405 34.0777 77.1413 34.5737C77.1417 34.7817 77.0779 34.9578 76.9502 35.102C76.8224 35.2462 76.6386 35.3345 76.3986 35.3669C75.3109 35.5127 74.3515 35.9062 73.5205 36.5476C72.7056 37.1889 72.0669 37.958 71.6043 38.8548C71.1578 39.7515 70.9353 40.6879 70.9369 41.6639C70.9376 42.0639 70.9702 42.4318 71.0347 42.7677C71.0993 43.0876 71.244 43.5034 71.4688 44.015L70.0976 42.0972C70.4662 42.4486 70.7786 42.6801 71.0348 42.7917C71.3069 42.8873 71.659 42.9347 72.091 42.934C73.035 42.9324 73.8901 42.363 74.6562 41.2258C75.4383 40.0725 76.0036 38.3915 76.352 36.183C76.3994 35.8469 76.527 35.5907 76.7347 35.4143C76.9424 35.222 77.1982 35.1256 77.5022 35.1251C77.9662 35.1243 78.3585 35.2837 78.679 35.6031C78.9995 35.9066 79.2161 36.2983 79.3289 36.7781C79.5064 37.6418 79.6916 38.4255 79.8848 39.1292C80.0779 39.8169 80.335 40.4804 80.6561 41.1199C80.9771 41.7434 81.4182 42.3987 81.9793 43.0857C82.1396 43.2615 82.2279 43.4853 82.2444 43.7573C82.2608 44.0133 82.2212 44.2693 82.1257 44.5255C82.03 44.7657 81.8784 44.9739 81.6707 45.1503C81.4789 45.3106 81.2471 45.3909 80.9751 45.3914C80.7351 45.3918 80.535 45.3441 80.3748 45.2484C80.2307 45.1526 80.0945 45.0248 79.9662 44.865C79.6455 44.4496 79.3488 44.0341 79.0762 43.6185C78.8035 43.187 78.5467 42.7154 78.3058 42.2038C78.081 41.6761 77.88 41.0685 77.7028 40.3808C77.5417 39.677 77.4043 38.8532 77.2908 37.9094L78.2267 37.8599C77.989 39.2683 77.647 40.4608 77.2006 41.4376C76.7702 42.4143 76.2755 43.1991 75.7164 43.792C75.1574 44.3849 74.5661 44.8179 73.9426 45.0909C73.319 45.348 72.6952 45.477 72.0712 45.478ZM86.1101 45.503C85.8221 45.5034 85.566 45.4159 85.3417 45.2402C85.1334 45.0646 84.965 44.8248 84.8365 44.5211C84.724 44.2012 84.6674 43.8413 84.6668 43.4413C84.665 42.3693 84.6393 41.3534 84.5898 40.3935C84.5562 39.4335 84.4907 38.5536 84.3934 37.7538C84.2961 36.9539 84.167 36.2821 84.0061 35.7384C83.8775 35.3546 83.789 35.0668 83.7407 34.8748C83.7084 34.6669 83.692 34.4509 83.6916 34.2269C83.6912 33.9389 83.7788 33.6988 83.9545 33.5065C84.1301 33.3142 84.41 33.2177 84.794 33.2171C85.13 33.2166 85.4342 33.3361 85.7066 33.5756C85.979 33.8152 86.2116 34.2308 86.4046 34.8225C86.5976 35.3982 86.7429 36.1979 86.8406 37.2218C86.9542 38.2456 87.0044 39.5495 86.991 41.1335L86.0063 40.7271C86.18 39.3508 86.4741 38.1744 86.8885 37.1977C87.3189 36.221 87.8136 35.4282 88.3726 34.8192C88.9476 34.2103 89.5469 33.7613 90.1704 33.4723C90.7939 33.1833 91.4097 33.0383 92.0177 33.0373C92.5137 33.0364 92.8579 33.1639 93.0503 33.4196C93.2587 33.6592 93.3632 33.9631 93.3638 34.3311C93.3643 34.6191 93.2687 34.8832 93.0771 35.1235C92.9015 35.3478 92.5898 35.5403 92.1421 35.7011C91.3105 35.9584 90.6151 36.3276 90.0559 36.8085C89.4967 37.2894 89.0416 37.8661 88.6907 38.5387C88.3558 39.2113 88.0931 39.9637 87.9024 40.796C87.7278 41.6283 87.6013 42.5325 87.5229 43.5086C87.4757 44.0367 87.3964 44.4449 87.2849 44.733C87.1733 45.0212 87.0217 45.2215 86.8299 45.3338C86.638 45.4461 86.3981 45.5025 86.1101 45.503ZM100.43 45.5035C99.1499 45.5056 98.1174 45.2113 97.3325 44.6206C96.5475 44.0138 95.9781 43.1748 95.6243 42.1034C95.2865 41.0159 95.1165 39.7602 95.1141 38.3362C95.1128 37.4882 95.1515 36.7361 95.2304 36.08C95.3253 35.4078 95.4203 34.7677 95.5153 34.1595C95.6263 33.5513 95.7053 32.9272 95.7522 32.2871C95.799 31.5511 95.822 30.959 95.8213 30.511C95.8206 30.063 95.8359 29.639 95.8672 29.2389C95.8827 28.9509 95.9703 28.7028 96.13 28.4945C96.3056 28.2702 96.5934 28.1577 96.9934 28.1571C97.5694 28.1561 97.9779 28.4515 98.2189 29.0431C98.4599 29.6347 98.5334 30.5626 98.4395 31.8267C98.3764 32.4028 98.3053 32.9389 98.2261 33.4351C98.1469 33.9152 98.0677 34.3953 97.9885 34.8755C97.9252 35.3396 97.8701 35.8437 97.8229 36.3877C97.7758 36.9158 97.7528 37.5239 97.7539 38.2119C97.7559 39.3799 97.8614 40.3077 98.0705 40.9953C98.2956 41.683 98.6165 42.1784 99.0329 42.4818C99.4654 42.7691 100.002 42.9122 100.642 42.9111C101.026 42.9105 101.322 42.87 101.529 42.7897C101.753 42.7093 101.945 42.637 102.105 42.5727C102.265 42.4925 102.449 42.4522 102.657 42.4518C102.945 42.4513 103.161 42.539 103.305 42.7148C103.45 42.8905 103.522 43.1384 103.523 43.4584C103.523 44.0024 103.268 44.4828 102.757 44.8997C102.262 45.3005 101.486 45.5017 100.43 45.5035ZM97.6311 36.4841C97.1195 36.7089 96.7275 36.7175 96.4551 36.51C96.1828 36.3024 96.0463 36.0067 96.0457 35.6227C96.0451 35.2387 96.1245 34.9025 96.284 34.6143C96.4595 34.31 96.8831 34.0373 97.5547 33.7962C98.1623 33.5552 98.834 33.3701 99.5698 33.2409C100.322 33.0956 101.025 33.0225 101.681 33.0214C102.305 33.0204 102.754 33.1476 103.026 33.4032C103.314 33.6427 103.459 33.9705 103.46 34.3865C103.46 34.6905 103.365 34.9226 103.173 35.083C102.997 35.2433 102.733 35.3397 102.381 35.3723C101.693 35.4214 101.077 35.4944 100.534 35.5913C100.006 35.6882 99.51 35.809 99.0462 35.9537C98.5985 36.0985 98.1268 36.2752 97.6311 36.4841ZM107.594 45.4437C107.242 45.4443 106.962 45.3648 106.753 45.2051C106.545 45.0454 106.385 44.8217 106.272 44.5339C106.176 44.2301 106.127 43.8781 106.127 43.4781C106.125 42.2941 106.115 41.2941 106.098 40.4782C106.096 39.6462 106.087 38.9262 106.07 38.3182C106.069 37.7102 106.06 37.1422 106.043 36.6143C106.042 36.0863 106.042 35.5263 106.041 34.9343C106.04 34.5823 106.095 34.2702 106.207 33.998C106.319 33.7098 106.486 33.4855 106.71 33.3252C106.95 33.1648 107.254 33.0843 107.622 33.0837C108.054 33.083 108.398 33.2264 108.654 33.514C108.911 33.7855 109.047 34.2093 109.064 34.7853C109.065 35.1213 109.058 35.6013 109.043 36.2253C109.044 36.8493 109.029 37.5374 108.998 38.2894C108.983 39.0254 108.961 39.7775 108.93 40.5455C108.915 41.2976 108.9 41.9856 108.885 42.6096C108.87 43.2336 108.863 43.7376 108.864 44.1216C108.864 44.4896 108.761 44.8018 108.553 45.0582C108.346 45.3145 108.026 45.443 107.594 45.4437ZM107.786 31.1874C107.13 31.1885 106.586 31.0054 106.154 30.6381C105.721 30.2548 105.504 29.7991 105.503 29.2711C105.502 28.7591 105.678 28.3508 106.029 28.0463C106.381 27.7417 106.829 27.589 107.373 27.5881C107.821 27.5873 108.205 27.6907 108.525 27.8982C108.845 28.1056 109.086 28.3693 109.246 28.689C109.423 29.0087 109.511 29.3286 109.512 29.6486C109.513 30.0166 109.377 30.3688 109.106 30.7052C108.85 31.0256 108.41 31.1864 107.786 31.1874ZM117.585 45.3793C116.401 45.3813 115.384 45.1509 114.536 44.6883C113.687 44.2257 113.038 43.5868 112.589 42.7715C112.139 41.9403 111.914 40.9806 111.912 39.8926C111.91 38.9326 112.101 38.0363 112.483 37.2037C112.882 36.371 113.425 35.6421 114.112 35.017C114.799 34.3759 115.582 33.8786 116.461 33.5252C117.357 33.1717 118.309 32.9941 119.317 32.9925C119.701 32.9918 120.045 33.0473 120.349 33.1588C120.653 33.2703 120.893 33.4539 121.07 33.7096C121.262 33.9493 121.359 34.2771 121.359 34.6931C121.36 35.0771 121.272 35.4053 121.097 35.6776C120.937 35.9338 120.69 36.0622 120.354 36.0628C120.162 36.0631 120.018 36.0233 119.921 35.9435C119.825 35.8636 119.713 35.7918 119.585 35.728C119.473 35.6642 119.281 35.6325 119.009 35.633C118.161 35.6344 117.401 35.8356 116.73 36.2367C116.074 36.6218 115.547 37.1507 115.148 37.8233C114.766 38.4799 114.575 39.2243 114.576 40.0563C114.577 40.6003 114.69 41.0801 114.914 41.4957C115.139 41.9113 115.476 42.2388 115.924 42.4781C116.372 42.7013 116.925 42.8124 117.581 42.8113C118.269 42.8102 118.797 42.7293 119.164 42.5687C119.532 42.4081 119.812 42.2317 120.003 42.0394C120.195 41.831 120.371 41.6548 120.531 41.5105C120.69 41.3502 120.898 41.2699 121.154 41.2695C121.426 41.269 121.634 41.3567 121.779 41.5324C121.939 41.7082 122.019 41.9641 122.02 42.3001C122.021 42.8921 121.822 43.4204 121.422 43.885C121.039 44.3497 120.512 44.7185 119.84 44.9916C119.185 45.2487 118.433 45.3779 117.585 45.3793ZM126.063 45.4134C125.711 45.414 125.43 45.3345 125.222 45.1748C125.014 45.0151 124.854 44.7914 124.741 44.5036C124.645 44.1998 124.596 43.8478 124.595 43.4478C124.593 42.2638 124.584 41.2638 124.566 40.4479C124.565 39.6159 124.556 38.8959 124.539 38.2879C124.538 37.6799 124.529 37.1119 124.512 36.584C124.511 36.056 124.51 35.496 124.509 34.904C124.509 34.552 124.564 34.2399 124.676 33.9677C124.787 33.6795 124.955 33.4552 125.179 33.2949C125.418 33.1345 125.722 33.054 126.09 33.0534C126.522 33.0527 126.867 33.1961 127.123 33.4837C127.379 33.7552 127.516 34.179 127.533 34.755C127.534 35.091 127.526 35.571 127.511 36.195C127.512 36.819 127.498 37.5071 127.467 38.2591C127.452 38.9951 127.429 39.7472 127.399 40.5152C127.384 41.2673 127.369 41.9553 127.354 42.5793C127.339 43.2033 127.332 43.7073 127.332 44.0913C127.333 44.4593 127.229 44.7715 127.022 45.0279C126.814 45.2842 126.495 45.4127 126.063 45.4134ZM126.255 31.1571C125.599 31.1582 125.055 30.9751 124.622 30.6078C124.19 30.2245 123.973 29.7688 123.972 29.2408C123.971 28.7288 124.147 28.3205 124.498 28.016C124.85 27.7114 125.297 27.5587 125.841 27.5578C126.289 27.557 126.673 27.6604 126.994 27.8679C127.314 28.0753 127.555 28.339 127.715 28.6587C127.892 28.9784 127.98 29.2983 127.981 29.6183C127.981 29.9863 127.846 30.3385 127.574 30.6749C127.319 30.9953 126.879 31.1561 126.255 31.1571ZM137.055 45.3714C136.239 45.3727 135.503 45.2459 134.846 44.991C134.19 44.7201 133.669 44.3769 133.285 43.9616C132.9 43.5462 132.707 43.0985 132.706 42.6185C132.706 42.3945 132.77 42.2024 132.897 42.0422C133.041 41.866 133.225 41.7777 133.449 41.7773C133.641 41.777 133.817 41.8327 133.977 41.9444C134.153 42.0401 134.346 42.1598 134.554 42.3035C134.778 42.4311 135.058 42.5507 135.394 42.6621C135.731 42.7576 136.171 42.8048 136.715 42.8039C137.547 42.8026 138.218 42.6015 138.73 42.2006C139.241 41.7838 139.496 41.0874 139.494 40.1114C139.493 39.4074 139.356 38.7836 139.083 38.2401C138.81 37.6805 138.433 37.2011 137.953 36.8019C137.488 36.4027 136.96 36.0995 136.367 35.8925C135.775 35.6695 135.159 35.5585 134.519 35.5595C134.199 35.5601 133.887 35.6006 133.583 35.6811C133.295 35.7455 133.015 35.778 132.743 35.7785C132.503 35.7788 132.279 35.7232 132.071 35.6116C131.879 35.4999 131.718 35.3481 131.59 35.1563C131.478 34.9485 131.421 34.7326 131.421 34.5086C131.42 33.9646 131.668 33.5722 132.163 33.3314C132.659 33.0746 133.434 32.9453 134.49 32.9436C135.562 32.9418 136.563 33.1162 137.491 33.4667C138.436 33.8011 139.261 34.2958 139.966 34.9506C140.671 35.5894 141.224 36.3725 141.626 37.2999C142.027 38.2272 142.229 39.2749 142.231 40.4429C142.232 41.1469 142.105 41.7951 141.85 42.3875C141.611 42.9799 141.26 43.5005 140.797 43.9493C140.349 44.398 139.806 44.7509 139.166 45.0079C138.543 45.249 137.839 45.3701 137.055 45.3714ZM132.697 51.4026C132.457 51.4029 132.233 51.3473 132.024 51.2357C131.832 51.14 131.672 50.9802 131.544 50.7564C131.431 50.5486 131.375 50.2767 131.374 49.9407C131.374 49.6687 131.406 49.4207 131.469 49.1966C131.533 48.9725 131.596 48.7164 131.66 48.4282C131.739 48.1561 131.811 47.812 131.874 47.3959C131.938 46.9958 131.969 46.4757 131.968 45.8357C131.966 44.9557 131.901 44.0918 131.771 43.2441C131.658 42.3802 131.513 41.5245 131.335 40.6768C131.174 39.813 131.02 38.9413 130.875 38.0615C130.745 37.1817 130.672 36.2939 130.655 35.3979C130.638 35.1259 130.67 34.9019 130.749 34.7257C130.829 34.5496 130.941 34.4214 131.085 34.3412C131.245 34.2449 131.429 34.1966 131.637 34.1963C131.973 34.1957 132.269 34.2912 132.525 34.4828C132.797 34.6584 133.014 34.898 133.174 35.2017C133.351 35.4895 133.439 35.8093 133.44 36.1613C133.441 37.1053 133.507 38.0012 133.636 38.849C133.766 39.6968 133.911 40.5285 134.072 41.3443C134.234 42.144 134.379 42.9438 134.508 43.7436C134.638 44.5434 134.703 45.3753 134.704 46.2393C134.706 46.9753 134.667 47.6553 134.588 48.2794C134.525 48.9196 134.414 49.4717 134.254 49.936C134.111 50.4002 133.912 50.7606 133.656 51.017C133.401 51.2734 133.081 51.4019 132.697 51.4026ZM148.313 45.3529C147.561 45.3542 146.897 45.1952 146.321 44.8762C145.76 44.5411 145.327 44.0778 145.022 43.4863C144.717 42.8948 144.564 42.1991 144.563 41.3991C144.562 40.6151 144.68 39.8229 144.919 39.0225C145.174 38.2061 145.524 37.4375 145.971 36.7168C146.418 35.996 146.945 35.3552 147.552 34.7942C148.159 34.2172 148.822 33.7681 149.542 33.4469C150.261 33.1097 151.021 32.9405 151.821 32.9391C152.253 32.9384 152.621 33.0658 152.926 33.3213C153.23 33.5768 153.383 33.9526 153.383 34.4486C153.384 34.6566 153.32 34.8327 153.192 34.9769C153.065 35.1211 152.881 35.2094 152.641 35.2418C151.553 35.3876 150.594 35.7812 149.763 36.4225C148.948 37.0639 148.309 37.8329 147.846 38.7297C147.4 39.6264 147.177 40.5628 147.179 41.5388C147.18 41.9388 147.212 42.3067 147.277 42.6426C147.341 42.9625 147.486 43.3783 147.711 43.8899L146.34 41.9722C146.708 42.3236 147.021 42.555 147.277 42.6666C147.549 42.7622 147.901 42.8096 148.333 42.8089C149.277 42.8073 150.132 42.2379 150.898 41.1007C151.68 39.9474 152.246 38.2665 152.594 36.0579C152.642 35.7218 152.769 35.4656 152.977 35.2893C153.184 35.0969 153.44 35.0005 153.744 35C154.208 34.9992 154.601 35.1586 154.921 35.4781C155.242 35.7815 155.458 36.1732 155.571 36.653C155.748 37.5167 155.934 38.3004 156.127 39.0041C156.32 39.6918 156.577 40.3554 156.898 40.9948C157.219 41.6183 157.66 42.2736 158.221 42.9607C158.382 43.1364 158.47 43.3603 158.486 43.6322C158.503 43.8882 158.463 44.1443 158.368 44.4004C158.272 44.6406 158.12 44.8488 157.913 45.0252C157.721 45.1855 157.489 45.2659 157.217 45.2663C156.977 45.2667 156.777 45.219 156.617 45.1233C156.473 45.0275 156.337 44.8998 156.208 44.74C155.888 44.3245 155.591 43.909 155.318 43.4934C155.046 43.0619 154.789 42.5903 154.548 42.0787C154.323 41.5511 154.122 40.9434 153.945 40.2557C153.784 39.5519 153.646 38.7282 153.533 37.7843L154.469 37.7348C154.152 39.6233 153.658 41.1281 152.988 42.2492C152.334 43.3543 151.599 44.1475 150.784 44.6289C149.969 45.1102 149.145 45.3516 148.313 45.3529ZM165.422 45.3969C164.142 45.399 163.11 45.1046 162.325 44.5139C161.54 43.9072 160.97 43.0682 160.616 41.9967C160.279 40.9093 160.109 39.6536 160.106 38.2296C160.105 37.3816 160.144 36.6295 160.223 35.9734C160.317 35.3012 160.412 34.6611 160.507 34.0529C160.618 33.4447 160.697 32.8206 160.744 32.1805C160.791 31.4444 160.814 30.8524 160.813 30.4044C160.813 29.9564 160.828 29.5324 160.859 29.1323C160.875 28.8443 160.962 28.5961 161.122 28.3879C161.298 28.1636 161.586 28.0511 161.986 28.0505C162.562 28.0495 162.97 28.3449 163.211 28.9365C163.452 29.5281 163.526 30.4559 163.432 31.7201C163.369 32.2962 163.297 32.8323 163.218 33.3285C163.139 33.8086 163.06 34.2887 162.981 34.7688C162.917 35.2329 162.862 35.737 162.815 36.2811C162.768 36.8092 162.745 37.4172 162.746 38.1052C162.748 39.2732 162.853 40.2011 163.063 40.8887C163.288 41.5764 163.609 42.0718 164.025 42.3751C164.458 42.6624 164.994 42.8056 165.634 42.8045C166.018 42.8039 166.314 42.7634 166.522 42.683C166.745 42.6027 166.937 42.5304 167.097 42.4661C167.257 42.3858 167.441 42.3455 167.649 42.3452C167.937 42.3447 168.153 42.4324 168.297 42.6081C168.442 42.7839 168.514 43.0318 168.515 43.3518C168.516 43.8958 168.26 44.3762 167.749 44.793C167.254 45.1939 166.478 45.3951 165.422 45.3969ZM162.623 36.3774C162.112 36.6023 161.72 36.6109 161.447 36.4034C161.175 36.1958 161.038 35.9 161.038 35.516C161.037 35.132 161.117 34.7959 161.276 34.5076C161.452 34.2034 161.875 33.9307 162.547 33.6896C163.154 33.4486 163.826 33.2635 164.562 33.1342C165.314 32.989 166.018 32.9159 166.674 32.9148C167.298 32.9138 167.746 33.041 168.018 33.2966C168.307 33.5361 168.451 33.8639 168.452 34.2799C168.452 34.5839 168.357 34.816 168.165 34.9763C167.989 35.1366 167.725 35.2331 167.373 35.2656C166.685 35.3148 166.07 35.3878 165.526 35.4847C164.998 35.5815 164.502 35.7023 164.038 35.8471C163.591 35.9918 163.119 36.1686 162.623 36.3774ZM172.586 45.3371C172.234 45.3377 171.954 45.2581 171.746 45.0985C171.537 44.9388 171.377 44.7151 171.264 44.4273C171.168 44.1234 171.119 43.7715 171.119 43.3715C171.117 42.1875 171.107 41.1875 171.09 40.3716C171.088 39.5396 171.079 38.8196 171.062 38.2116C171.061 37.6036 171.052 37.0356 171.035 36.5076C171.035 35.9796 171.034 35.4196 171.033 34.8276C171.032 34.4756 171.088 34.1635 171.199 33.8914C171.311 33.6032 171.478 33.3789 171.702 33.2185C171.942 33.0581 172.246 32.9776 172.614 32.977C173.046 32.9763 173.39 33.1198 173.646 33.4073C173.903 33.6789 174.04 34.1027 174.056 34.6787C174.057 35.0147 174.05 35.4947 174.035 36.1187C174.036 36.7427 174.021 37.4307 173.99 38.1828C173.975 38.9188 173.953 39.6709 173.922 40.4389C173.907 41.1909 173.892 41.879 173.877 42.503C173.862 43.127 173.855 43.631 173.856 44.015C173.856 44.383 173.753 44.6952 173.545 44.9515C173.338 45.2079 173.018 45.3364 172.586 45.3371ZM172.779 31.0808C172.123 31.0818 171.578 30.8987 171.146 30.5314C170.713 30.1482 170.496 29.6925 170.495 29.1645C170.495 28.6525 170.67 28.2442 171.021 27.9396C171.373 27.6351 171.821 27.4823 172.365 27.4814C172.813 27.4807 173.197 27.5841 173.517 27.7915C173.837 27.999 174.078 28.2626 174.238 28.5824C174.415 28.9021 174.504 29.2219 174.504 29.5419C174.505 29.9099 174.369 30.2622 174.098 30.5986C173.842 30.919 173.403 31.0797 172.779 31.0808ZM182.553 45.2968C182.201 45.2973 181.889 45.1938 181.616 44.9863C181.36 44.7787 181.08 44.4592 180.775 44.0277C180.55 43.66 180.302 43.1644 180.028 42.5409C179.755 41.9173 179.482 41.2538 179.209 40.5502C178.952 39.8307 178.695 39.1591 178.438 38.5355C178.117 37.688 177.835 37.0165 177.595 36.5209C177.354 36.0253 177.145 35.6336 176.969 35.3459C176.808 35.0422 176.688 34.7864 176.607 34.5785C176.527 34.3546 176.487 34.1067 176.486 33.8347C176.486 33.5787 176.565 33.3626 176.725 33.1863C176.901 32.994 177.189 32.8975 177.589 32.8969C178.053 32.8961 178.445 33.0315 178.765 33.3029C179.086 33.5584 179.358 33.91 179.583 34.3576C179.824 34.8052 180.049 35.3088 180.258 35.8685C180.531 36.5401 180.796 37.2596 181.053 38.0272C181.326 38.7948 181.608 39.5463 181.897 40.2818C182.202 41.0013 182.523 41.6648 182.86 42.2722L181.996 42.2257C182.411 41.377 182.777 40.5604 183.096 39.7759C183.415 38.9913 183.733 38.2388 184.052 37.5183C184.371 36.7978 184.714 36.1092 185.081 35.4526C185.448 34.796 185.887 34.1633 186.398 33.5544C186.605 33.3301 186.805 33.1618 186.997 33.0494C187.189 32.9371 187.421 32.8807 187.693 32.8803C187.917 32.8799 188.117 32.9436 188.293 33.0713C188.469 33.199 188.605 33.3588 188.702 33.5506C188.798 33.7265 188.846 33.9264 188.847 34.1504C188.847 34.3904 188.807 34.6145 188.728 34.8226C188.664 35.0307 188.568 35.2229 188.441 35.3991C187.882 36.12 187.403 36.8168 187.004 37.4894C186.621 38.1621 186.27 38.8426 185.952 39.5312C185.649 40.2037 185.33 40.9322 184.995 41.7167C184.66 42.4853 184.278 43.3499 183.847 44.3106C183.672 44.6789 183.488 44.9352 183.297 45.0795C183.121 45.2238 182.873 45.2962 182.553 45.2968ZM193.618 45.2786C192.866 45.2798 192.202 45.1209 191.625 44.8019C191.065 44.4668 190.632 44.0035 190.327 43.412C190.022 42.8205 189.869 42.1247 189.867 41.3247C189.866 40.5407 189.985 39.7486 190.224 38.9482C190.478 38.1317 190.829 37.3632 191.276 36.6424C191.723 35.9217 192.25 35.2808 192.857 34.7198C193.464 34.1428 194.127 33.6937 194.846 33.3726C195.566 33.0354 196.326 32.8661 197.126 32.8648C197.558 32.8641 197.926 32.9915 198.23 33.247C198.535 33.5025 198.687 33.8783 198.688 34.3743C198.688 34.5823 198.625 34.7584 198.497 34.9026C198.369 35.0468 198.185 35.1351 197.945 35.1675C196.858 35.3133 195.898 35.7068 195.067 36.3482C194.252 36.9895 193.614 37.7586 193.151 38.6554C192.705 39.5521 192.482 40.4885 192.484 41.4645C192.484 41.8645 192.517 42.2324 192.581 42.5683C192.646 42.8882 192.791 43.304 193.016 43.8156L191.644 41.8978C192.013 42.2492 192.325 42.4807 192.582 42.5923C192.854 42.6878 193.206 42.7353 193.638 42.7346C194.582 42.733 195.437 42.1636 196.203 41.0264C196.985 39.8731 197.55 38.1921 197.899 35.9836C197.946 35.6475 198.074 35.3913 198.281 35.2149C198.489 35.0226 198.745 34.9262 199.049 34.9257C199.513 34.9249 199.905 35.0843 200.226 35.4037C200.546 35.7072 200.763 36.0989 200.876 36.5787C201.053 37.4424 201.238 38.2261 201.432 38.9298C201.625 39.6175 201.882 40.281 202.203 40.9205C202.524 41.544 202.965 42.1993 203.526 42.8863C203.686 43.0621 203.775 43.2859 203.791 43.5579C203.808 43.8139 203.768 44.0699 203.672 44.3261C203.577 44.5663 203.425 44.7745 203.217 44.9509C203.026 45.1112 202.794 45.1915 202.522 45.192C202.282 45.1924 202.082 45.1447 201.922 45.049C201.777 44.9532 201.641 44.8254 201.513 44.6656C201.192 44.2502 200.896 43.8347 200.623 43.4191C200.35 42.9876 200.093 42.516 199.853 42.0044C199.628 41.4767 199.427 40.8691 199.25 40.1814C199.088 39.4776 198.951 38.6538 198.838 37.71L199.773 37.6605C199.536 39.0689 199.194 40.2614 198.747 41.2382C198.317 42.2149 197.822 42.9997 197.263 43.5926C196.704 44.1855 196.113 44.6185 195.489 44.8915C194.866 45.1486 194.242 45.2776 193.618 45.2786ZM208.656 45.2539C207.84 45.2553 207.168 45.1524 206.64 44.9452C206.112 44.7381 205.719 44.4747 205.463 44.1552C205.222 43.8356 205.101 43.4918 205.101 43.1238C205.1 42.8518 205.18 42.6276 205.34 42.4514C205.515 42.2751 205.763 42.1867 206.083 42.1861C206.259 42.1859 206.411 42.2176 206.539 42.2814C206.684 42.3452 206.836 42.4169 206.996 42.4966C207.172 42.5764 207.38 42.648 207.62 42.7116C207.876 42.7752 208.204 42.8067 208.604 42.806C209.596 42.8044 210.436 42.691 211.124 42.4659C211.827 42.2247 212.315 41.8559 212.586 41.3595C212.457 41.0397 212.201 40.7921 211.817 40.6167C211.432 40.4414 210.976 40.2901 210.448 40.163C209.92 40.0358 209.368 39.9008 208.791 39.7577C208.231 39.5986 207.703 39.4075 207.206 39.1843C206.726 38.9451 206.333 38.6337 206.029 38.2502C205.724 37.8667 205.571 37.371 205.57 36.763C205.569 36.139 205.752 35.5787 206.12 35.0821C206.487 34.5855 206.974 34.1687 207.582 33.8317C208.189 33.4947 208.861 33.2376 209.596 33.0604C210.332 32.8832 211.068 32.802 211.804 32.8167C212.3 32.8159 212.716 32.8952 213.052 33.0547C213.389 33.2141 213.637 33.4217 213.797 33.6775C213.974 33.9332 214.062 34.197 214.063 34.469C214.063 34.757 213.984 34.9892 213.824 35.1654C213.68 35.3417 213.456 35.43 213.152 35.4305C213.008 35.4308 212.872 35.423 212.744 35.4072C212.632 35.3914 212.504 35.3836 212.36 35.3838C212.216 35.3681 212.024 35.3604 211.784 35.3608C210.888 35.3623 210.112 35.4915 209.457 35.7486C208.801 35.9897 208.314 36.3585 207.995 36.855C208.091 37.1428 208.331 37.3744 208.716 37.5498C209.1 37.7252 209.556 37.8764 210.084 38.0036C210.629 38.1307 211.189 38.2658 211.765 38.4088C212.357 38.5518 212.902 38.743 213.398 38.9821C213.91 39.2053 214.327 39.5086 214.648 39.8921C214.968 40.2756 215.129 40.7633 215.13 41.3553C215.131 42.0273 214.956 42.6116 214.605 43.1082C214.27 43.6047 213.798 44.0135 213.191 44.3345C212.599 44.6395 211.912 44.8646 211.128 45.0099C210.36 45.1711 209.536 45.2525 208.656 45.2539Z" fill="#6F7481"/>
<g opacity="0.5">
<path d="M30.5806 37.4953C30.1557 37.6715 29.7342 37.6731 29.316 37.5001C28.9087 37.3009 28.6207 36.9981 28.4522 36.5917C28.3756 36.4069 28.3305 36.2199 28.317 36.0307C28.3035 35.8414 28.3377 35.6107 28.4198 35.3385C28.6644 34.4143 29.0698 33.5643 29.6357 32.7883C30.2017 32.0124 30.7999 31.288 31.4303 30.6153C32.0791 29.9349 32.6595 29.272 33.1714 28.6267C33.6941 27.9553 34.0422 27.2806 34.2157 26.6024L35.0525 28.4639C33.5199 27.692 31.9732 27.1208 30.4123 26.7504C28.8438 26.3615 27.2572 26.1642 25.6526 26.1583C25.2142 26.1453 24.8397 26.0515 24.5292 25.8771C24.2372 25.6951 24.0185 25.4286 23.8729 25.0775C23.7044 24.6711 23.7105 24.268 23.8912 23.8683C24.0642 23.4502 24.3632 23.153 24.7881 22.9768C24.9359 22.9155 25.1006 22.8689 25.2822 22.8369C25.4823 22.7973 25.8015 22.784 26.24 22.797C27.8522 22.8214 29.5695 23.0728 31.3917 23.5513C33.214 24.0299 34.9644 24.7006 36.6429 25.5635C36.8335 25.6577 36.9871 25.7672 37.1038 25.892C37.2206 26.0168 37.3172 26.1716 37.3938 26.3564C37.4704 26.5411 37.5116 26.7189 37.5175 26.8897C37.5342 27.0343 37.5085 27.2073 37.4404 27.4088C37.2453 28.1392 36.8864 28.8401 36.3637 29.5115C35.841 30.1829 35.2645 30.855 34.6341 31.5278C33.996 32.182 33.4032 32.8933 32.8557 33.6616C32.3083 34.4299 31.8937 35.2838 31.6121 36.2233C31.5269 36.5401 31.4003 36.8091 31.2322 37.0303C31.0565 37.2331 30.8393 37.3881 30.5806 37.4953Z" fill="#6F7481" fill-opacity="0.5"/>
<path d="M33.5 27.5479C11.5 35.0127 1.5 46.0127 1.5 46.0127" stroke="#B7B9C0" stroke-width="3" stroke-linecap="round"/>
</g>
<g opacity="0.5">
<path d="M28.9262 94.8994C28.5327 94.7362 28.1424 94.7348 27.7552 94.895C27.3781 95.0794 27.1115 95.3598 26.9554 95.7361C26.8845 95.9072 26.8428 96.0803 26.8303 96.2556C26.8177 96.4308 26.8495 96.6444 26.9254 96.8964C27.1519 97.7522 27.5272 98.5392 28.0513 99.2577C28.5753 99.9762 29.1292 100.647 29.7129 101.27C30.3137 101.9 30.8511 102.514 31.325 103.111C31.809 103.733 32.1313 104.357 32.2919 104.985L33.0667 103.262C31.6477 103.977 30.2156 104.505 28.7704 104.848C27.318 105.208 25.849 105.391 24.3632 105.397C23.9573 105.409 23.6105 105.495 23.3231 105.657C23.0527 105.825 22.8502 106.072 22.7154 106.397C22.5594 106.774 22.565 107.147 22.7323 107.517C22.8925 107.904 23.1693 108.179 23.5628 108.342C23.6996 108.399 23.8521 108.442 24.0203 108.472C24.2055 108.509 24.5011 108.521 24.9071 108.509C26.3999 108.486 27.9899 108.253 29.6772 107.81C31.3645 107.367 32.9852 106.746 34.5393 105.947C34.7158 105.86 34.8581 105.759 34.9661 105.643C35.0742 105.528 35.1637 105.384 35.2346 105.213C35.3056 105.042 35.3437 104.878 35.3492 104.719C35.3646 104.585 35.3408 104.425 35.2778 104.239C35.0971 103.562 34.7648 102.913 34.2808 102.292C33.7969 101.67 33.263 101.048 32.6793 100.425C32.0885 99.8191 31.5397 99.1605 31.0328 98.4491C30.5258 97.7378 30.142 96.9471 29.8812 96.0772C29.8024 95.7839 29.6851 95.5348 29.5295 95.33C29.3668 95.1422 29.1657 94.9987 28.9262 94.8994Z" fill="#6F7481" fill-opacity="0.5"/>
<path d="M31.6294 104.11C11.2592 97.198 2 87.0129 2 87.0129" stroke="#B7B9C0" stroke-width="3" stroke-linecap="round"/>
</g>
<path d="M66.3895 101.43C66.0895 101.43 65.8313 101.323 65.6149 101.107C65.4106 100.892 65.194 100.532 64.9652 100.028C64.7484 99.5966 64.5496 99.0689 64.3686 98.4452C64.1875 97.8095 64.0304 97.1378 63.8972 96.43C63.7761 95.7222 63.679 95.0503 63.6059 94.4145C63.5207 93.6346 63.4416 92.9867 63.3688 92.4708C63.2959 91.955 63.2172 91.5471 63.1327 91.2472C63.0603 90.9473 62.9699 90.7375 62.8617 90.6177C62.7535 90.4858 62.6094 90.4201 62.4294 90.4204C62.1174 90.4209 61.7698 90.6615 61.3866 91.1421C61.0154 91.6227 60.6445 92.3073 60.2739 93.1959C59.9034 94.0845 59.5571 95.1531 59.2352 96.4016C58.9252 97.6501 58.6635 99.0426 58.45 100.579C58.4145 100.855 58.3368 101.065 58.2171 101.209C58.1093 101.341 57.9414 101.408 57.7134 101.408C57.3534 101.409 57.0772 101.283 56.8848 101.031C56.6924 100.768 56.5956 100.324 56.5946 99.7C56.5934 98.98 56.6523 98.2779 56.7711 97.5937C56.902 96.9095 57.0509 96.2372 57.2178 95.5769C57.3967 94.9046 57.5516 94.2324 57.6825 93.5602C57.8254 92.8759 57.9083 92.1918 57.9312 91.5078C57.9428 91.3037 57.9966 91.1417 58.0924 91.0215C58.2002 90.9013 58.3561 90.8411 58.5601 90.8407C58.7521 90.8404 58.9442 90.8941 59.1363 91.0018C59.3285 91.0975 59.5028 91.2652 59.6592 91.5049L58.8495 91.7403C59.3758 90.6834 59.9385 89.8785 60.5376 89.3255C61.1367 88.7605 61.7842 88.4774 62.4802 88.4763C63.2242 88.4751 63.7885 88.6841 64.1732 89.1035C64.5699 89.5109 64.8649 90.1464 65.0584 91.0101C65.2638 91.8737 65.4396 93.0014 65.5859 94.3932C65.6955 95.341 65.8348 96.1628 66.004 96.8585C66.1851 97.5422 66.36 98.1239 66.5288 98.6037C66.7096 99.0714 66.8602 99.4731 66.9808 99.8089C67.1013 100.133 67.1618 100.421 67.1622 100.673C67.1626 100.913 67.0969 101.099 66.9651 101.231C66.8333 101.363 66.6415 101.429 66.3895 101.43ZM56.7539 98.0257C56.3819 98.0263 56.1057 97.9488 55.9255 97.7931C55.7572 97.6373 55.6729 97.4335 55.6725 97.1815C55.6722 97.0015 55.7259 96.8514 55.8337 96.7312C55.9535 96.599 56.1453 96.4847 56.4092 96.3883C57.7044 95.9421 59.1859 95.6037 60.8535 95.373C62.5211 95.1302 64.3389 95.0073 66.3069 95.004C66.8229 95.0032 67.171 95.0806 67.3513 95.2363C67.5435 95.392 67.6399 95.6078 67.6404 95.8838C67.6409 96.1958 67.5033 96.4541 67.2276 96.6585C66.952 96.863 66.5621 96.9656 66.0581 96.9664C64.8461 96.9684 63.7962 97.0061 62.9083 97.0796C62.0324 97.141 61.2765 97.2263 60.6407 97.3353C60.0169 97.4323 59.4771 97.5352 59.0212 97.644C58.5654 97.7527 58.1576 97.8434 57.7977 97.916C57.4498 97.9886 57.1019 98.0251 56.7539 98.0257ZM73.4858 101.472C72.5258 101.474 71.7514 101.253 71.1627 100.81C70.5739 100.355 70.1469 99.7257 69.8816 98.9222C69.6282 98.1066 69.5007 97.1648 69.4989 96.0968C69.4979 95.4608 69.527 94.8967 69.5862 94.4046C69.6573 93.9005 69.7285 93.4204 69.7998 92.9643C69.883 92.5082 69.9423 92.0401 69.9775 91.56C70.0126 91.0079 70.0299 90.5639 70.0293 90.2279C70.0287 89.8919 70.0402 89.5739 70.0637 89.2739C70.0754 89.0578 70.1411 88.8717 70.2608 88.7155C70.3925 88.5473 70.6084 88.463 70.9084 88.4625C71.3404 88.4618 71.6468 88.6833 71.8275 89.127C72.0082 89.5707 72.0634 90.2666 71.9929 91.2147C71.9456 91.6468 71.8923 92.0489 71.8329 92.421C71.7735 92.7811 71.7141 93.1412 71.6547 93.5012C71.6072 93.8493 71.5659 94.2274 71.5305 94.6355C71.4952 95.0315 71.4779 95.4875 71.4788 96.0035C71.4802 96.8795 71.5594 97.5754 71.7162 98.0912C71.885 98.6069 72.1257 98.9785 72.438 99.206C72.7624 99.4214 73.1646 99.5288 73.6446 99.528C73.9326 99.5275 74.1545 99.4972 74.3104 99.4369C74.4783 99.3766 74.6222 99.3224 74.7421 99.2742C74.862 99.214 75 99.1838 75.156 99.1835C75.372 99.1832 75.5341 99.2489 75.6423 99.3807C75.7505 99.5125 75.8048 99.6985 75.8052 99.9385C75.8059 100.346 75.6145 100.707 75.231 101.019C74.8595 101.32 74.2778 101.471 73.4858 101.472ZM71.3867 94.7077C71.0029 94.8763 70.7089 94.8828 70.5047 94.7271C70.3004 94.5715 70.1981 94.3496 70.1976 94.0616C70.1971 93.7736 70.2567 93.5215 70.3763 93.3053C70.508 93.0771 70.8256 92.8726 71.3293 92.6918C71.6411 92.5713 71.971 92.4687 72.3188 92.3842C72.6667 92.2996 73.0206 92.233 73.3805 92.1844C73.7524 92.1358 74.1004 92.1112 74.4244 92.1107C74.7364 92.1102 74.9885 92.1518 75.1806 92.2355C75.3727 92.3191 75.5169 92.4389 75.6132 92.5948C75.7094 92.7386 75.7577 92.9185 75.7581 93.1345C75.7585 93.3625 75.6867 93.5366 75.5429 93.6569C75.4111 93.7771 75.2132 93.8494 74.9493 93.8738C74.4333 93.9107 73.9714 93.9654 73.5636 94.0381C73.1677 94.1108 72.7958 94.2014 72.448 94.3099C72.1122 94.4185 71.7584 94.5511 71.3867 94.7077ZM78.8587 101.427C78.5947 101.428 78.3846 101.368 78.2284 101.248C78.0722 101.129 77.9519 100.961 77.8676 100.745C77.7952 100.517 77.7588 100.253 77.7583 99.9532C77.7568 99.0652 77.7496 98.3153 77.7366 97.7033C77.7356 97.0793 77.7287 96.5393 77.7159 96.0833C77.7152 95.6273 77.7085 95.2013 77.6958 94.8053C77.6952 94.4093 77.6945 93.9893 77.6938 93.5453C77.6933 93.2813 77.7349 93.0473 77.8186 92.8431C77.9022 92.627 78.028 92.4588 78.1958 92.3385C78.3756 92.2182 78.6035 92.1578 78.8795 92.1574C79.2035 92.1569 79.4617 92.2644 79.654 92.4801C79.8463 92.6838 79.9489 93.0016 79.9616 93.4336C79.962 93.6856 79.9566 94.0456 79.9453 94.5136C79.9461 94.9816 79.935 95.4977 79.9119 96.0617C79.9008 96.6137 79.8837 97.1778 79.8607 97.7538C79.8496 98.3178 79.8384 98.8338 79.8272 99.3019C79.816 99.7699 79.8106 100.148 79.8111 100.436C79.8115 100.712 79.7339 100.946 79.5782 101.138C79.4225 101.331 79.1827 101.427 78.8587 101.427ZM79.0031 90.7352C78.5111 90.736 78.1029 90.5987 77.7785 90.3232C77.454 90.0357 77.2914 89.694 77.2908 89.298C77.2902 88.914 77.4217 88.6078 77.6853 88.3793C77.9489 88.1509 78.2847 88.0364 78.6927 88.0357C79.0287 88.0351 79.3168 88.1127 79.5571 88.2683C79.7974 88.4239 79.9777 88.6216 80.0981 88.8614C80.2305 89.1012 80.2969 89.3411 80.2973 89.5811C80.2977 89.8571 80.1961 90.1212 79.9926 90.3736C79.8009 90.6139 79.4711 90.7344 79.0031 90.7352ZM86.334 101.397C86.07 101.398 85.8359 101.32 85.6316 101.164C85.4394 101.009 85.229 100.769 85.0004 100.445C84.832 100.17 84.6454 99.7979 84.4406 99.3303C84.2358 98.8626 84.031 98.365 83.8261 97.8373C83.6333 97.2976 83.4404 96.7939 83.2477 96.3262C83.0066 95.6906 82.7958 95.187 82.6152 94.8153C82.4346 94.4436 82.2781 94.1498 82.1457 93.934C82.0254 93.7062 81.9351 93.5144 81.8748 93.3585C81.8145 93.1906 81.7842 93.0046 81.7839 92.8006C81.7836 92.6086 81.8433 92.4465 81.9631 92.3143C82.0948 92.1701 82.3107 92.0978 82.6107 92.0973C82.9587 92.0967 83.2529 92.1982 83.4932 92.4018C83.7335 92.5934 83.938 92.8571 84.1065 93.1928C84.2871 93.5285 84.4557 93.9062 84.6124 94.326C84.8172 94.8297 85.0161 95.3693 85.209 95.945C85.414 96.5207 85.6249 97.0843 85.8418 97.636C86.0707 98.1756 86.3115 98.6732 86.5643 99.1288L85.9162 99.0939C86.2272 98.4574 86.5022 97.8449 86.7412 97.2565C86.9802 96.6681 87.2193 96.1037 87.4584 95.5633C87.6975 95.0229 87.9547 94.5065 88.2299 94.0141C88.5051 93.5216 88.8343 93.0471 89.2175 92.5904C89.3733 92.4222 89.5231 92.2959 89.6669 92.2117C89.8108 92.1275 89.9847 92.0852 90.1887 92.0848C90.3567 92.0846 90.5068 92.1323 90.639 92.2281C90.7711 92.3239 90.8733 92.4437 90.9455 92.5876C91.0178 92.7195 91.054 92.8694 91.0543 93.0374C91.0546 93.2174 91.0249 93.3855 90.9651 93.5416C90.9174 93.6976 90.8456 93.8418 90.7498 93.9739C90.3307 94.5146 89.9716 95.0372 89.6724 95.5417C89.3852 96.0462 89.1221 96.5566 88.8829 97.073C88.6557 97.5774 88.4166 98.1238 88.1656 98.7122C87.9145 99.2886 87.6276 99.9371 87.3048 100.658C87.1732 100.934 87.0355 101.126 86.8917 101.234C86.7599 101.342 86.574 101.397 86.334 101.397ZM93.9759 101.403C93.7119 101.403 93.5018 101.343 93.3456 101.224C93.1894 101.104 93.0691 100.936 92.9847 100.72C92.9124 100.492 92.8759 100.228 92.8754 99.9284C92.874 99.0404 92.8667 98.2905 92.8537 97.6785C92.8527 97.0545 92.8458 96.5145 92.8331 96.0585C92.8323 95.6025 92.8256 95.1765 92.813 94.7805C92.8123 94.3845 92.8117 93.9645 92.8109 93.5205C92.8105 93.2565 92.8521 93.0225 92.9358 92.8183C93.0194 92.6022 93.1451 92.434 93.3129 92.3137C93.4927 92.1934 93.7206 92.133 93.9966 92.1326C94.3206 92.1321 94.5788 92.2396 94.7712 92.4553C94.9635 92.659 95.066 92.9768 95.0787 93.4088C95.0792 93.6608 95.0737 94.0208 95.0625 94.4888C95.0633 94.9568 95.0521 95.4729 95.0291 96.0369C95.018 96.5889 95.0009 97.153 94.9778 97.729C94.9668 98.293 94.9556 98.809 94.9444 99.2771C94.9331 99.7451 94.9278 100.123 94.9282 100.411C94.9287 100.687 94.8511 100.921 94.6954 101.113C94.5397 101.306 94.2999 101.402 93.9759 101.403ZM94.1203 90.7104C93.6283 90.7112 93.2201 90.5739 92.8956 90.2984C92.5712 90.0109 92.4086 89.6692 92.408 89.2732C92.4073 88.8892 92.5388 88.583 92.8024 88.3545C93.0661 88.1261 93.4019 88.0116 93.8099 88.0109C94.1459 88.0103 94.434 88.0879 94.6743 88.2435C94.9145 88.3991 95.0949 88.5968 95.2152 88.8366C95.3476 89.0764 95.414 89.3163 95.4144 89.5563C95.4149 89.8323 95.3133 90.0964 95.1097 90.3488C94.9181 90.5891 94.5883 90.7096 94.1203 90.7104ZM101.431 101.354C100.831 101.355 100.279 101.218 99.7748 100.943C99.2703 100.668 98.8377 100.291 98.4769 99.8113C98.1161 99.3318 97.8332 98.7803 97.6282 98.1566C97.4352 97.533 97.3381 96.8731 97.3369 96.1771C97.3356 95.3491 97.5024 94.6288 97.8374 94.0163C98.1844 93.3917 98.6636 92.9109 99.275 92.5739C99.8985 92.2249 100.618 92.0497 101.434 92.0484C102.046 92.0474 102.574 92.1365 103.019 92.3158C103.463 92.4831 103.805 92.7225 104.046 93.0341C104.286 93.3337 104.407 93.6935 104.408 94.1135C104.408 94.2935 104.36 94.4436 104.264 94.5638C104.18 94.6719 104.073 94.7261 103.941 94.7263C103.797 94.7265 103.671 94.6907 103.562 94.6189C103.454 94.5471 103.334 94.4633 103.202 94.3675C103.07 94.2717 102.89 94.188 102.662 94.1164C102.445 94.0447 102.145 94.0092 101.761 94.0099C101.005 94.0111 100.418 94.2041 99.9983 94.5888C99.579 94.9734 99.3698 95.5018 99.3709 96.1738C99.3719 96.7498 99.4688 97.2836 99.6616 97.7753C99.8544 98.255 100.101 98.6446 100.401 98.9441C100.702 99.2436 101.008 99.3931 101.32 99.3926C101.944 99.3916 102.496 98.9767 102.974 98.1479C103.453 97.3071 103.829 96.0885 104.102 94.492C104.388 92.8955 104.528 90.9573 104.525 88.6773C104.524 88.2573 104.601 87.9572 104.757 87.7769C104.925 87.5967 105.141 87.5063 105.405 87.5059C105.777 87.5053 106.065 87.6788 106.27 88.0265C106.486 88.3621 106.583 88.8539 106.56 89.502C106.537 90.354 106.491 91.1101 106.42 91.7702C106.361 92.4303 106.296 93.0724 106.225 93.6965C106.166 94.3086 106.137 94.9927 106.138 95.7487C106.139 96.5047 106.189 97.1226 106.285 97.6024C106.382 98.0823 106.503 98.4661 106.647 98.7539C106.792 99.0416 106.93 99.2754 107.062 99.4552C107.207 99.6229 107.327 99.7787 107.423 99.9226C107.531 100.066 107.586 100.24 107.586 100.444C107.586 100.72 107.497 100.954 107.317 101.147C107.137 101.327 106.88 101.417 106.544 101.418C106.232 101.419 105.937 101.287 105.661 101.023C105.384 100.76 105.138 100.4 104.921 99.9447C104.716 99.489 104.56 98.9733 104.451 98.3975C104.342 97.8096 104.293 97.1977 104.304 96.5617L105.365 96.254C105.115 97.4904 104.775 98.4869 104.344 99.2436C103.925 99.9883 103.458 100.529 102.943 100.866C102.439 101.191 101.935 101.354 101.431 101.354ZM111.859 101.355C111.295 101.356 110.797 101.237 110.365 100.998C109.944 100.746 109.62 100.399 109.391 99.9554C109.162 99.5117 109.047 98.9899 109.046 98.3899C109.045 97.8019 109.134 97.2078 109.313 96.6075C109.504 95.9952 109.767 95.4187 110.103 94.8782C110.438 94.3376 110.833 93.857 111.288 93.4362C111.744 93.0035 112.241 92.6667 112.781 92.4258C113.32 92.1729 113.89 92.046 114.49 92.045C114.814 92.0444 115.09 92.14 115.318 92.3316C115.547 92.5232 115.661 92.8051 115.662 93.1771C115.662 93.3331 115.614 93.4651 115.518 93.5733C115.423 93.6814 115.285 93.7477 115.105 93.772C114.289 93.8813 113.569 94.1765 112.946 94.6575C112.335 95.1385 111.856 95.7153 111.509 96.3879C111.174 97.0604 111.007 97.7627 111.009 98.4947C111.009 98.7947 111.033 99.0707 111.082 99.3226C111.13 99.5625 111.239 99.8743 111.407 100.258L110.379 98.8197C110.656 99.0833 110.89 99.2569 111.082 99.3406C111.286 99.4122 111.55 99.4478 111.874 99.4473C112.582 99.4461 113.223 99.0191 113.798 98.1661C114.385 97.3012 114.809 96.0405 115.07 94.384C115.105 94.132 115.201 93.9398 115.357 93.8076C115.513 93.6633 115.704 93.591 115.932 93.5906C116.28 93.59 116.575 93.7096 116.815 93.9492C117.055 94.1768 117.218 94.4705 117.303 94.8304C117.436 95.4781 117.575 96.0659 117.719 96.5937C117.864 97.1094 118.057 97.6071 118.298 98.0867C118.539 98.5543 118.869 99.0458 119.29 99.5611C119.411 99.6929 119.477 99.8608 119.489 100.065C119.501 100.257 119.472 100.449 119.4 100.641C119.328 100.821 119.215 100.977 119.059 101.109C118.915 101.23 118.741 101.29 118.537 101.29C118.357 101.291 118.207 101.255 118.087 101.183C117.979 101.111 117.877 101.015 117.78 100.896C117.54 100.584 117.317 100.272 117.113 99.9607C116.908 99.637 116.716 99.2833 116.535 98.8996C116.367 98.5039 116.216 98.0482 116.083 97.5324C115.962 97.0046 115.859 96.3867 115.774 95.6789L116.476 95.6417C116.298 96.698 116.041 97.5924 115.706 98.325C115.383 99.0575 115.012 99.6461 114.593 100.091C114.174 100.536 113.73 100.86 113.263 101.065C112.795 101.258 112.327 101.355 111.859 101.355ZM124.635 101.316C124.035 101.317 123.482 101.18 122.978 100.905C122.473 100.63 122.041 100.253 121.68 99.7732C121.319 99.2938 121.036 98.7422 120.831 98.1186C120.638 97.4949 120.541 96.8351 120.54 96.1391C120.539 95.3111 120.706 94.5908 121.041 93.9782C121.387 93.3537 121.867 92.8729 122.478 92.5359C123.102 92.1868 123.821 92.0117 124.637 92.0103C125.249 92.0093 125.777 92.0985 126.222 92.2777C126.666 92.445 127.008 92.6844 127.249 92.996C127.489 93.2956 127.61 93.6555 127.611 94.0755C127.611 94.2555 127.563 94.4055 127.467 94.5257C127.384 94.6338 127.276 94.688 127.144 94.6882C127 94.6885 126.874 94.6527 126.765 94.5808C126.657 94.509 126.537 94.4252 126.405 94.3294C126.273 94.2336 126.093 94.1499 125.865 94.0783C125.649 94.0067 125.348 93.9712 124.964 93.9718C124.208 93.973 123.621 94.166 123.201 94.5507C122.782 94.9354 122.573 95.4637 122.574 96.1357C122.575 96.7117 122.672 97.2456 122.865 97.7372C123.057 98.2169 123.304 98.6065 123.605 98.906C123.905 99.2055 124.211 99.355 124.523 99.3545C125.147 99.3535 125.699 98.9386 126.177 98.1098C126.656 97.269 127.032 96.0504 127.305 94.454C127.591 92.8575 127.731 90.9192 127.728 88.6393C127.727 88.2193 127.805 87.9191 127.96 87.7389C128.128 87.5586 128.344 87.4682 128.608 87.4678C128.98 87.4672 129.268 87.6407 129.473 87.9884C129.689 88.324 129.786 88.8159 129.763 89.4639C129.741 90.316 129.694 91.072 129.623 91.7321C129.564 92.3922 129.499 93.0344 129.428 93.6585C129.369 94.2706 129.34 94.9546 129.341 95.7106C129.343 96.4666 129.392 97.0845 129.488 97.5644C129.585 98.0442 129.706 98.428 129.85 98.7158C129.995 99.0035 130.133 99.2373 130.265 99.4171C130.41 99.5849 130.53 99.7407 130.626 99.8845C130.734 100.028 130.789 100.202 130.789 100.406C130.789 100.586 130.748 100.754 130.664 100.91C130.58 101.055 130.46 101.169 130.304 101.253C130.161 101.337 129.975 101.38 129.747 101.38C129.435 101.38 129.14 101.249 128.864 100.985C128.588 100.722 128.341 100.362 128.124 99.9066C127.919 99.451 127.763 98.9352 127.654 98.3594C127.545 97.7716 127.496 97.1596 127.507 96.5236L128.568 96.2159C128.318 97.4523 127.978 98.4489 127.547 99.2056C127.128 99.9503 126.661 100.491 126.146 100.828C125.642 101.153 125.139 101.316 124.635 101.316ZM136.237 101.315C135.289 101.317 134.508 101.15 133.896 100.815C133.295 100.468 132.85 100.001 132.561 99.4133C132.272 98.8138 132.127 98.13 132.126 97.362C132.125 96.7381 132.238 96.1139 132.465 95.4895C132.704 94.8531 133.039 94.2765 133.47 93.7598C133.901 93.2311 134.417 92.8103 135.016 92.4973C135.628 92.1723 136.305 92.0092 137.049 92.008C137.961 92.0065 138.694 92.2453 139.246 92.7244C139.799 93.1915 140.076 93.899 140.078 94.847C140.079 95.507 139.882 96.0593 139.487 96.504C139.091 96.9486 138.552 97.2855 137.868 97.5146C137.185 97.7438 136.423 97.859 135.583 97.8604C134.887 97.8615 134.383 97.7603 134.07 97.5569C133.77 97.3414 133.62 97.1016 133.619 96.8376C133.619 96.6936 133.655 96.5855 133.727 96.5134C133.799 96.4293 133.924 96.3871 134.104 96.3868C134.236 96.3866 134.398 96.4103 134.591 96.458C134.783 96.4937 135.053 96.5112 135.401 96.5107C135.941 96.5098 136.421 96.443 136.84 96.3103C137.26 96.1656 137.596 95.9731 137.847 95.7327C138.099 95.4802 138.225 95.198 138.224 94.886C138.223 94.526 138.133 94.2562 137.953 94.0765C137.772 93.8968 137.472 93.8073 137.052 93.808C136.476 93.8089 135.961 93.9898 135.505 94.3505C135.062 94.7112 134.708 95.1858 134.445 95.7742C134.194 96.3507 134.069 96.9689 134.07 97.6289C134.071 98.0009 134.138 98.3368 134.27 98.6365C134.403 98.9363 134.613 99.17 134.901 99.3375C135.202 99.505 135.604 99.5883 136.108 99.5875C136.78 99.5864 137.338 99.5135 137.781 99.3688C138.225 99.224 138.597 99.0614 138.897 98.8809C139.196 98.6885 139.448 98.52 139.652 98.3757C139.867 98.2314 140.071 98.159 140.263 98.1587C140.443 98.1584 140.569 98.2182 140.642 98.3381C140.726 98.4459 140.768 98.6199 140.769 98.8599C140.769 99.1239 140.649 99.4001 140.41 99.6885C140.182 99.9768 139.859 100.241 139.439 100.482C139.032 100.723 138.552 100.922 138 101.078C137.46 101.235 136.873 101.314 136.237 101.315ZM144.847 101.301C144.235 101.302 143.731 101.225 143.335 101.07C142.938 100.914 142.644 100.717 142.452 100.477C142.271 100.237 142.181 99.9796 142.18 99.7036C142.18 99.4996 142.24 99.3315 142.36 99.1993C142.491 99.067 142.677 99.0007 142.917 99.0003C143.049 99.0001 143.163 99.0239 143.259 99.0718C143.367 99.1196 143.482 99.1734 143.602 99.2332C143.734 99.293 143.89 99.3468 144.07 99.3945C144.262 99.4421 144.508 99.4657 144.808 99.4652C145.552 99.464 146.182 99.379 146.698 99.2101C147.225 99.0293 147.591 98.7527 147.794 98.3803C147.698 98.1405 147.506 97.9548 147.217 97.8233C146.929 97.6918 146.587 97.5783 146.191 97.483C145.795 97.3876 145.38 97.2863 144.948 97.179C144.528 97.0597 144.132 96.9164 143.76 96.749C143.399 96.5696 143.105 96.336 142.876 96.0484C142.648 95.7608 142.533 95.389 142.533 94.933C142.532 94.465 142.669 94.0447 142.944 93.6723C143.22 93.2998 143.585 92.9872 144.041 92.7345C144.497 92.4817 145 92.2889 145.552 92.156C146.104 92.0231 146.656 91.9622 147.208 91.9733C147.58 91.9727 147.892 92.0322 148.144 92.1518C148.396 92.2713 148.582 92.427 148.703 92.6188C148.835 92.8106 148.901 93.0085 148.902 93.2125C148.902 93.4285 148.842 93.6026 148.723 93.7348C148.615 93.867 148.447 93.9333 148.219 93.9336C148.111 93.9338 148.009 93.928 147.913 93.9161C147.829 93.9043 147.733 93.8984 147.625 93.8986C147.517 93.8868 147.373 93.881 147.193 93.8813C146.521 93.8824 145.939 93.9794 145.447 94.1722C144.956 94.353 144.59 94.6296 144.351 95.002C144.423 95.2179 144.603 95.3916 144.892 95.5231C145.18 95.6546 145.522 95.7681 145.918 95.8634C146.326 95.9588 146.746 96.0601 147.179 96.1674C147.623 96.2746 148.031 96.418 148.403 96.5973C148.788 96.7647 149.1 96.9922 149.34 97.2798C149.581 97.5674 149.701 97.9332 149.702 98.3772C149.703 99.0492 149.482 99.6016 149.039 100.034C148.596 100.467 148.008 100.786 147.276 100.991C146.545 101.196 145.735 101.3 144.847 101.301Z" fill="#6F7481" fill-opacity="0.5"/>
<path d="M57.3071 113.417C56.7951 113.418 56.4109 113.298 56.1545 113.059C55.9141 112.819 55.7936 112.523 55.7931 112.171C55.7926 111.867 55.9041 111.603 56.1278 111.379C56.3514 111.138 56.6951 110.986 57.159 110.921C57.9748 110.792 58.8786 110.686 59.8705 110.605C60.8623 110.507 61.8702 110.433 62.8941 110.384C63.918 110.318 64.894 110.284 65.822 110.283C66.478 110.282 66.9341 110.361 67.1904 110.521C67.4626 110.664 67.599 110.928 67.5997 111.312C67.6005 111.824 67.3532 112.224 66.8576 112.513C66.3781 112.802 65.7223 112.947 64.8903 112.948C63.9463 112.95 63.1224 112.967 62.4184 113C61.7145 113.034 61.1145 113.075 60.6186 113.123C60.1227 113.172 59.6828 113.221 59.2989 113.27C58.9309 113.318 58.587 113.359 58.2671 113.391C57.9631 113.408 57.6431 113.416 57.3071 113.417ZM61.959 125.529C61.463 125.53 61.0627 125.363 60.7582 125.027C60.4536 124.692 60.3009 124.244 60.3 123.684C60.2979 122.42 60.3278 121.18 60.3898 119.964C60.4519 118.748 60.514 117.588 60.5761 116.483C60.6383 115.363 60.6686 114.347 60.6671 113.435C60.6664 112.987 60.7379 112.651 60.8815 112.427C61.0251 112.187 61.2889 112.066 61.6729 112.066C62.1209 112.065 62.5052 112.248 62.8258 112.616C63.1464 112.967 63.3071 113.407 63.308 113.935C63.309 114.591 63.2784 115.447 63.2162 116.503C63.1539 117.543 63.0838 118.735 63.006 120.079C62.9442 121.424 62.9146 122.88 62.9172 124.448C62.9184 125.168 62.599 125.528 61.959 125.529ZM57.9063 127.528C57.1703 127.529 56.634 127.402 56.2976 127.146C55.9772 126.875 55.8166 126.539 55.816 126.139C55.8155 125.851 55.8951 125.619 56.0548 125.443C56.2145 125.251 56.4783 125.138 56.8463 125.106C57.6301 125.008 58.374 124.935 59.0779 124.886C59.7818 124.837 60.4778 124.804 61.1658 124.787C61.8697 124.769 62.5897 124.76 63.3257 124.759C64.0777 124.742 64.8937 124.732 65.7737 124.731C66.2857 124.73 66.6698 124.777 66.9259 124.873C67.1981 124.969 67.3823 125.096 67.4785 125.256C67.5908 125.4 67.6471 125.584 67.6474 125.808C67.6481 126.192 67.4646 126.528 67.0971 126.817C66.7456 127.105 66.1538 127.25 65.3218 127.252C64.2018 127.254 63.1538 127.271 62.1779 127.305C61.202 127.354 60.3461 127.404 59.6101 127.453C58.8902 127.502 58.3223 127.527 57.9063 127.528ZM80.8327 127.442C80.2887 127.443 79.8083 127.212 79.3916 126.749C78.9908 126.269 78.6776 125.526 78.4519 124.518C78.2262 123.495 78.1121 122.167 78.1094 120.535C78.1083 119.895 78.0915 119.383 78.0589 118.999C78.0422 118.599 77.9937 118.279 77.9133 118.039C77.8489 117.799 77.7526 117.607 77.6243 117.463C77.5121 117.304 77.3598 117.144 77.1676 116.984C77.5195 116.968 77.8156 117.007 78.0557 117.103C78.2959 117.182 78.4801 117.334 78.6085 117.558C78.7368 117.766 78.7933 118.078 78.778 118.494C78.5375 118.142 78.3371 117.91 78.1769 117.799C78.0167 117.687 77.8246 117.631 77.6006 117.632C77.2806 117.632 76.9129 117.825 76.4976 118.209C76.0982 118.594 75.6751 119.147 75.2283 119.867C74.7974 120.572 74.3748 121.421 73.9605 122.414C73.5461 123.39 73.1718 124.463 72.8377 125.631C72.6629 126.32 72.4636 126.8 72.2401 127.072C72.0165 127.329 71.7127 127.457 71.3287 127.458C70.6727 127.459 70.1841 127.1 69.863 126.38C69.5418 125.661 69.3803 124.741 69.3784 123.621C69.3771 122.821 69.408 122.125 69.471 121.533C69.55 120.925 69.6291 120.365 69.7082 119.852C69.8034 119.324 69.8825 118.788 69.9456 118.244C70.0247 117.684 70.0636 117.052 70.0625 116.348C70.0619 115.964 70.1494 115.676 70.3251 115.483C70.5167 115.275 70.7966 115.171 71.1646 115.17C71.5806 115.169 71.9008 115.313 72.1253 115.601C72.3657 115.888 72.4865 116.36 72.4876 117.016C72.4884 117.512 72.4492 117.992 72.37 118.456C72.2907 118.904 72.2035 119.392 72.1084 119.921C72.0292 120.433 71.9582 121.041 71.8954 121.745C71.8325 122.449 71.8179 123.297 71.8515 124.289L71.2748 123.858C71.8157 121.937 72.445 120.328 73.1629 119.031C73.8807 117.718 74.6391 116.732 75.4381 116.075C76.237 115.402 77.0204 115.064 77.7884 115.063C78.4124 115.062 78.9246 115.213 79.3251 115.517C79.7416 115.804 80.0543 116.228 80.2632 116.787C80.4721 117.331 80.5772 117.987 80.5785 118.755C80.5804 119.955 80.5981 120.987 80.6315 121.851C80.6649 122.699 80.7541 123.394 80.899 123.938C81.0599 124.482 81.3005 124.897 81.621 125.185C81.8133 125.345 81.9495 125.512 82.0298 125.688C82.1101 125.864 82.1505 126.08 82.1509 126.336C82.1514 126.624 82.0398 126.88 81.8162 127.105C81.6085 127.329 81.2807 127.442 80.8327 127.442ZM86.4477 127.481C85.9677 127.482 85.5834 127.306 85.2948 126.955C85.0062 126.587 84.8613 126.052 84.8602 125.348C84.8586 124.388 84.8332 123.564 84.7841 122.876C84.7349 122.172 84.6779 121.524 84.6129 120.932C84.5479 120.324 84.4829 119.7 84.4178 119.06C84.3688 118.404 84.3435 117.66 84.3422 116.828C84.3402 115.596 84.5064 114.5 84.8408 113.54C85.1752 112.563 85.6298 111.738 86.2047 111.065C86.7956 110.376 87.4667 109.855 88.2182 109.502C88.9696 109.149 89.7533 108.972 90.5693 108.97C90.9213 108.97 91.2495 109.065 91.5538 109.257C91.8741 109.448 92.0346 109.76 92.0353 110.192C92.0358 110.464 91.9561 110.696 91.7964 110.888C91.6528 111.08 91.421 111.225 91.1012 111.321C90.2055 111.547 89.486 111.844 88.9426 112.213C88.3992 112.566 87.9839 113.006 87.6968 113.535C87.4096 114.063 87.2187 114.68 87.1238 115.384C87.0289 116.072 86.9822 116.864 86.9837 117.76C86.9849 118.48 87.0261 119.224 87.1074 119.992C87.2046 120.744 87.302 121.584 87.3995 122.511C87.497 123.439 87.5468 124.535 87.5489 125.799C87.55 126.455 87.4627 126.903 87.2871 127.144C87.1115 127.368 86.8317 127.48 86.4477 127.481ZM86.2403 118.145C85.9363 118.146 85.6802 118.066 85.472 117.907C85.2797 117.747 85.1833 117.531 85.1829 117.259C85.1823 116.891 85.2857 116.555 85.4932 116.251C85.7007 115.946 86.0124 115.73 86.4282 115.601C87.0039 115.456 87.5557 115.343 88.0836 115.262C88.6275 115.181 89.1714 115.141 89.7154 115.14C90.0514 115.139 90.3395 115.203 90.5797 115.33C90.8199 115.442 90.9962 115.602 91.1085 115.809C91.2209 116.017 91.2773 116.265 91.2777 116.553C91.2781 116.793 91.1985 117.001 91.0388 117.177C90.895 117.338 90.6472 117.426 90.2952 117.443C89.3993 117.476 88.6954 117.557 88.1836 117.686C87.6718 117.799 87.2719 117.904 86.9841 118C86.7123 118.097 86.4643 118.145 86.2403 118.145ZM98.7336 127.485C97.4696 127.487 96.3412 127.225 95.3483 126.698C94.3554 126.156 93.5702 125.421 92.9927 124.494C92.4312 123.551 92.1494 122.472 92.1474 121.256C92.146 120.392 92.3127 119.591 92.6475 118.855C92.9822 118.118 93.4052 117.478 93.9163 116.933C94.4434 116.372 94.9867 115.939 95.5462 115.634C96.1217 115.329 96.6334 115.176 97.0814 115.176C97.2894 115.175 97.4735 115.207 97.6336 115.271C97.8097 115.334 97.9458 115.43 98.0421 115.558C98.1383 115.686 98.1866 115.862 98.1869 116.086C98.1876 116.502 98.1002 116.87 97.9247 117.19C97.7652 117.494 97.4297 117.759 96.918 117.984C96.4545 118.241 96.0629 118.537 95.7435 118.874C95.44 119.194 95.2086 119.555 95.0493 119.955C94.8899 120.339 94.8106 120.763 94.8114 121.227C94.8133 122.395 95.1588 123.331 95.848 124.034C96.5371 124.736 97.4737 125.087 98.6577 125.085C99.6497 125.083 100.449 124.722 101.056 124.001C101.663 123.264 101.965 122.296 101.963 121.096C101.961 120.008 101.696 119.152 101.167 118.529C100.638 117.89 99.9334 117.571 99.0534 117.572C98.5894 117.573 98.2135 117.67 97.9258 117.862C97.6382 118.055 97.3346 118.311 97.0151 118.632C96.7755 118.872 96.5838 119.08 96.4401 119.257C96.2964 119.433 96.1526 119.569 96.0088 119.665C95.8809 119.762 95.705 119.81 95.481 119.81C95.225 119.811 95.0169 119.731 94.8566 119.571C94.6963 119.395 94.6158 119.092 94.6151 118.66C94.6145 118.276 94.7339 117.875 94.9732 117.459C95.2125 117.043 95.5239 116.658 95.9073 116.305C96.3067 115.953 96.7542 115.672 97.2499 115.463C97.7455 115.238 98.2493 115.126 98.7613 115.125C99.9773 115.123 101.018 115.369 101.883 115.864C102.747 116.342 103.412 117.029 103.878 117.924C104.343 118.82 104.577 119.875 104.579 121.091C104.581 122.291 104.327 123.38 103.816 124.357C103.306 125.317 102.611 126.079 101.732 126.64C100.853 127.201 99.8536 127.483 98.7336 127.485ZM109.516 127.467C109.228 127.468 108.972 127.38 108.748 127.204C108.54 127.029 108.371 126.789 108.243 126.485C108.13 126.165 108.074 125.806 108.073 125.406C108.071 124.334 108.046 123.318 107.996 122.358C107.962 121.398 107.897 120.518 107.8 119.718C107.702 118.918 107.573 118.246 107.412 117.703C107.284 117.319 107.195 117.031 107.147 116.839C107.115 116.631 107.098 116.415 107.098 116.191C107.097 115.903 107.185 115.663 107.361 115.471C107.536 115.278 107.816 115.182 108.2 115.181C108.536 115.181 108.84 115.3 109.113 115.54C109.385 115.779 109.618 116.195 109.811 116.787C110.004 117.362 110.149 118.162 110.247 119.186C110.36 120.21 110.411 121.514 110.397 123.098L109.413 122.691C109.586 121.315 109.88 120.139 110.295 119.162C110.725 118.185 111.22 117.392 111.779 116.783C112.354 116.175 112.953 115.726 113.577 115.437C114.2 115.147 114.816 115.002 115.424 115.001C115.92 115.001 116.264 115.128 116.457 115.384C116.665 115.623 116.769 115.927 116.77 116.295C116.771 116.583 116.675 116.847 116.483 117.088C116.308 117.312 115.996 117.505 115.548 117.665C114.717 117.923 114.021 118.292 113.462 118.773C112.903 119.254 112.448 119.83 112.097 120.503C111.762 121.175 111.499 121.928 111.309 122.76C111.134 123.593 111.007 124.497 110.929 125.473C110.882 126.001 110.803 126.409 110.691 126.697C110.58 126.985 110.428 127.186 110.236 127.298C110.044 127.41 109.804 127.467 109.516 127.467ZM120.166 127.378C119.75 127.378 119.429 127.211 119.205 126.875C118.98 126.54 118.82 126.108 118.723 125.58C118.626 125.036 118.577 124.468 118.576 123.876C118.575 123.092 118.605 122.292 118.668 121.476C118.747 120.66 118.785 119.868 118.784 119.1C118.783 118.684 118.751 118.3 118.686 117.948C118.622 117.58 118.589 117.228 118.588 116.892C118.588 116.636 118.676 116.42 118.851 116.244C119.043 116.052 119.299 115.955 119.619 115.955C120.003 115.954 120.299 116.065 120.507 116.289C120.732 116.513 120.892 116.825 120.989 117.224C121.102 117.624 121.166 118.08 121.183 118.592L120.68 119.025C120.918 118.128 121.197 117.384 121.516 116.791C121.835 116.199 122.203 115.75 122.618 115.446C123.034 115.141 123.489 114.988 123.985 114.987C124.577 114.986 125.066 115.202 125.45 115.633C125.835 116.064 126.156 116.672 126.413 117.455C126.671 118.239 126.88 119.167 127.042 120.238C127.204 121.198 127.349 121.958 127.478 122.518C127.607 123.062 127.727 123.501 127.84 123.837L127.168 123.67C127.597 121.91 128.098 120.381 128.672 119.084C129.246 117.787 129.86 116.778 130.515 116.057C131.17 115.336 131.825 114.975 132.481 114.973C133.553 114.972 134.33 115.458 134.812 116.434C135.309 117.393 135.664 118.864 135.875 120.848C135.973 121.888 136.094 122.704 136.239 123.295C136.4 123.887 136.545 124.351 136.673 124.687C136.818 125.006 136.93 125.278 137.011 125.502C137.107 125.71 137.155 125.958 137.156 126.246C137.156 126.598 137.037 126.87 136.797 127.062C136.557 127.255 136.246 127.351 135.862 127.352C135.478 127.353 135.133 127.193 134.829 126.874C134.524 126.538 134.259 126.011 134.034 125.291C133.825 124.571 133.648 123.636 133.502 122.484C133.372 121.54 133.259 120.772 133.162 120.18C133.081 119.589 132.992 119.125 132.896 118.789C132.799 118.437 132.687 118.149 132.558 117.925C132.446 117.702 132.301 117.478 132.125 117.254L132.725 117.253C132.07 117.894 131.511 118.647 131.049 119.512C130.602 120.361 130.204 121.345 129.854 122.466C129.519 123.57 129.161 124.803 128.78 126.164C128.684 126.564 128.517 126.868 128.277 127.076C128.038 127.269 127.758 127.365 127.438 127.366C126.75 127.367 126.229 126.976 125.876 126.192C125.522 125.409 125.241 124.289 125.03 122.834C124.884 121.778 124.739 120.898 124.594 120.194C124.449 119.475 124.28 118.875 124.087 118.395C123.91 117.9 123.669 117.484 123.365 117.148L124.013 117.411C123.55 117.86 123.159 118.405 122.84 119.045C122.521 119.686 122.258 120.398 122.052 121.183C121.845 121.951 121.678 122.751 121.551 123.583C121.441 124.416 121.354 125.256 121.292 126.104C121.26 126.552 121.141 126.88 120.933 127.088C120.742 127.281 120.486 127.377 120.166 127.378ZM142.845 127.365C142.093 127.366 141.428 127.207 140.852 126.888C140.291 126.553 139.858 126.089 139.553 125.498C139.249 124.906 139.095 124.211 139.094 123.411C139.093 122.627 139.211 121.834 139.45 121.034C139.705 120.218 140.056 119.449 140.502 118.728C140.949 118.008 141.476 117.367 142.083 116.806C142.69 116.229 143.354 115.78 144.073 115.458C144.792 115.121 145.552 114.952 146.352 114.951C146.784 114.95 147.152 115.077 147.457 115.333C147.761 115.588 147.914 115.964 147.915 116.46C147.915 116.668 147.851 116.844 147.724 116.988C147.596 117.133 147.412 117.221 147.172 117.253C146.084 117.399 145.125 117.793 144.294 118.434C143.479 119.075 142.84 119.845 142.378 120.741C141.931 121.638 141.709 122.574 141.71 123.55C141.711 123.95 141.744 124.318 141.808 124.654C141.873 124.974 142.017 125.39 142.242 125.901L140.871 123.984C141.24 124.335 141.552 124.567 141.808 124.678C142.08 124.774 142.432 124.821 142.864 124.82C143.808 124.819 144.663 124.25 145.43 123.112C146.212 121.959 146.777 120.278 147.125 118.069C147.173 117.733 147.3 117.477 147.508 117.301C147.716 117.109 147.972 117.012 148.276 117.012C148.74 117.011 149.132 117.17 149.452 117.49C149.773 117.793 149.99 118.185 150.102 118.665C150.28 119.528 150.465 120.312 150.658 121.016C150.851 121.703 151.108 122.367 151.429 123.006C151.75 123.63 152.192 124.285 152.753 124.972C152.913 125.148 153.001 125.372 153.018 125.644C153.034 125.9 152.995 126.156 152.899 126.412C152.803 126.652 152.652 126.86 152.444 127.037C152.252 127.197 152.02 127.277 151.748 127.278C151.508 127.278 151.308 127.231 151.148 127.135C151.004 127.039 150.868 126.911 150.74 126.752C150.419 126.336 150.122 125.921 149.85 125.505C149.577 125.073 149.32 124.602 149.079 124.09C148.854 123.563 148.653 122.955 148.476 122.267C148.315 121.564 148.178 120.74 148.064 119.796L149 119.746C148.762 121.155 148.42 122.347 147.974 123.324C147.544 124.301 147.049 125.086 146.49 125.679C145.931 126.271 145.339 126.704 144.716 126.977C144.092 127.234 143.469 127.363 142.845 127.365ZM159.953 127.408C158.673 127.411 157.641 127.116 156.856 126.526C156.071 125.919 155.501 125.08 155.148 124.008C154.81 122.921 154.64 121.665 154.638 120.241C154.636 119.393 154.675 118.641 154.754 117.985C154.849 117.313 154.944 116.673 155.039 116.064C155.15 115.456 155.229 114.832 155.276 114.192C155.322 113.456 155.345 112.864 155.345 112.416C155.344 111.968 155.359 111.544 155.391 111.144C155.406 110.856 155.494 110.608 155.653 110.399C155.829 110.175 156.117 110.063 156.517 110.062C157.093 110.061 157.501 110.356 157.742 110.948C157.983 111.54 158.057 112.468 157.963 113.732C157.9 114.308 157.829 114.844 157.749 115.34C157.67 115.82 157.591 116.3 157.512 116.78C157.449 117.245 157.393 117.749 157.346 118.293C157.299 118.821 157.276 119.429 157.277 120.117C157.279 121.285 157.385 122.213 157.594 122.9C157.819 123.588 158.14 124.083 158.556 124.387C158.989 124.674 159.525 124.817 160.165 124.816C160.549 124.815 160.845 124.775 161.053 124.695C161.277 124.614 161.469 124.542 161.628 124.478C161.788 124.397 161.972 124.357 162.18 124.357C162.468 124.356 162.684 124.444 162.829 124.62C162.973 124.795 163.045 125.043 163.046 125.363C163.047 125.907 162.792 126.388 162.28 126.805C161.785 127.205 161.009 127.407 159.953 127.408ZM157.154 118.389C156.643 118.614 156.251 118.623 155.979 118.415C155.706 118.207 155.57 117.912 155.569 117.528C155.568 117.144 155.648 116.807 155.807 116.519C155.983 116.215 156.406 115.942 157.078 115.701C157.494 115.54 157.934 115.404 158.397 115.291C158.861 115.178 159.333 115.089 159.813 115.025C160.309 114.96 160.773 114.927 161.205 114.926C161.621 114.926 161.957 114.981 162.213 115.093C162.469 115.204 162.662 115.364 162.79 115.572C162.918 115.764 162.983 116.003 162.983 116.291C162.984 116.595 162.888 116.828 162.696 116.988C162.52 117.148 162.257 117.245 161.905 117.277C161.217 117.326 160.601 117.399 160.057 117.496C159.529 117.593 159.033 117.714 158.57 117.859C158.122 118.003 157.65 118.18 157.154 118.389ZM167.117 127.349C166.765 127.349 166.485 127.27 166.277 127.11C166.069 126.95 165.908 126.727 165.796 126.439C165.699 126.135 165.651 125.783 165.65 125.383C165.648 124.199 165.638 123.199 165.621 122.383C165.62 121.551 165.61 120.831 165.594 120.223C165.593 119.615 165.584 119.047 165.567 118.519C165.566 117.991 165.565 117.431 165.564 116.839C165.563 116.487 165.619 116.175 165.73 115.903C165.842 115.615 166.01 115.39 166.233 115.23C166.473 115.07 166.777 114.989 167.145 114.989C167.577 114.988 167.921 115.131 168.178 115.419C168.434 115.691 168.571 116.114 168.588 116.69C168.588 117.026 168.581 117.506 168.566 118.13C168.567 118.754 168.552 119.442 168.521 120.194C168.507 120.93 168.484 121.682 168.453 122.45C168.438 123.203 168.424 123.891 168.409 124.515C168.394 125.139 168.386 125.643 168.387 126.027C168.388 126.395 168.284 126.707 168.077 126.963C167.869 127.219 167.549 127.348 167.117 127.349ZM167.31 113.092C166.654 113.093 166.11 112.91 165.677 112.543C165.244 112.16 165.028 111.704 165.027 111.176C165.026 110.664 165.201 110.256 165.553 109.951C165.904 109.647 166.352 109.494 166.896 109.493C167.344 109.492 167.728 109.596 168.048 109.803C168.369 110.011 168.609 110.274 168.77 110.594C168.946 110.914 169.035 111.234 169.035 111.554C169.036 111.922 168.9 112.274 168.629 112.61C168.374 112.931 167.934 113.091 167.31 113.092ZM177.084 127.308C176.732 127.309 176.42 127.205 176.148 126.998C175.891 126.79 175.611 126.471 175.306 126.039C175.082 125.672 174.833 125.176 174.56 124.552C174.287 123.929 174.014 123.265 173.74 122.562C173.483 121.842 173.226 121.171 172.969 120.547C172.648 119.7 172.367 119.028 172.126 118.532C171.885 118.037 171.676 117.645 171.5 117.357C171.339 117.054 171.219 116.798 171.139 116.59C171.058 116.366 171.018 116.118 171.017 115.846C171.017 115.59 171.097 115.374 171.256 115.198C171.432 115.006 171.72 114.909 172.12 114.908C172.584 114.908 172.976 115.043 173.297 115.315C173.617 115.57 173.89 115.922 174.114 116.369C174.355 116.817 174.58 117.32 174.789 117.88C175.062 118.552 175.327 119.271 175.584 120.039C175.858 120.806 176.139 121.558 176.428 122.293C176.733 123.013 177.054 123.676 177.391 124.284L176.527 124.237C176.942 123.389 177.308 122.572 177.627 121.787C177.946 121.003 178.265 120.25 178.584 119.53C178.902 118.809 179.245 118.121 179.612 117.464C179.979 116.808 180.418 116.175 180.929 115.566C181.137 115.342 181.336 115.173 181.528 115.061C181.72 114.949 181.952 114.892 182.224 114.892C182.448 114.892 182.648 114.955 182.824 115.083C183 115.211 183.137 115.37 183.233 115.562C183.329 115.738 183.378 115.938 183.378 116.162C183.378 116.402 183.339 116.626 183.259 116.834C183.195 117.042 183.1 117.234 182.972 117.411C182.413 118.132 181.934 118.828 181.535 119.501C181.153 120.174 180.802 120.854 180.483 121.543C180.18 122.215 179.861 122.944 179.526 123.728C179.192 124.497 178.809 125.362 178.379 126.322C178.203 126.691 178.02 126.947 177.828 127.091C177.652 127.235 177.404 127.308 177.084 127.308ZM188.149 127.29C187.397 127.291 186.733 127.133 186.156 126.813C185.596 126.478 185.163 126.015 184.858 125.424C184.553 124.832 184.4 124.136 184.399 123.336C184.397 122.552 184.516 121.76 184.755 120.96C185.009 120.143 185.36 119.375 185.807 118.654C186.254 117.933 186.781 117.292 187.388 116.731C187.995 116.154 188.658 115.705 189.378 115.384C190.097 115.047 190.857 114.878 191.657 114.876C192.089 114.876 192.457 115.003 192.761 115.259C193.066 115.514 193.218 115.89 193.219 116.386C193.22 116.594 193.156 116.77 193.028 116.914C192.9 117.058 192.717 117.147 192.477 117.179C191.389 117.325 190.429 117.718 189.599 118.36C188.784 119.001 188.145 119.77 187.682 120.667C187.236 121.564 187.013 122.5 187.015 123.476C187.016 123.876 187.048 124.244 187.113 124.58C187.177 124.9 187.322 125.316 187.547 125.827L186.176 123.909C186.544 124.261 186.857 124.492 187.113 124.604C187.385 124.699 187.737 124.747 188.169 124.746C189.113 124.745 189.968 124.175 190.734 123.038C191.516 121.885 192.082 120.204 192.43 117.995C192.477 117.659 192.605 117.403 192.813 117.227C193.02 117.034 193.276 116.938 193.58 116.937C194.044 116.937 194.436 117.096 194.757 117.415C195.078 117.719 195.294 118.11 195.407 118.59C195.584 119.454 195.77 120.238 195.963 120.941C196.156 121.629 196.413 122.293 196.734 122.932C197.055 123.556 197.496 124.211 198.057 124.898C198.218 125.074 198.306 125.298 198.322 125.569C198.339 125.825 198.299 126.082 198.204 126.338C198.108 126.578 197.956 126.786 197.749 126.962C197.557 127.123 197.325 127.203 197.053 127.204C196.813 127.204 196.613 127.156 196.453 127.061C196.309 126.965 196.172 126.837 196.044 126.677C195.724 126.262 195.427 125.846 195.154 125.431C194.881 124.999 194.625 124.528 194.384 124.016C194.159 123.488 193.958 122.881 193.781 122.193C193.62 121.489 193.482 120.665 193.369 119.722L194.305 119.672C194.067 121.08 193.725 122.273 193.279 123.25C192.848 124.226 192.353 125.011 191.794 125.604C191.235 126.197 190.644 126.63 190.021 126.903C189.397 127.16 188.773 127.289 188.149 127.29ZM203.188 127.266C202.372 127.267 201.699 127.164 201.171 126.957C200.643 126.75 200.25 126.486 199.994 126.167C199.753 125.847 199.633 125.503 199.632 125.135C199.632 124.863 199.711 124.639 199.871 124.463C200.047 124.287 200.295 124.198 200.615 124.198C200.791 124.197 200.943 124.229 201.071 124.293C201.215 124.357 201.367 124.428 201.527 124.508C201.703 124.588 201.911 124.66 202.151 124.723C202.408 124.787 202.736 124.818 203.136 124.818C204.128 124.816 204.967 124.703 205.655 124.477C206.359 124.236 206.846 123.868 207.117 123.371C206.989 123.051 206.732 122.804 206.348 122.628C205.964 122.453 205.507 122.302 204.979 122.175C204.451 122.047 203.899 121.912 203.323 121.769C202.762 121.61 202.234 121.419 201.738 121.196C201.257 120.957 200.865 120.645 200.56 120.262C200.255 119.878 200.103 119.383 200.102 118.775C200.101 118.151 200.284 117.59 200.651 117.094C201.018 116.597 201.505 116.18 202.113 115.843C202.72 115.506 203.392 115.249 204.128 115.072C204.863 114.895 205.599 114.814 206.335 114.828C207.087 114.843 207.648 115.018 208.016 115.354C208.401 115.689 208.593 116.065 208.594 116.481C208.594 116.769 208.515 117.001 208.355 117.177C208.211 117.353 207.988 117.442 207.684 117.442C207.54 117.442 207.403 117.435 207.275 117.419C207.163 117.403 207.035 117.395 206.891 117.395C206.747 117.38 206.555 117.372 206.315 117.372C205.419 117.374 204.644 117.503 203.988 117.76C203.332 118.001 202.845 118.37 202.526 118.867C202.622 119.154 202.863 119.386 203.247 119.561C203.631 119.737 204.088 119.888 204.616 120.015C205.16 120.142 205.72 120.277 206.296 120.42C206.889 120.563 207.433 120.755 207.929 120.994C208.442 121.217 208.858 121.52 209.179 121.904C209.499 122.287 209.66 122.775 209.661 123.367C209.663 124.263 209.368 124.999 208.777 125.576C208.186 126.153 207.402 126.579 206.427 126.852C205.451 127.126 204.372 127.264 203.188 127.266Z" fill="#6F7481"/>
</svg>
