<svg width="247" height="69" viewBox="0 0 247 69" fill="none" xmlns="http://www.w3.org/2000/svg">
<g opacity="0.5">
<path d="M35.4825 37.683C35.0566 37.6763 34.6932 37.8188 34.3923 38.1104C34.1097 38.4209 33.9652 38.7798 33.9588 39.1871C33.9559 39.3723 33.9809 39.5486 34.0339 39.7161C34.0868 39.8836 34.195 40.0705 34.3585 40.2768C34.8845 40.9888 35.5234 41.5822 36.2753 42.057C37.0273 42.5317 37.7893 42.9511 38.5615 43.315C39.3522 43.6793 40.0779 44.0518 40.7387 44.4325C41.4178 44.8321 41.9476 45.2941 42.3284 45.8186L42.4134 43.9308C41.3577 45.1182 40.2213 46.1376 39.0042 46.989C37.7867 47.859 36.4884 48.5703 35.1093 49.1229C34.7363 49.2838 34.446 49.4922 34.2383 49.7482C34.0491 50.0046 33.9517 50.3086 33.9462 50.6605C33.9399 51.0678 34.0826 51.4127 34.3746 51.695C34.6662 51.9959 35.0249 52.1497 35.4508 52.1564C35.5989 52.1587 35.7566 52.1426 35.9238 52.1082C36.1096 52.074 36.3889 51.9765 36.7618 51.8157C38.1413 51.2446 39.5336 50.4422 40.9388 49.4084C42.344 48.3747 43.6218 47.2001 44.7721 45.8846C44.904 45.7385 44.9989 45.5918 45.0568 45.4445C45.1146 45.2973 45.145 45.1311 45.1479 44.9459C45.1508 44.7607 45.1256 44.5937 45.0724 44.4447C45.0374 44.3145 44.9562 44.1743 44.8289 44.0241C44.4117 43.462 43.8636 42.9812 43.1846 42.5816C42.5056 42.1821 41.78 41.8003 41.0078 41.4364C40.2353 41.0909 39.4824 40.681 38.749 40.2065C38.0156 39.732 37.3673 39.1385 36.8043 38.4259C36.6229 38.1823 36.4222 37.994 36.202 37.8609C35.9815 37.7463 35.7417 37.687 35.4825 37.683Z" fill="#6F7481" fill-opacity="0.5"/>
<path d="M41.3895 45.2494C4.50024 45.2497 1.50006 11.4006 1.50006 11.4006" stroke="#B7B9C0" stroke-width="3" stroke-linecap="round"/>
</g>
<path d="M63.6815 37.8604C63.3695 37.8609 63.0993 37.7353 62.8708 37.4837C62.6544 37.22 62.5457 36.7942 62.5447 36.2062C62.5434 35.4142 62.4943 34.7123 62.3973 34.1005C62.3003 33.4886 62.1854 32.9188 62.0525 32.391C61.9316 31.8632 61.8168 31.3534 61.708 30.8616C61.6112 30.3577 61.5623 29.8358 61.5614 29.2958C61.56 28.4318 61.7088 27.6756 62.0077 27.0271C62.3186 26.3666 62.8098 25.8558 63.4812 25.4947C64.1526 25.1216 65.0343 24.9341 66.1263 24.9323C66.9303 24.931 67.6625 25.0918 68.3231 25.4147C68.9956 25.7376 69.5303 26.2047 69.9274 26.8161C70.3243 27.4154 70.5235 28.1531 70.525 29.0291C70.526 29.6411 70.395 30.2353 70.1319 30.8118C69.8688 31.3762 69.5037 31.8808 69.0364 32.3256C68.5811 32.7583 68.0357 33.1012 67.4001 33.3542C66.7765 33.6073 66.0987 33.7344 65.3667 33.7356C64.8987 33.7364 64.4786 33.665 64.1063 33.5217C63.7341 33.3783 63.4398 33.1927 63.2234 32.9651C63.007 32.7255 62.8986 32.4796 62.8982 32.2276C62.8978 31.9996 62.9576 31.8255 63.0774 31.7053C63.2092 31.5851 63.3651 31.5249 63.5451 31.5246C63.7131 31.5243 63.8631 31.554 63.9952 31.6138C64.1273 31.6616 64.2894 31.7154 64.4815 31.775C64.6736 31.8227 64.9436 31.8463 65.2916 31.8457C65.9276 31.8447 66.4854 31.7117 66.9649 31.447C67.4565 31.1822 67.8459 30.8335 68.1332 30.401C68.4205 29.9686 68.5638 29.5123 68.563 29.0323C68.5622 28.5523 68.4476 28.1565 68.219 27.8449C67.9905 27.5213 67.6901 27.2818 67.3179 27.1264C66.9456 26.971 66.5495 26.8936 66.1295 26.8943C65.2535 26.8958 64.5998 27.1068 64.1685 27.5275C63.7372 27.9363 63.5221 28.5246 63.5234 29.2926C63.5243 29.8086 63.5731 30.3245 63.6699 30.8404C63.7788 31.3562 63.8997 31.902 64.0326 32.4778C64.1776 33.0415 64.2986 33.6713 64.3957 34.3672C64.5049 35.051 64.5601 35.8309 64.5616 36.7069C64.5621 37.0549 64.4966 37.337 64.365 37.5532C64.2453 37.7574 64.0175 37.8598 63.6815 37.8604ZM75.1589 37.8595C74.8949 37.86 74.6308 37.8184 74.3667 37.7348C74.1025 37.6633 73.8563 37.5197 73.628 37.304C73.3996 37.0764 73.195 36.7467 73.0143 36.315C72.8336 35.8833 72.6887 35.3136 72.5795 34.6058C72.4824 33.8979 72.4329 33.016 72.4312 31.96C72.4296 30.988 72.4462 30.118 72.4809 29.3499C72.5276 28.5698 72.5924 27.8437 72.6753 27.1716C72.7582 26.4994 72.8531 25.8393 72.9601 25.1911C73.0314 24.747 73.1388 24.4348 73.2825 24.2546C73.4383 24.0743 73.6361 23.984 73.8761 23.9836C74.2001 23.9831 74.4523 24.1087 74.6327 24.3604C74.8131 24.6121 74.9038 25.0199 74.9047 25.5839C74.9053 25.9319 74.8819 26.31 74.8346 26.718C74.7872 27.1141 74.734 27.5702 74.6748 28.0863C74.6157 28.5904 74.5626 29.1905 74.5158 29.8866C74.4689 30.5706 74.4462 31.3807 74.4478 32.3167C74.449 33.0487 74.474 33.6546 74.5228 34.1346C74.5715 34.6025 74.6321 34.9684 74.7046 35.2323C74.789 35.4961 74.8853 35.682 74.9935 35.7898C75.1137 35.8976 75.2337 35.9514 75.3537 35.9512C75.4977 35.951 75.6117 35.9388 75.6957 35.9146C75.7916 35.8785 75.8696 35.8484 75.9295 35.8243C75.9895 35.8002 76.0555 35.7881 76.1275 35.7879C76.3915 35.7875 76.5656 35.8592 76.6498 36.0031C76.7461 36.1469 76.7944 36.3268 76.7947 36.5428C76.7951 36.8068 76.7175 37.041 76.5619 37.2452C76.4182 37.4375 76.2204 37.5878 75.9686 37.6962C75.7288 37.8046 75.4589 37.859 75.1589 37.8595ZM80.5858 37.8326C80.0218 37.8336 79.5236 37.7144 79.0912 37.4751C78.6708 37.2238 78.3463 36.8763 78.1175 36.4327C77.8888 35.989 77.7739 35.4672 77.773 34.8672C77.772 34.2792 77.861 33.6851 78.04 33.0848C78.231 32.4725 78.4941 31.896 78.8292 31.3555C79.1643 30.8149 79.5595 30.3343 80.0148 29.9135C80.4701 29.4808 80.9676 29.144 81.5072 28.9031C82.0468 28.6502 82.6166 28.5233 83.2166 28.5223C83.5406 28.5218 83.8167 28.6173 84.045 28.8089C84.2734 29.0006 84.3878 29.2824 84.3884 29.6544C84.3887 29.8104 84.3409 29.9425 84.2451 30.0506C84.1493 30.1588 84.0114 30.225 83.8314 30.2493C83.0156 30.3586 82.2961 30.6538 81.6728 31.1348C81.0616 31.6158 80.5826 32.1926 80.2357 32.8652C79.9008 33.5377 79.7339 34.24 79.7351 34.972C79.7356 35.272 79.7601 35.548 79.8085 35.7999C79.8569 36.0398 79.9654 36.3516 80.134 36.7354L79.1057 35.297C79.3821 35.5606 79.6164 35.7342 79.8085 35.8179C80.0126 35.8896 80.2767 35.9251 80.6007 35.9246C81.3087 35.9234 81.95 35.4964 82.5246 34.6434C83.1112 33.7785 83.5351 32.5178 83.7964 30.8613C83.832 30.6093 83.9277 30.4171 84.0835 30.2849C84.2392 30.1406 84.4311 30.0683 84.6591 30.0679C85.0071 30.0674 85.3013 30.1869 85.5417 30.4265C85.7821 30.6541 85.9445 30.9478 86.0291 31.3077C86.1622 31.9555 86.3012 32.5432 86.446 33.071C86.5909 33.5868 86.7837 34.0845 87.0245 34.5641C87.2652 35.0317 87.5961 35.5231 88.0169 36.0384C88.1371 36.1702 88.2034 36.3381 88.2157 36.5421C88.228 36.7341 88.1984 36.9261 88.1267 37.1183C88.055 37.2984 87.9412 37.4546 87.7854 37.5868C87.6416 37.707 87.4677 37.7673 87.2637 37.7677C87.0837 37.768 86.9337 37.7322 86.8136 37.6604C86.7054 37.5886 86.6033 37.4928 86.5071 37.3729C86.2666 37.0613 86.0441 36.7497 85.8396 36.438C85.635 36.1143 85.4424 35.7607 85.2618 35.377C85.0932 34.9812 84.9424 34.5255 84.8096 34.0097C84.6887 33.4819 84.5857 32.8641 84.5005 32.1562L85.2025 32.119C84.9648 33.5354 84.5946 34.664 84.092 35.5049C83.6014 36.3337 83.0504 36.9286 82.4389 37.2896C81.8275 37.6506 81.2098 37.8316 80.5858 37.8326ZM98.2546 37.7856C97.8466 37.7863 97.4863 37.6129 97.1738 37.2654C96.8732 36.9059 96.6383 36.3483 96.469 35.5926C96.2998 34.8248 96.2141 33.829 96.2121 32.605C96.2113 32.125 96.1987 31.741 96.1742 31.453C96.1617 31.1531 96.1253 30.9131 96.065 30.7332C96.0167 30.5533 95.9445 30.4094 95.8483 30.3016C95.7641 30.1817 95.6499 30.0619 95.5057 29.9421C95.7697 29.9297 95.9918 29.9593 96.1719 30.031C96.352 30.0907 96.4902 30.2045 96.5864 30.3724C96.6827 30.5282 96.7251 30.7621 96.7136 31.0742C96.5332 30.8105 96.3829 30.6367 96.2627 30.5529C96.1426 30.4691 95.9985 30.4273 95.8305 30.4276C95.5905 30.428 95.3148 30.5725 95.0032 30.861C94.7037 31.1495 94.3864 31.564 94.0513 32.1045C93.7282 32.6331 93.4112 33.2696 93.1004 34.0141C92.7896 34.7466 92.5089 35.5511 92.2584 36.4275C92.1272 36.9437 91.9778 37.3039 91.8101 37.5082C91.6425 37.7005 91.4146 37.7969 91.1266 37.7973C90.6346 37.7981 90.2682 37.5287 90.0273 36.9891C89.7864 36.4495 89.6653 35.7597 89.6639 34.9197C89.6629 34.3197 89.6861 33.7977 89.7333 33.3536C89.7926 32.8975 89.8519 32.4774 89.9113 32.0933C89.9826 31.6972 90.042 31.2951 90.0893 30.887C90.1486 30.4669 90.1778 29.9929 90.1769 29.4649C90.1765 29.1769 90.2421 28.9608 90.3739 28.8166C90.5176 28.6603 90.7275 28.582 91.0035 28.5815C91.3155 28.581 91.5557 28.6886 91.724 28.9043C91.9044 29.12 91.995 29.4739 91.9958 29.9659C91.9964 30.3379 91.967 30.6979 91.9075 31.046C91.8481 31.3821 91.7827 31.7482 91.7113 32.1444C91.652 32.5285 91.5987 32.9846 91.5516 33.5126C91.5045 34.0407 91.4935 34.6767 91.5187 35.4207L91.0862 35.0974C91.4918 33.6567 91.9638 32.45 92.5023 31.4771C93.0406 30.4922 93.6094 29.7532 94.2086 29.2603C94.8078 28.7553 95.3954 28.5023 95.9714 28.5014C96.6794 28.5002 97.2018 28.7514 97.5386 29.2548C97.8874 29.7462 98.0625 30.4179 98.0639 31.2699C98.0654 32.1699 98.0787 32.9439 98.1037 33.5919C98.1288 34.2278 98.1956 34.7497 98.3043 35.1576C98.425 35.5654 98.6055 35.8771 98.8458 36.0927C98.99 36.2124 99.0922 36.3383 99.1525 36.4702C99.2127 36.6021 99.2429 36.764 99.2433 36.956C99.2436 37.172 99.1599 37.3642 98.9922 37.5324C98.8365 37.7007 98.5906 37.7851 98.2546 37.7856ZM104.787 37.7929C104.079 37.7941 103.467 37.6991 102.951 37.5079C102.435 37.3168 102.008 37.0415 101.672 36.682C101.335 36.3226 101.082 35.903 100.913 35.4233C100.757 34.9435 100.678 34.4157 100.677 33.8397C100.676 33.2157 100.789 32.5915 101.016 31.9671C101.255 31.3307 101.59 30.7542 102.021 30.2374C102.452 29.7087 102.967 29.2879 103.567 28.9749C104.178 28.6499 104.856 28.4868 105.6 28.4856C106.212 28.4846 106.74 28.5917 107.185 28.807C107.641 29.0102 107.995 29.3216 108.248 29.7412C108.501 30.1608 108.628 30.6886 108.629 31.3246C108.63 31.8166 108.516 32.2548 108.289 32.6392C108.062 33.0115 107.738 33.3241 107.318 33.5768C106.911 33.8294 106.437 34.0222 105.897 34.1551C105.358 34.276 104.77 34.3369 104.134 34.338C103.438 34.3391 102.934 34.238 102.621 34.0345C102.321 33.819 102.17 33.5792 102.17 33.3152C102.17 33.1712 102.206 33.0631 102.277 32.991C102.349 32.9069 102.475 32.8647 102.655 32.8644C102.787 32.8642 102.949 32.8879 103.141 32.9356C103.333 32.9713 103.603 32.9889 103.951 32.9883C104.491 32.9874 104.971 32.9206 105.391 32.7879C105.811 32.6432 106.147 32.4507 106.398 32.2103C106.65 31.9579 106.775 31.6757 106.775 31.3637C106.774 31.0037 106.684 30.7338 106.503 30.5541C106.323 30.3744 106.023 30.2849 105.603 30.2856C105.159 30.2863 104.757 30.395 104.398 30.6115C104.038 30.8161 103.72 31.0987 103.445 31.4591C103.182 31.8195 102.978 32.2279 102.835 32.6841C102.692 33.1404 102.621 33.6145 102.621 34.1065C102.622 34.4785 102.688 34.8144 102.821 35.1141C102.953 35.4139 103.164 35.6476 103.452 35.8151C103.752 35.9826 104.155 36.066 104.659 36.0651C105.331 36.064 105.888 35.9911 106.332 35.8464C106.776 35.7017 107.148 35.539 107.447 35.3586C107.747 35.1661 107.999 34.9976 108.203 34.8533C108.418 34.709 108.622 34.6366 108.814 34.6363C108.994 34.636 109.12 34.6958 109.192 34.8157C109.277 34.9236 109.319 35.0975 109.319 35.3375C109.32 35.6015 109.2 35.8777 108.961 36.1661C108.733 36.4544 108.41 36.719 107.99 36.9597C107.582 37.2003 107.103 37.3991 106.551 37.556C106.011 37.7129 105.423 37.7919 104.787 37.7929ZM111.193 42.2824C110.557 42.2835 110.071 42.1403 109.735 41.8528C109.386 41.5654 109.212 41.2297 109.211 40.8457C109.211 40.5937 109.276 40.4016 109.408 40.2693C109.528 40.1371 109.684 40.0709 109.876 40.0706C109.996 40.0704 110.11 40.0882 110.218 40.124C110.326 40.1718 110.434 40.2197 110.542 40.2675C110.65 40.3153 110.782 40.3391 110.938 40.3388C111.25 40.3383 111.49 40.1879 111.657 39.8877C111.825 39.5874 111.908 39.1552 111.907 38.5912C111.905 37.3072 111.861 36.2033 111.776 35.2795C111.69 34.3556 111.587 33.5638 111.466 32.904C111.345 32.2322 111.236 31.6503 111.139 31.1585C111.042 30.6546 110.993 30.1927 110.993 29.7727C110.992 29.3287 111.088 29.0046 111.279 28.8003C111.471 28.5839 111.705 28.4756 111.981 28.4751C112.245 28.4747 112.461 28.5523 112.629 28.708C112.797 28.8638 112.918 29.1696 112.991 29.6255C113.184 30.7051 113.342 31.7369 113.464 32.7207C113.597 33.6925 113.695 34.6523 113.756 35.6002C113.83 36.5481 113.868 37.526 113.869 38.534C113.871 39.77 113.627 40.7004 113.136 41.3252C112.645 41.962 111.997 42.2811 111.193 42.2824ZM112.23 27.1067C111.738 27.1075 111.33 26.9702 111.006 26.6947C110.681 26.4072 110.519 26.0655 110.518 25.6695C110.517 25.2855 110.649 24.9793 110.913 24.7509C111.176 24.5224 111.512 24.4079 111.92 24.4072C112.256 24.4066 112.544 24.4842 112.784 24.6398C113.025 24.7954 113.205 24.9931 113.325 25.2329C113.458 25.4727 113.524 25.7126 113.525 25.9526C113.525 26.2286 113.423 26.4927 113.22 26.7451C113.028 26.9854 112.698 27.1059 112.23 27.1067ZM118.537 37.7704C117.973 37.7713 117.475 37.6521 117.042 37.4128C116.622 37.1615 116.297 36.814 116.069 36.3704C115.84 35.9268 115.725 35.405 115.724 34.805C115.723 34.217 115.812 33.6228 115.991 33.0225C116.182 32.4102 116.445 31.8338 116.78 31.2932C117.115 30.7527 117.511 30.272 117.966 29.8513C118.421 29.4185 118.919 29.0817 119.458 28.8408C119.998 28.588 120.568 28.461 121.168 28.46C121.492 28.4595 121.768 28.555 121.996 28.7467C122.224 28.9383 122.339 29.2201 122.34 29.5921C122.34 29.7481 122.292 29.8802 122.196 29.9883C122.1 30.0965 121.962 30.1627 121.783 30.187C120.967 30.2964 120.247 30.5915 119.624 31.0726C119.013 31.5536 118.534 32.1304 118.187 32.8029C117.852 33.4755 117.685 34.1778 117.686 34.9098C117.687 35.2098 117.711 35.4857 117.76 35.7376C117.808 35.9776 117.917 36.2894 118.085 36.6731L117.057 35.2348C117.333 35.4983 117.568 35.672 117.76 35.7556C117.964 35.8273 118.228 35.8629 118.552 35.8623C119.26 35.8612 119.901 35.4341 120.476 34.5812C121.062 33.7162 121.486 32.4555 121.748 30.7991C121.783 30.547 121.879 30.3549 122.035 30.2226C122.19 30.0784 122.382 30.006 122.61 30.0057C122.958 30.0051 123.252 30.1246 123.493 30.3642C123.733 30.5918 123.896 30.8856 123.98 31.2454C124.113 31.8932 124.252 32.481 124.397 33.0087C124.542 33.5245 124.735 34.0222 124.976 34.5018C125.216 34.9694 125.547 35.4609 125.968 35.9762C126.088 36.108 126.155 36.2759 126.167 36.4798C126.179 36.6718 126.149 36.8639 126.078 37.056C126.006 37.2361 125.892 37.3923 125.737 37.5246C125.593 37.6448 125.419 37.7051 125.215 37.7054C125.035 37.7057 124.885 37.67 124.765 37.5981C124.657 37.5263 124.554 37.4305 124.458 37.3106C124.218 36.999 123.995 36.6874 123.791 36.3757C123.586 36.0521 123.394 35.6984 123.213 35.3147C123.044 34.919 122.894 34.4632 122.761 33.9474C122.64 33.4196 122.537 32.8018 122.452 32.0939L123.154 32.0568C122.975 33.1131 122.719 34.0075 122.384 34.74C122.061 35.4726 121.69 36.0612 121.271 36.5059C120.852 36.9506 120.408 37.2753 119.94 37.4801C119.473 37.6728 119.005 37.7696 118.537 37.7704ZM128.862 37.7354C128.55 37.7359 128.31 37.6103 128.141 37.3586C127.973 37.1069 127.852 36.7831 127.78 36.3872C127.707 35.9793 127.67 35.5534 127.669 35.1094C127.669 34.7134 127.68 34.3174 127.703 33.9213C127.727 33.5133 127.75 33.1052 127.773 32.6972C127.809 32.2891 127.826 31.8991 127.826 31.5271C127.825 31.2151 127.801 30.9272 127.752 30.6632C127.704 30.3873 127.679 30.1234 127.679 29.8714C127.679 29.6794 127.744 29.5172 127.876 29.385C128.02 29.2408 128.212 29.1685 128.452 29.1681C128.74 29.1676 128.962 29.2512 129.118 29.419C129.286 29.5867 129.407 29.8205 129.479 30.1204C129.564 30.4203 129.612 30.7622 129.625 31.1462L129.247 31.4708C129.426 30.7985 129.635 30.2401 129.875 29.7958C130.114 29.3514 130.389 29.0149 130.701 28.7864C131.013 28.5579 131.355 28.4433 131.727 28.4427C132.171 28.442 132.537 28.6034 132.825 28.9269C133.114 29.2504 133.355 29.706 133.548 30.2937C133.741 30.8814 133.898 31.5772 134.019 32.381C134.14 33.1008 134.249 33.6706 134.346 34.0904C134.442 34.4983 134.533 34.8281 134.617 35.08L134.113 34.9548C134.435 33.6343 134.811 32.4877 135.242 31.5149C135.672 30.5422 136.133 29.7855 136.624 29.2447C137.115 28.7039 137.607 28.4331 138.099 28.4323C138.903 28.4309 139.485 28.796 139.846 29.5274C140.219 30.2468 140.485 31.3503 140.644 32.8381C140.717 33.618 140.808 34.2298 140.917 34.6736C141.037 35.1174 141.146 35.4653 141.242 35.7171C141.351 35.9569 141.435 36.1608 141.495 36.3287C141.568 36.4846 141.604 36.6705 141.604 36.8865C141.605 37.1505 141.515 37.3547 141.335 37.499C141.156 37.6433 140.922 37.7156 140.634 37.7161C140.346 37.7166 140.088 37.597 139.859 37.3574C139.631 37.1058 139.432 36.7101 139.263 36.1704C139.106 35.6306 138.973 34.9288 138.864 34.065C138.767 33.3572 138.682 32.7813 138.609 32.3374C138.548 31.8935 138.482 31.5456 138.409 31.2938C138.337 31.0299 138.252 30.814 138.156 30.6462C138.072 30.4783 137.964 30.3105 137.831 30.1427L138.281 30.142C137.79 30.6228 137.371 31.1875 137.024 31.836C136.689 32.4726 136.39 33.2111 136.128 34.0515C135.877 34.8799 135.609 35.8044 135.322 36.8248C135.251 37.1249 135.125 37.3532 134.945 37.5094C134.766 37.6537 134.556 37.7261 134.316 37.7265C133.98 37.727 133.692 37.5955 133.451 37.3319C133.223 37.0683 133.036 36.6846 132.891 36.1808C132.746 35.6651 132.619 35.0473 132.51 34.3274C132.425 33.7396 132.34 33.2237 132.256 32.7799C132.183 32.324 132.098 31.9281 132.002 31.5923C131.917 31.2564 131.815 30.9686 131.694 30.7288C131.574 30.477 131.429 30.2552 131.261 30.0635L131.747 30.2607C131.4 30.5973 131.107 31.0057 130.868 31.4861C130.628 31.9665 130.431 32.5008 130.276 33.0891C130.121 33.6654 129.996 34.2656 129.901 34.8897C129.818 35.5139 129.753 36.144 129.706 36.78C129.683 37.1161 129.593 37.3622 129.437 37.5185C129.294 37.6627 129.102 37.735 128.862 37.7354ZM147.186 37.7234C146.238 37.7249 145.457 37.5582 144.845 37.2232C144.244 36.8762 143.8 36.4089 143.511 35.8214C143.222 35.2219 143.077 34.5381 143.075 33.7701C143.074 33.1461 143.187 32.5219 143.414 31.8975C143.653 31.2612 143.988 30.6846 144.419 30.1679C144.85 29.6392 145.366 29.2183 145.965 28.9054C146.577 28.5803 147.254 28.4172 147.998 28.416C148.91 28.4145 149.643 28.6533 150.196 29.1324C150.748 29.5995 151.026 30.3071 151.027 31.2551C151.028 31.9151 150.831 32.4674 150.436 32.912C150.041 33.3567 149.501 33.6936 148.818 33.9227C148.134 34.1518 147.372 34.2671 146.532 34.2684C145.836 34.2696 145.332 34.1684 145.02 33.9649C144.719 33.7494 144.569 33.5097 144.568 33.2457C144.568 33.1017 144.604 32.9936 144.676 32.9215C144.748 32.8374 144.874 32.7952 145.054 32.7949C145.186 32.7946 145.348 32.8184 145.54 32.8661C145.732 32.9017 146.002 32.9193 146.35 32.9187C146.89 32.9178 147.37 32.8511 147.79 32.7184C148.209 32.5737 148.545 32.3811 148.797 32.1407C149.048 31.8883 149.174 31.6061 149.173 31.2941C149.173 30.9341 149.082 30.6642 148.902 30.4845C148.722 30.3048 148.421 30.2153 148.001 30.216C147.425 30.217 146.91 30.3978 146.454 30.7586C146.011 31.1193 145.658 31.5939 145.395 32.1823C145.144 32.7587 145.019 33.3769 145.02 34.0369C145.02 34.4089 145.087 34.7448 145.219 35.0446C145.352 35.3444 145.562 35.578 145.851 35.7456C146.151 35.9131 146.553 35.9964 147.057 35.9956C147.729 35.9945 148.287 35.9216 148.731 35.7768C149.174 35.6321 149.546 35.4695 149.846 35.289C150.145 35.0965 150.397 34.9281 150.601 34.7838C150.817 34.6394 151.021 34.5671 151.213 34.5668C151.393 34.5665 151.519 34.6263 151.591 34.7461C151.675 34.854 151.717 35.0279 151.718 35.2679C151.718 35.5319 151.599 35.8081 151.359 36.0965C151.132 36.3849 150.808 36.6494 150.388 36.8901C149.981 37.1308 149.501 37.3296 148.949 37.4865C148.41 37.6434 147.822 37.7223 147.186 37.7234ZM162.221 37.6807C161.813 37.6814 161.453 37.508 161.14 37.1605C160.84 36.801 160.605 36.2433 160.436 35.4876C160.266 34.7199 160.181 33.724 160.179 32.5C160.178 32.02 160.165 31.6361 160.141 31.3481C160.128 31.0481 160.092 30.8082 160.032 30.6283C159.983 30.4484 159.911 30.3045 159.815 30.1966C159.731 30.0768 159.617 29.957 159.472 29.8372C159.736 29.8248 159.958 29.8544 160.139 29.9261C160.319 29.9858 160.457 30.0996 160.553 30.2674C160.649 30.4233 160.692 30.6572 160.68 30.9692C160.5 30.7055 160.35 30.5318 160.229 30.448C160.109 30.3642 159.965 30.3224 159.797 30.3227C159.557 30.3231 159.281 30.4675 158.97 30.756C158.67 31.0445 158.353 31.459 158.018 31.9996C157.695 32.5281 157.378 33.1646 157.067 33.9091C156.756 34.6417 156.476 35.4461 156.225 36.3225C156.094 36.8387 155.945 37.199 155.777 37.4033C155.609 37.5955 155.381 37.6919 155.093 37.6924C154.601 37.6932 154.235 37.4238 153.994 36.8842C153.753 36.3446 153.632 35.6548 153.631 34.8148C153.63 34.2148 153.653 33.6927 153.7 33.2487C153.759 32.7926 153.819 32.3725 153.878 31.9884C153.949 31.5923 154.009 31.1902 154.056 30.7821C154.115 30.362 154.145 29.8879 154.144 29.3599C154.143 29.0719 154.209 28.8558 154.341 28.7116C154.484 28.5554 154.694 28.477 154.97 28.4766C155.282 28.4761 155.522 28.5837 155.691 28.7994C155.871 29.0151 155.962 29.369 155.962 29.861C155.963 30.233 155.934 30.593 155.874 30.9411C155.815 31.2772 155.749 31.6433 155.678 32.0394C155.619 32.4235 155.565 32.8796 155.518 33.4077C155.471 33.9358 155.46 34.5718 155.485 35.3157L155.053 34.9925C155.459 33.5518 155.931 32.345 156.469 31.3721C157.007 30.3872 157.576 29.6483 158.175 29.1553C158.775 28.6503 159.362 28.3974 159.938 28.3964C160.646 28.3953 161.169 28.6464 161.505 29.1499C161.854 29.6413 162.029 30.313 162.031 31.165C162.032 32.065 162.045 32.839 162.07 33.4869C162.095 34.1229 162.162 34.6448 162.271 35.0526C162.392 35.4604 162.572 35.7721 162.813 35.9877C162.957 36.1075 163.059 36.2333 163.119 36.3652C163.179 36.4971 163.21 36.6591 163.21 36.8511C163.21 37.0671 163.127 37.2592 162.959 37.4275C162.803 37.5957 162.557 37.6801 162.221 37.6807ZM168.74 37.742C167.78 37.7436 167.005 37.5229 166.416 37.0798C165.828 36.6248 165.401 35.9955 165.135 35.1919C164.882 34.3763 164.754 33.4345 164.753 32.3665C164.752 31.7305 164.781 31.1665 164.84 30.6744C164.911 30.1703 164.982 29.6902 165.054 29.234C165.137 28.7779 165.196 28.3098 165.231 27.8297C165.266 27.2777 165.284 26.8337 165.283 26.4977C165.283 26.1617 165.294 25.8436 165.318 25.5436C165.329 25.3276 165.395 25.1415 165.515 24.9853C165.646 24.8171 165.862 24.7327 166.162 24.7322C166.594 24.7315 166.901 24.953 167.081 25.3967C167.262 25.8404 167.317 26.5363 167.247 27.4844C167.199 27.9165 167.146 28.3186 167.087 28.6907C167.027 29.0508 166.968 29.4109 166.908 29.771C166.861 30.1191 166.82 30.4971 166.784 30.9052C166.749 31.3013 166.732 31.7573 166.733 32.2733C166.734 33.1493 166.813 33.8452 166.97 34.3609C167.139 34.8766 167.379 35.2482 167.692 35.4757C168.016 35.6912 168.418 35.7985 168.898 35.7977C169.186 35.7973 169.408 35.7669 169.564 35.7066C169.732 35.6464 169.876 35.5921 169.996 35.5439C170.116 35.4837 170.254 35.4535 170.41 35.4533C170.626 35.4529 170.788 35.5186 170.896 35.6505C171.004 35.7823 171.059 35.9682 171.059 36.2082C171.06 36.6162 170.868 36.9765 170.485 37.2891C170.113 37.5898 169.532 37.7407 168.74 37.742ZM166.64 30.9774C166.257 31.1461 165.963 31.1526 165.758 30.9969C165.554 30.8412 165.452 30.6194 165.451 30.3314C165.451 30.0434 165.511 29.7913 165.63 29.5751C165.762 29.3469 166.079 29.1424 166.583 28.9615C166.895 28.841 167.225 28.7385 167.573 28.6539C167.921 28.5693 168.274 28.5028 168.634 28.4542C169.006 28.4056 169.354 28.381 169.678 28.3805C169.99 28.3799 170.242 28.4215 170.434 28.5052C170.627 28.5889 170.771 28.7087 170.867 28.8645C170.963 29.0083 171.012 29.1883 171.012 29.4043C171.012 29.6323 170.941 29.8064 170.797 29.9266C170.665 30.0468 170.467 30.1192 170.203 30.1436C169.687 30.1804 169.225 30.2352 168.817 30.3079C168.421 30.3805 168.05 30.4711 167.702 30.5797C167.366 30.6882 167.012 30.8208 166.64 30.9774ZM177.106 37.7103C176.158 37.7118 175.312 37.5152 174.567 37.1204C173.822 36.7137 173.233 36.1626 172.8 35.4673C172.379 34.76 172.168 33.9504 172.166 33.0384C172.165 32.3904 172.29 31.7902 172.541 31.2378C172.792 30.6853 173.11 30.2048 173.493 29.7962C173.888 29.3755 174.296 29.0509 174.715 28.8222C175.147 28.5935 175.531 28.4788 175.867 28.4783C176.023 28.478 176.161 28.5018 176.281 28.5496C176.413 28.5974 176.515 28.6692 176.587 28.7651C176.659 28.861 176.696 28.9929 176.696 29.1609C176.696 29.4729 176.631 29.749 176.499 29.9893C176.38 30.2175 176.128 30.4159 175.744 30.5845C175.397 30.7771 175.103 30.9996 174.863 31.2519C174.636 31.4923 174.462 31.7626 174.343 32.0628C174.223 32.351 174.164 32.6691 174.164 33.0171C174.166 33.8931 174.425 34.5947 174.942 35.1218C175.459 35.649 176.161 35.9118 177.049 35.9104C177.793 35.9091 178.393 35.6382 178.848 35.0974C179.303 34.5447 179.53 33.8183 179.528 32.9183C179.527 32.1023 179.328 31.4606 178.931 30.9933C178.534 30.5139 178.006 30.2748 177.346 30.2759C176.998 30.2764 176.716 30.3489 176.5 30.4933C176.284 30.6376 176.057 30.83 175.817 31.0704C175.637 31.2507 175.494 31.4069 175.386 31.5391C175.278 31.6713 175.17 31.7734 175.062 31.8456C174.966 31.9178 174.835 31.954 174.667 31.9543C174.475 31.9546 174.318 31.8948 174.198 31.775C174.078 31.6432 174.018 31.4153 174.017 31.0913C174.017 30.8033 174.106 30.5032 174.286 30.1909C174.465 29.8786 174.699 29.5902 174.986 29.3257C175.286 29.0613 175.621 28.8507 175.993 28.6941C176.365 28.5255 176.743 28.4409 177.127 28.4402C178.039 28.4387 178.819 28.6235 179.468 28.9944C180.116 29.3533 180.615 29.8685 180.964 30.5399C181.313 31.2114 181.489 32.0031 181.49 32.9151C181.492 33.8151 181.301 34.6314 180.918 35.364C180.535 36.0847 180.014 36.6555 179.355 37.0766C178.696 37.4977 177.946 37.7089 177.106 37.7103ZM192.242 37.6494C191.678 37.6504 191.18 37.5312 190.747 37.2919C190.327 37.0406 190.002 36.6931 189.774 36.2495C189.545 35.8059 189.43 35.2841 189.429 34.6841C189.428 34.0961 189.517 33.5019 189.696 32.9016C189.887 32.2893 190.15 31.7129 190.485 31.1723C190.82 30.6318 191.216 30.1511 191.671 29.7304C192.126 29.2976 192.624 28.9608 193.163 28.7199C193.703 28.467 194.273 28.3401 194.873 28.3391C195.197 28.3386 195.473 28.4341 195.701 28.6258C195.929 28.8174 196.044 29.0992 196.045 29.4712C196.045 29.6272 195.997 29.7593 195.901 29.8674C195.805 29.9756 195.667 30.0418 195.488 30.0661C194.672 30.1755 193.952 30.4706 193.329 30.9517C192.718 31.4327 192.239 32.0094 191.892 32.682C191.557 33.3546 191.39 34.0568 191.391 34.7888C191.392 35.0888 191.416 35.3648 191.465 35.6167C191.513 35.8566 191.622 36.1685 191.79 36.5522L190.762 35.1139C191.038 35.3774 191.273 35.551 191.465 35.6347C191.669 35.7064 191.933 35.742 192.257 35.7414C192.965 35.7403 193.606 35.3132 194.181 34.4603C194.767 33.5953 195.191 32.3346 195.453 30.6782C195.488 30.4261 195.584 30.234 195.74 30.1017C195.895 29.9574 196.087 29.8851 196.315 29.8848C196.663 29.8842 196.957 30.0037 197.198 30.2433C197.438 30.4709 197.601 30.7646 197.685 31.1245C197.818 31.7723 197.957 32.3601 198.102 32.8878C198.247 33.4036 198.44 33.9013 198.681 34.3809C198.921 34.8485 199.252 35.3399 199.673 35.8553C199.793 35.9871 199.86 36.1549 199.872 36.3589C199.884 36.5509 199.854 36.743 199.783 36.9351C199.711 37.1152 199.597 37.2714 199.442 37.4036C199.298 37.5239 199.124 37.5842 198.92 37.5845C198.74 37.5848 198.59 37.549 198.47 37.4772C198.362 37.4054 198.259 37.3096 198.163 37.1897C197.923 36.8781 197.7 36.5665 197.496 36.2548C197.291 35.9312 197.099 35.5775 196.918 35.1938C196.749 34.798 196.599 34.3423 196.466 33.8265C196.345 33.2987 196.242 32.6809 196.157 31.973L196.859 31.9359C196.68 32.9922 196.424 33.8866 196.089 34.6191C195.766 35.3517 195.395 35.9403 194.976 36.385C194.557 36.8296 194.113 37.1544 193.645 37.3591C193.178 37.5519 192.71 37.6487 192.242 37.6494ZM205.16 37.6103C204.272 37.6117 203.51 37.439 202.874 37.092C202.237 36.745 201.75 36.2658 201.413 35.6544C201.076 35.031 200.907 34.3112 200.906 33.4952C200.904 32.7752 201.047 32.103 201.334 31.4785C201.633 30.854 202.04 30.3074 202.556 29.8385C203.071 29.3577 203.658 28.9847 204.318 28.7196C204.989 28.4545 205.703 28.3213 206.459 28.3201C206.747 28.3196 207.005 28.3612 207.233 28.4448C207.462 28.5285 207.642 28.6662 207.774 28.858C207.918 29.0377 207.991 29.2836 207.991 29.5956C207.992 29.8836 207.926 30.1297 207.794 30.3339C207.675 30.5261 207.489 30.6224 207.237 30.6228C207.093 30.6231 206.985 30.5933 206.913 30.5334C206.841 30.4735 206.757 30.4196 206.661 30.3718C206.576 30.3239 206.432 30.3002 206.228 30.3005C205.592 30.3015 205.023 30.4525 204.519 30.7533C204.028 31.0421 203.632 31.4388 203.333 31.9432C203.046 32.4357 202.903 32.994 202.904 33.618C202.905 34.026 202.989 34.3858 203.158 34.6975C203.326 35.0093 203.579 35.2548 203.915 35.4343C204.251 35.6017 204.665 35.6851 205.157 35.6843C205.673 35.6834 206.069 35.6228 206.345 35.5023C206.621 35.3819 206.831 35.2495 206.974 35.1053C207.118 34.949 207.25 34.8168 207.37 34.7086C207.489 34.5884 207.645 34.5282 207.837 34.5279C208.041 34.5275 208.197 34.5933 208.306 34.7251C208.426 34.8569 208.486 35.0488 208.487 35.3008C208.487 35.7448 208.338 36.141 208.039 36.4895C207.751 36.838 207.356 37.1147 206.852 37.3195C206.36 37.5123 205.796 37.6092 205.16 37.6103ZM203.997 41.4822C203.553 41.4829 203.199 41.3935 202.934 41.2139C202.682 41.0463 202.556 40.7945 202.555 40.4585C202.555 40.2065 202.62 40.0084 202.752 39.8642C202.896 39.732 203.142 39.6476 203.49 39.611C204.15 39.5379 204.599 39.4052 204.839 39.2128C205.091 39.0204 205.216 38.7502 205.216 38.4022C205.215 38.1622 205.179 37.9762 205.107 37.8443C205.035 37.7245 204.95 37.6286 204.854 37.5568C204.758 37.4969 204.668 37.4311 204.584 37.3592C204.512 37.2873 204.476 37.1914 204.476 37.0714C204.475 36.9394 204.535 36.8253 204.655 36.7291C204.775 36.6329 204.955 36.5846 205.195 36.5842C205.783 36.5832 206.257 36.8045 206.618 37.2479C206.991 37.6913 207.178 38.2789 207.179 39.0109C207.18 39.7549 206.899 40.3494 206.336 40.7943C205.772 41.2513 204.993 41.4805 203.997 41.4822ZM214.811 37.6484C213.863 37.65 213.017 37.4534 212.272 37.0586C211.527 36.6518 210.938 36.1008 210.505 35.4055C210.084 34.6982 209.873 33.8885 209.871 32.9765C209.87 32.3285 209.995 31.7283 210.246 31.1759C210.498 30.6235 210.815 30.143 211.198 29.7343C211.593 29.3137 212.001 28.989 212.42 28.7603C212.852 28.5316 213.236 28.417 213.572 28.4164C213.728 28.4162 213.866 28.44 213.986 28.4878C214.118 28.5355 214.22 28.6074 214.292 28.7033C214.365 28.7991 214.401 28.9311 214.401 29.0991C214.402 29.4111 214.336 29.6872 214.204 29.9274C214.085 30.1556 213.833 30.354 213.449 30.5226C213.102 30.7152 212.808 30.9377 212.568 31.1901C212.341 31.4305 212.167 31.7008 212.048 32.0009C211.928 32.2891 211.869 32.6072 211.869 32.9552C211.871 33.8312 212.13 34.5328 212.647 35.06C213.164 35.5871 213.866 35.85 214.754 35.8485C215.498 35.8473 216.098 35.5763 216.553 35.0356C217.008 34.4828 217.235 33.7564 217.233 32.8564C217.232 32.0404 217.033 31.3988 216.636 30.9314C216.239 30.4521 215.711 30.2129 215.051 30.214C214.703 30.2146 214.421 30.2871 214.205 30.4314C213.989 30.5758 213.762 30.7681 213.522 31.0085C213.342 31.1888 213.199 31.3451 213.091 31.4772C212.983 31.6094 212.875 31.7116 212.767 31.7838C212.672 31.8559 212.54 31.8921 212.372 31.8924C212.18 31.8927 212.023 31.833 211.903 31.7132C211.783 31.5814 211.723 31.3535 211.722 31.0295C211.722 30.7415 211.811 30.4413 211.991 30.129C212.17 29.8167 212.404 29.5284 212.691 29.2639C212.991 28.9994 213.327 28.7888 213.698 28.6322C214.07 28.4636 214.448 28.379 214.832 28.3784C215.744 28.3769 216.524 28.5616 217.173 28.9325C217.821 29.2915 218.32 29.8067 218.669 30.4781C219.018 31.1495 219.194 31.9412 219.195 32.8532C219.197 33.7532 219.006 34.5695 218.623 35.3022C218.24 36.0228 217.719 36.5937 217.06 37.0147C216.401 37.4358 215.651 37.647 214.811 37.6484ZM212.147 26.8348C211.859 26.8352 211.619 26.7216 211.427 26.494C211.246 26.2543 211.156 25.9664 211.155 25.6304C211.155 25.3064 211.22 24.9823 211.352 24.6581C211.495 24.3338 211.723 24.0695 212.034 23.865C212.346 23.6484 212.76 23.5398 213.276 23.5389C213.684 23.5382 214.032 23.6157 214.32 23.7712C214.609 23.9147 214.861 24.0883 215.077 24.292C215.293 24.4836 215.486 24.6573 215.654 24.813C215.834 24.9567 216.02 25.0284 216.212 25.0281C216.44 25.0277 216.614 24.9794 216.734 24.8832C216.854 24.7871 216.944 24.6669 217.004 24.5228C217.063 24.3787 217.117 24.2346 217.165 24.0905C217.225 23.9464 217.296 23.8263 217.38 23.7302C217.464 23.634 217.584 23.5859 217.74 23.5856C217.98 23.5852 218.178 23.6689 218.334 23.8366C218.491 24.0044 218.569 24.2862 218.57 24.6822C218.571 25.3422 218.374 25.8826 217.978 26.3032C217.583 26.7119 217.049 26.9167 216.377 26.9178C216.029 26.9184 215.729 26.8529 215.477 26.7213C215.237 26.5777 215.015 26.4161 214.81 26.2364C214.618 26.0447 214.426 25.883 214.234 25.7514C214.041 25.6077 213.831 25.536 213.603 25.5364C213.339 25.5368 213.153 25.6031 213.045 25.7353C212.938 25.8675 212.854 26.0176 212.794 26.1857C212.747 26.3538 212.681 26.5039 212.597 26.636C212.513 26.7682 212.363 26.8344 212.147 26.8348ZM225.145 37.5955C224.197 37.597 223.416 37.4303 222.804 37.0953C222.203 36.7483 221.758 36.281 221.47 35.6935C221.181 35.094 221.035 34.4102 221.034 33.6422C221.033 33.0182 221.146 32.394 221.373 31.7696C221.612 31.1333 221.947 30.5567 222.378 30.04C222.809 29.5113 223.325 29.0904 223.924 28.7775C224.536 28.4525 225.213 28.2893 225.957 28.2881C226.569 28.2871 227.098 28.3943 227.542 28.6095C227.998 28.8128 228.353 29.1242 228.605 29.5438C228.858 29.9634 228.985 30.4912 228.986 31.1272C228.987 31.7872 228.79 32.3395 228.395 32.7841C227.999 33.2288 227.46 33.5657 226.776 33.7948C226.093 34.0239 225.331 34.1392 224.491 34.1405C223.795 34.1417 223.291 34.0405 222.978 33.837C222.678 33.6215 222.528 33.3818 222.527 33.1178C222.527 32.9738 222.563 32.8657 222.635 32.7936C222.707 32.7095 222.833 32.6673 223.013 32.667C223.145 32.6667 223.307 32.6905 223.499 32.7382C223.691 32.7738 223.961 32.7914 224.309 32.7908C224.849 32.7899 225.329 32.7232 225.748 32.5905C226.168 32.4458 226.504 32.2532 226.755 32.0128C227.007 31.7604 227.133 31.4782 227.132 31.1662C227.132 30.8062 227.041 30.5363 226.861 30.3566C226.68 30.1769 226.38 30.0874 225.96 30.0881C225.516 30.0888 225.115 30.1975 224.755 30.4141C224.395 30.6187 224.078 30.9012 223.802 31.2617C223.539 31.6221 223.336 32.0304 223.192 32.4867C223.049 32.9429 222.978 33.417 222.979 33.909C222.979 34.281 223.046 34.6169 223.178 34.9167C223.311 35.2165 223.521 35.4501 223.809 35.6177C224.11 35.7852 224.512 35.8685 225.016 35.8677C225.688 35.8666 226.246 35.7937 226.689 35.6489C227.133 35.5042 227.505 35.3416 227.805 35.1611C228.104 34.9686 228.356 34.8002 228.56 34.6559C228.776 34.5115 228.979 34.4392 229.171 34.4389C229.351 34.4386 229.478 34.4984 229.55 34.6182C229.634 34.7261 229.676 34.9 229.677 35.14C229.677 35.404 229.558 35.6802 229.318 35.9686C229.09 36.257 228.767 36.5215 228.347 36.7622C227.94 37.0029 227.46 37.2017 226.908 37.3586C226.369 37.5155 225.781 37.5944 225.145 37.5955ZM233.755 37.5813C233.143 37.5823 232.639 37.5052 232.243 37.3498C231.846 37.1945 231.552 36.997 231.36 36.7573C231.179 36.5176 231.089 36.2597 231.088 35.9837C231.088 35.7797 231.148 35.6116 231.268 35.4794C231.399 35.3472 231.585 35.2809 231.825 35.2805C231.957 35.2803 232.071 35.3041 232.167 35.3519C232.276 35.3998 232.39 35.4536 232.51 35.5134C232.642 35.5732 232.798 35.6269 232.978 35.6746C233.17 35.7223 233.416 35.7459 233.716 35.7454C234.46 35.7442 235.09 35.6592 235.606 35.4903C236.133 35.3094 236.499 35.0328 236.702 34.6605C236.606 34.4207 236.414 34.235 236.125 34.1035C235.837 33.9719 235.495 33.8585 235.099 33.7631C234.703 33.6678 234.289 33.5665 233.856 33.4592C233.436 33.3399 233.04 33.1965 232.668 33.0291C232.307 32.8497 232.013 32.6162 231.784 32.3286C231.556 32.0409 231.441 31.6691 231.441 31.2131C231.44 30.7451 231.577 30.3249 231.853 29.9525C232.128 29.58 232.493 29.2674 232.949 29.0147C233.405 28.7619 233.908 28.5691 234.46 28.4362C235.012 28.3033 235.564 28.2424 236.116 28.2535C236.488 28.2528 236.8 28.3123 237.052 28.4319C237.304 28.5515 237.491 28.7072 237.611 28.899C237.743 29.0908 237.81 29.2887 237.81 29.4927C237.81 29.7087 237.75 29.8828 237.631 30.015C237.523 30.1472 237.355 30.2134 237.127 30.2138C237.019 30.214 236.917 30.2081 236.821 30.1963C236.737 30.1844 236.641 30.1786 236.533 30.1788C236.425 30.167 236.281 30.1612 236.101 30.1615C235.429 30.1626 234.847 30.2595 234.355 30.4523C233.864 30.6332 233.498 30.9098 233.259 31.2821C233.331 31.498 233.511 31.6717 233.8 31.8033C234.088 31.9348 234.43 32.0482 234.826 32.1436C235.234 32.2389 235.655 32.3402 236.087 32.4475C236.531 32.5548 236.939 32.6981 237.311 32.8775C237.696 33.0449 238.008 33.2724 238.249 33.56C238.489 33.8476 238.61 34.2134 238.61 34.6574C238.611 35.1614 238.48 35.5996 238.216 35.972C237.965 36.3444 237.612 36.651 237.156 36.8918C236.712 37.1205 236.197 37.2893 235.609 37.3983C235.033 37.5192 234.415 37.5803 233.755 37.5813Z" fill="#6F7481" fill-opacity="0.5"/>
<path d="M65.3262 63.8937C64.1102 63.8957 63.1978 63.6972 62.5892 63.2982C61.9805 62.8832 61.6757 62.3877 61.6748 61.8117C61.6743 61.5237 61.7459 61.3076 61.8897 61.1633C62.0334 61.0031 62.2573 60.9227 62.5613 60.9222C62.7693 60.9219 62.9453 60.9456 63.0894 60.9934C63.2495 61.0251 63.4095 61.0648 63.5696 61.1126C63.7457 61.1603 63.9458 61.208 64.1698 61.2556C64.4099 61.2872 64.7059 61.3027 65.0579 61.3021C65.9059 61.3007 66.6499 61.2595 67.2897 61.1785C67.9456 61.0974 68.5054 60.9845 68.9692 60.8397C69.4489 60.6789 69.8566 60.4943 70.1923 60.2857C70.0956 59.8859 69.831 59.5343 69.3985 59.231C68.966 58.9277 68.4296 58.6406 67.7891 58.3697C67.1487 58.0987 66.4842 57.8198 65.7957 57.5329C65.1232 57.23 64.4907 56.8951 63.8981 56.528C63.3055 56.161 62.8168 55.7218 62.4319 55.2104C62.0631 54.683 61.878 54.0593 61.8769 53.3393C61.8755 52.5393 62.0983 51.795 62.5452 51.1062C63.0081 50.4175 63.6071 49.8005 64.3422 49.2553C65.0772 48.6941 65.8685 48.2208 66.7158 47.8354C67.5632 47.45 68.3867 47.1527 69.1864 46.9433C70.002 46.734 70.7059 46.6288 71.2979 46.6279C71.6819 46.6272 71.986 46.6907 72.2102 46.8184C72.4344 46.946 72.5947 47.1137 72.691 47.3216C72.7873 47.5294 72.8357 47.7614 72.8361 48.0174C72.8366 48.3214 72.7491 48.5775 72.5734 48.7858C72.3977 48.9941 72.102 49.1386 71.6861 49.2192C70.2146 49.4937 68.9431 49.8557 67.8719 50.3055C66.8166 50.7392 66.0014 51.2206 65.4263 51.7495C64.8671 52.2624 64.588 52.7909 64.5889 53.3349C64.5895 53.7189 64.79 54.0626 65.1905 54.3659C65.607 54.6532 66.1275 54.9404 66.752 55.2273C67.3924 55.4983 68.0649 55.7852 68.7694 56.088C69.4898 56.3749 70.1624 56.7098 70.787 57.0927C71.4277 57.4757 71.9484 57.9228 72.3492 58.4342C72.75 58.9295 72.951 59.5292 72.9522 60.2332C72.9532 60.8412 72.7621 61.3775 72.3788 61.8421C71.9956 62.3068 71.4602 62.6916 70.7727 62.9968C70.0852 63.2859 69.2776 63.5112 68.3498 63.6727C67.4221 63.8183 66.4142 63.8919 65.3262 63.8937ZM80.4649 63.8929C79.5209 63.8944 78.7047 63.7678 78.0163 63.5129C77.3279 63.258 76.7593 62.8909 76.3105 62.4117C75.8617 61.9324 75.5248 61.373 75.2998 60.7333C75.0907 60.0937 74.9855 59.3898 74.9843 58.6218C74.9829 57.7898 75.1336 56.9576 75.4362 56.1251C75.7548 55.2766 76.2015 54.5078 76.7764 53.8189C77.3513 53.114 78.0383 52.5528 78.8377 52.1355C79.6529 51.7022 80.5566 51.4847 81.5486 51.4831C82.3646 51.4817 83.0688 51.6246 83.6613 51.9116C84.2697 52.1826 84.7424 52.5978 85.0793 53.1573C85.4163 53.7167 85.5854 54.4204 85.5868 55.2684C85.5879 55.9244 85.4368 56.5087 85.1337 57.0212C84.8305 57.5177 84.3992 57.9344 83.8397 58.2713C83.2963 58.6082 82.6647 58.8652 81.945 59.0424C81.2253 59.2036 80.4414 59.2849 79.5934 59.2863C78.6654 59.2878 77.9932 59.1529 77.5767 58.8816C77.1762 58.5943 76.9757 58.2746 76.9751 57.9226C76.9748 57.7306 77.0226 57.5865 77.1184 57.4903C77.2143 57.3782 77.3822 57.3219 77.6222 57.3215C77.7982 57.3212 78.0142 57.3529 78.2703 57.4165C78.5264 57.464 78.8864 57.4874 79.3504 57.4867C80.0704 57.4855 80.7103 57.3965 81.27 57.2195C81.8297 57.0266 82.2773 56.7699 82.6127 56.4493C82.9482 56.1128 83.1156 55.7365 83.1149 55.3205C83.1141 54.8405 82.9935 54.4807 82.7531 54.2411C82.5127 54.0015 82.1125 53.8821 81.5525 53.8831C80.9605 53.884 80.4248 54.0289 79.9452 54.3177C79.4657 54.5905 79.0423 54.9672 78.6751 55.4478C78.3239 55.9284 78.0528 56.4728 77.8618 57.0811C77.6708 57.6894 77.5758 58.3216 77.5769 58.9776C77.5777 59.4736 77.6664 59.9214 77.8431 60.3212C78.0197 60.7209 78.3002 61.0324 78.6846 61.2558C79.085 61.4791 79.6212 61.5902 80.2932 61.5891C81.1892 61.5877 81.933 61.4905 82.5247 61.2975C83.1164 61.1045 83.612 60.8877 84.0116 60.647C84.4112 60.3904 84.7468 60.1658 85.0185 59.9734C85.3062 59.7809 85.5781 59.6845 85.834 59.684C86.074 59.6837 86.2422 59.7634 86.3384 59.9232C86.4507 60.067 86.5071 60.2989 86.5076 60.6189C86.5082 60.9709 86.3488 61.3392 86.0294 61.7237C85.726 62.1082 85.2946 62.4609 84.7351 62.7819C84.1917 63.1027 83.5521 63.3678 82.8164 63.577C82.0968 63.7862 81.3129 63.8915 80.4649 63.8929ZM90.697 63.8521C90.281 63.8528 89.9607 63.6853 89.7361 63.3497C89.5116 63.014 89.3509 62.5823 89.254 62.0544C89.1571 61.5106 89.1082 60.9427 89.1072 60.3507C89.1059 59.5667 89.1366 58.7666 89.1993 57.9505C89.2779 57.1344 89.3166 56.3423 89.3154 55.5743C89.3147 55.1583 89.2821 54.7744 89.2175 54.4225C89.1529 54.0546 89.1203 53.7026 89.1198 53.3666C89.1193 53.1106 89.207 52.8945 89.3827 52.7182C89.5744 52.5259 89.8302 52.4295 90.1502 52.429C90.5342 52.4283 90.8304 52.5398 91.0388 52.7635C91.2631 52.9871 91.4236 53.2989 91.5203 53.6987C91.633 54.0985 91.6977 54.5544 91.7145 55.0664L91.2113 55.4992C91.4498 54.6028 91.7286 53.8584 92.0476 53.2658C92.3666 52.6733 92.7339 52.2247 93.1494 51.92C93.5649 51.6154 94.0206 51.4626 94.5166 51.4618C95.1086 51.4608 95.597 51.676 95.9817 52.1074C96.3664 52.5388 96.6874 53.1462 96.9447 53.9298C97.202 54.7134 97.4115 55.641 97.5733 56.7128C97.7348 57.6725 97.8801 58.4323 98.009 58.9921C98.1379 59.5359 98.2586 59.9757 98.3712 60.3115L97.6989 60.1446C98.128 58.3839 98.6295 56.8551 99.2034 55.5581C99.7772 54.2612 100.392 53.2522 101.046 52.5311C101.701 51.81 102.357 51.4489 103.013 51.4479C104.085 51.4461 104.861 51.9328 105.343 52.908C105.841 53.8672 106.195 55.3386 106.406 57.3223C106.504 58.3621 106.625 59.1779 106.77 59.7697C106.931 60.3614 107.076 60.8252 107.205 61.161C107.349 61.4808 107.462 61.7526 107.542 61.9764C107.638 62.1843 107.687 62.4322 107.687 62.7202C107.688 63.0722 107.568 63.3444 107.328 63.5368C107.089 63.7292 106.777 63.8257 106.393 63.8263C106.009 63.827 105.665 63.6675 105.36 63.348C105.056 63.0125 104.791 62.485 104.566 61.7653C104.356 61.0457 104.179 60.11 104.033 58.9582C103.903 58.0144 103.79 57.2466 103.693 56.6547C103.612 56.0629 103.523 55.599 103.427 55.2632C103.33 54.9113 103.218 54.6235 103.089 54.3997C102.977 54.1759 102.833 53.9522 102.656 53.7284L103.256 53.7275C102.601 54.3685 102.043 55.1215 101.58 55.9862C101.133 56.8349 100.735 57.8196 100.385 58.9402C100.051 60.0447 99.6927 61.2773 99.311 62.6379C99.2156 63.0381 99.0481 63.3424 98.8085 63.5508C98.5688 63.7432 98.2889 63.8396 97.9689 63.8401C97.2809 63.8413 96.7603 63.4501 96.407 62.6667C96.0537 61.8833 95.7719 60.7637 95.5615 59.3081C95.4158 58.2523 95.2703 57.3726 95.1252 56.6688C94.98 55.949 94.811 55.3493 94.6182 54.8696C94.4414 54.3739 94.2007 53.9583 93.8962 53.6228L94.5446 53.8857C94.0813 54.3345 93.6902 54.8792 93.3713 55.5197C93.0523 56.1602 92.7895 56.8726 92.5828 57.657C92.3761 58.4253 92.2094 59.2256 92.0827 60.0578C91.9721 60.89 91.8855 61.7301 91.8229 62.5782C91.7916 63.0263 91.6721 63.3545 91.4645 63.5628C91.2728 63.7551 91.017 63.8516 90.697 63.8521ZM113.376 63.8389C112.624 63.8401 111.96 63.6812 111.383 63.3621C110.823 63.0271 110.39 62.5638 110.085 61.9723C109.78 61.3808 109.627 60.685 109.625 59.885C109.624 59.101 109.743 58.3088 109.981 57.5084C110.236 56.692 110.587 55.9234 111.034 55.2027C111.48 54.482 112.007 53.8411 112.615 53.2801C113.222 52.7031 113.885 52.254 114.604 51.9328C115.324 51.5957 116.083 51.4264 116.883 51.4251C117.315 51.4244 117.684 51.5518 117.988 51.8073C118.293 52.0628 118.445 52.4385 118.446 52.9345C118.446 53.1425 118.383 53.3186 118.255 53.4629C118.127 53.6071 117.943 53.6954 117.703 53.7278C116.616 53.8735 115.656 54.2671 114.825 54.9085C114.01 55.5498 113.372 56.3189 112.909 57.2156C112.462 58.1124 112.24 59.0487 112.242 60.0247C112.242 60.4247 112.275 60.7927 112.339 61.1286C112.404 61.4485 112.549 61.8642 112.773 62.3759L111.402 60.4581C111.771 60.8095 112.083 61.041 112.339 61.1526C112.612 61.2481 112.964 61.2955 113.396 61.2948C114.34 61.2933 115.195 60.7239 115.961 59.5866C116.743 58.4333 117.308 56.7524 117.657 54.5438C117.704 54.2078 117.832 53.9515 118.039 53.7752C118.247 53.5829 118.503 53.4864 118.807 53.4859C119.271 53.4852 119.663 53.6445 119.984 53.964C120.304 54.2675 120.521 54.6591 120.634 55.139C120.811 56.0027 120.996 56.7864 121.189 57.49C121.383 58.1777 121.64 58.8413 121.961 59.4808C122.282 60.1043 122.723 60.7595 123.284 61.4466C123.444 61.6224 123.533 61.8462 123.549 62.1182C123.565 62.3742 123.526 62.6302 123.43 62.8864C123.335 63.1265 123.183 63.3348 122.975 63.5111C122.784 63.6714 122.552 63.7518 122.28 63.7523C122.04 63.7527 121.84 63.705 121.679 63.6092C121.535 63.5135 121.399 63.3857 121.271 63.2259C120.95 62.8104 120.653 62.3949 120.381 61.9794C120.108 61.5478 119.851 61.0762 119.61 60.5646C119.386 60.037 119.185 59.4293 119.007 58.7416C118.846 58.0379 118.709 57.2141 118.595 56.2703L119.531 56.2208C119.294 57.6292 118.952 58.8217 118.505 59.7985C118.075 60.7752 117.58 61.56 117.021 62.1529C116.462 62.7458 115.871 63.1788 115.247 63.4518C114.624 63.7088 114 63.8378 113.376 63.8389ZM136.934 63.7762C136.39 63.7771 135.91 63.5459 135.493 63.0826C135.092 62.6032 134.779 61.8598 134.553 60.8521C134.328 59.8285 134.214 58.5007 134.211 56.8687C134.21 56.2287 134.193 55.7167 134.16 55.3328C134.144 54.9328 134.095 54.6129 134.015 54.373C133.95 54.1331 133.854 53.9413 133.726 53.7975C133.614 53.6377 133.461 53.4779 133.269 53.3182C133.621 53.3016 133.917 53.3412 134.157 53.4368C134.397 53.5164 134.582 53.6681 134.71 53.8919C134.838 54.0996 134.895 54.4116 134.88 54.8276C134.639 54.476 134.439 54.2443 134.278 54.1326C134.118 54.0208 133.926 53.9651 133.702 53.9655C133.382 53.966 133.014 54.1586 132.599 54.5433C132.2 54.928 131.777 55.4807 131.33 56.2014C130.899 56.9061 130.476 57.7548 130.062 58.7475C129.648 59.7242 129.273 60.7968 128.939 61.9653C128.764 62.6536 128.565 63.134 128.342 63.4063C128.118 63.6627 127.814 63.7912 127.43 63.7918C126.774 63.7929 126.286 63.4337 125.964 62.7142C125.643 61.9947 125.482 61.075 125.48 59.955C125.479 59.155 125.509 58.459 125.573 57.8669C125.652 57.2587 125.731 56.6986 125.81 56.1865C125.905 55.6583 125.984 55.1222 126.047 54.5781C126.126 54.0179 126.165 53.3859 126.164 52.6819C126.163 52.2979 126.251 52.0097 126.427 51.8174C126.618 51.6091 126.898 51.5047 127.266 51.5041C127.682 51.5034 128.002 51.6469 128.227 51.9345C128.467 52.2221 128.588 52.6939 128.589 53.3499C128.59 53.8459 128.551 54.326 128.471 54.7901C128.392 55.2382 128.305 55.7264 128.21 56.2545C128.131 56.7667 128.06 57.3748 127.997 58.0789C127.934 58.783 127.919 59.631 127.953 60.623L127.376 60.1919C127.917 58.271 128.547 56.662 129.264 55.3648C129.982 54.0516 130.741 53.0664 131.54 52.4091C132.338 51.7357 133.122 51.3985 133.89 51.3972C134.514 51.3962 135.026 51.5473 135.427 51.8507C135.843 52.138 136.156 52.5615 136.365 53.1211C136.574 53.6648 136.679 54.3206 136.68 55.0886C136.682 56.2886 136.7 57.3206 136.733 58.1845C136.766 59.0325 136.856 59.7283 137 60.2721C137.161 60.8158 137.402 61.2315 137.723 61.5189C137.915 61.6786 138.051 61.8464 138.131 62.0223C138.212 62.1981 138.252 62.4141 138.252 62.6701C138.253 62.9581 138.141 63.2142 137.918 63.4386C137.71 63.663 137.382 63.7755 136.934 63.7762ZM143.845 63.7889C143.093 63.7901 142.428 63.6312 141.852 63.3122C141.291 62.9771 140.858 62.5138 140.553 61.9223C140.249 61.3308 140.095 60.635 140.094 59.835C140.093 59.051 140.211 58.2588 140.45 57.4584C140.705 56.642 141.056 55.8734 141.502 55.1527C141.949 54.432 142.476 53.7911 143.083 53.2301C143.69 52.6531 144.354 52.204 145.073 51.8829C145.792 51.5457 146.552 51.3764 147.352 51.3751C147.784 51.3744 148.152 51.5018 148.457 51.7573C148.761 52.0128 148.914 52.3886 148.915 52.8846C148.915 53.0926 148.851 53.2687 148.724 53.4129C148.596 53.5571 148.412 53.6454 148.172 53.6778C147.084 53.8236 146.125 54.2171 145.294 54.8585C144.479 55.4998 143.84 56.2689 143.378 57.1656C142.931 58.0624 142.709 58.9987 142.71 59.9747C142.711 60.3747 142.744 60.7427 142.808 61.0786C142.873 61.3985 143.017 61.8142 143.242 62.3259L141.871 60.4081C142.24 60.7595 142.552 60.991 142.808 61.1026C143.08 61.1981 143.432 61.2456 143.864 61.2449C144.808 61.2433 145.663 60.6739 146.43 59.5366C147.212 58.3834 147.777 56.7024 148.125 54.4938C148.173 54.1578 148.3 53.9016 148.508 53.7252C148.716 53.5329 148.972 53.4365 149.276 53.436C149.74 53.4352 150.132 53.5946 150.452 53.914C150.773 54.2175 150.99 54.6092 151.102 55.089C151.28 55.9527 151.465 56.7364 151.658 57.4401C151.851 58.1277 152.108 58.7913 152.429 59.4308C152.75 60.0543 153.192 60.7095 153.753 61.3966C153.913 61.5724 154.001 61.7962 154.018 62.0682C154.034 62.3242 153.995 62.5802 153.899 62.8364C153.803 63.0765 153.652 63.2848 153.444 63.4611C153.252 63.6215 153.02 63.7018 152.748 63.7023C152.508 63.7027 152.308 63.655 152.148 63.5593C152.004 63.4635 151.868 63.3357 151.74 63.1759C151.419 62.7605 151.122 62.3449 150.85 61.9294C150.577 61.4978 150.32 61.0263 150.079 60.5147C149.854 59.987 149.653 59.3794 149.476 58.6916C149.315 57.9879 149.178 57.1641 149.064 56.2203L150 56.1708C149.683 58.0593 149.19 59.5641 148.519 60.6852C147.865 61.7903 147.131 62.5835 146.315 63.0648C145.5 63.5462 144.677 63.7875 143.845 63.7889ZM157.828 63.7899C157.476 63.7905 157.196 63.711 156.988 63.5513C156.779 63.3917 156.619 63.1679 156.507 62.8801C156.41 62.5763 156.362 62.2243 156.361 61.8244C156.359 60.6404 156.349 59.6404 156.332 58.8244C156.331 57.9924 156.321 57.2724 156.304 56.6644C156.303 56.0564 156.295 55.4884 156.278 54.9605C156.277 54.4325 156.276 53.8725 156.275 53.2805C156.274 52.9285 156.33 52.6164 156.441 52.3442C156.553 52.056 156.721 51.8317 156.944 51.6714C157.184 51.511 157.488 51.4305 157.856 51.4299C158.288 51.4292 158.632 51.5726 158.889 51.8602C159.145 52.1318 159.282 52.5555 159.299 53.1315C159.299 53.4675 159.292 53.9475 159.277 54.5716C159.278 55.1956 159.263 55.8836 159.232 56.6356C159.218 57.3717 159.195 58.1237 159.164 58.8917C159.149 59.6438 159.134 60.3318 159.119 60.9558C159.105 61.5798 159.097 62.0839 159.098 62.4679C159.099 62.8359 158.995 63.148 158.788 63.4044C158.58 63.6607 158.26 63.7892 157.828 63.7899ZM158.021 49.5336C157.365 49.5347 156.82 49.3516 156.388 48.9843C155.955 48.601 155.738 48.1453 155.738 47.6173C155.737 47.1054 155.912 46.6971 156.264 46.3925C156.615 46.0879 157.063 45.9352 157.607 45.9343C158.055 45.9335 158.439 46.0369 158.759 46.2444C159.08 46.4519 159.32 46.7155 159.481 47.0352C159.657 47.3549 159.746 47.6748 159.746 47.9948C159.747 48.3628 159.611 48.715 159.34 49.0514C159.084 49.3719 158.645 49.5326 158.021 49.5336ZM165.445 63.7534C164.629 63.7548 163.957 63.6519 163.429 63.4448C162.901 63.2376 162.508 62.9743 162.252 62.6547C162.011 62.3351 161.891 61.9913 161.89 61.6233C161.89 61.3513 161.969 61.1271 162.129 60.9509C162.305 60.7746 162.552 60.6862 162.872 60.6857C163.048 60.6854 163.2 60.7171 163.329 60.7809C163.473 60.8447 163.625 60.9164 163.785 60.9962C163.961 61.0759 164.169 61.1475 164.409 61.2111C164.665 61.2747 164.993 61.3062 165.393 61.3055C166.385 61.3039 167.225 61.1905 167.913 60.9654C168.617 60.7242 169.104 60.3554 169.375 59.859C169.247 59.5392 168.99 59.2916 168.606 59.1163C168.222 58.9409 167.765 58.7896 167.237 58.6625C166.709 58.5354 166.157 58.4003 165.58 58.2572C165.02 58.0981 164.492 57.907 163.996 57.6838C163.515 57.4446 163.123 57.1333 162.818 56.7497C162.513 56.3662 162.361 55.8705 162.36 55.2625C162.359 54.6385 162.542 54.0782 162.909 53.5816C163.276 53.085 163.763 52.6682 164.371 52.3312C164.978 51.9942 165.65 51.7371 166.385 51.5599C167.121 51.3827 167.857 51.3015 168.593 51.3163C169.089 51.3155 169.505 51.3948 169.841 51.5542C170.178 51.7137 170.426 51.9213 170.586 52.177C170.763 52.4327 170.851 52.6966 170.852 52.9686C170.852 53.2566 170.773 53.4887 170.613 53.665C170.469 53.8412 170.245 53.9296 169.941 53.9301C169.797 53.9303 169.661 53.9225 169.533 53.9067C169.421 53.8909 169.293 53.8831 169.149 53.8834C169.005 53.8676 168.813 53.8599 168.573 53.8603C167.677 53.8618 166.901 53.991 166.246 54.2481C165.59 54.4892 165.103 54.858 164.784 55.3545C164.88 55.6424 165.121 55.874 165.505 56.0493C165.889 56.2247 166.345 56.376 166.874 56.5031C167.418 56.6302 167.978 56.7653 168.554 56.9083C169.146 57.0514 169.691 57.2425 170.187 57.4817C170.7 57.7048 171.116 58.0081 171.437 58.3916C171.757 58.7751 171.918 59.2628 171.919 59.8548C171.92 60.5268 171.745 61.1111 171.394 61.6077C171.059 62.1042 170.587 62.513 169.98 62.834C169.388 63.139 168.701 63.3641 167.917 63.5094C167.149 63.6707 166.325 63.752 165.445 63.7534Z" fill="#6F7481"/>
</svg>
